<svg width="37" height="30" viewBox="0 0 37 30" fill="none" xmlns="http://www.w3.org/2000/svg">
<path d="M4.76252 26.3711C4.65157 26.3711 4.54525 26.4058 4.46666 26.4622C4.29562 26.5879 4.17081 26.7875 4.06448 27.0347V26.8048C4.06448 26.6964 3.96741 26.6096 3.85646 26.6096C3.74089 26.6096 3.64844 26.6964 3.64844 26.8048V28.8696C3.64844 28.978 3.74089 29.0648 3.85646 29.0648C3.96278 29.0648 4.05524 28.9824 4.05986 28.8826C4.09222 28.3881 4.19392 27.8979 4.32336 27.5119C4.45279 27.1215 4.6377 26.8352 4.72091 26.7745C4.73016 26.7658 4.73478 26.7615 4.7394 26.7615C4.75327 26.7745 4.80412 26.8309 4.85497 26.9653C4.96592 27.2603 5.05837 27.8632 5.07224 28.8305C5.07224 28.939 5.16469 29.0214 5.28026 29.0214C5.37734 29.0214 5.4698 28.952 5.48366 28.8609C5.58536 28.2883 5.77027 27.8762 5.96905 27.6247C6.16783 27.3687 6.36661 27.282 6.51453 27.2863C6.66708 27.295 6.81963 27.3861 6.94445 27.642C7.07388 27.8936 7.15247 28.3057 7.10624 28.8566C7.10624 28.8609 7.10624 28.8696 7.10624 28.8739C7.10624 28.9824 7.1987 29.0691 7.31427 29.0691C7.42059 29.0691 7.51304 28.9867 7.52229 28.8869C7.56852 28.284 7.49455 27.8155 7.32351 27.4728C7.15247 27.1345 6.86586 26.9133 6.53302 26.9003C6.20481 26.8829 5.88584 27.0694 5.63621 27.3904C5.56225 27.4859 5.49291 27.5943 5.42819 27.7158C5.38659 27.334 5.32649 27.0477 5.2479 26.8352C5.17856 26.6443 5.09535 26.5012 4.9428 26.4188C4.88733 26.3884 4.82261 26.3711 4.76252 26.3711Z" fill="#231F20"/>
<path d="M9.54069 26.3017C9.26333 26.3017 8.99521 26.3927 8.78256 26.5272C8.51444 26.6921 8.3018 26.9306 8.32029 27.2256C8.32491 27.3297 8.41737 27.4121 8.52831 27.4121C8.64388 27.4121 8.73634 27.3254 8.73634 27.2169C8.73634 27.2126 8.73634 27.2082 8.73634 27.2039C8.73171 27.1258 8.82417 26.9697 9.00908 26.8525C9.19861 26.7354 9.45286 26.666 9.66551 26.7007C9.87353 26.7354 10.0584 26.8439 10.1833 27.1649C10.2295 27.295 10.2665 27.4642 10.2803 27.6724C10.0862 27.4989 9.82268 27.4381 9.5823 27.4555C9.29569 27.4728 9.01832 27.5856 8.80568 27.7461C8.58841 27.9066 8.41737 28.1278 8.42199 28.3881C8.42199 28.579 8.51444 28.7525 8.65775 28.8566C8.80105 28.965 8.98596 29.0084 9.18012 29.0084C9.49446 29.0041 9.85042 28.8826 10.1833 28.6353C10.1786 28.7004 10.174 28.7742 10.1601 28.8522C10.1601 28.8609 10.1601 28.8739 10.1601 28.8783C10.1601 28.9867 10.2526 29.0735 10.3682 29.0735C10.4606 29.0735 10.5531 29.0041 10.5716 28.9173C10.7565 28.0584 10.7334 27.4555 10.5716 27.0347C10.4098 26.6096 10.0816 26.3711 9.73485 26.3147C9.67013 26.306 9.60541 26.3017 9.54069 26.3017ZM9.67937 27.8415C9.83192 27.8415 9.95212 27.8893 10.0446 28.0064C10.0723 28.0454 10.1 28.0931 10.1232 28.1582C10.1185 28.1625 10.1047 28.1712 10.0954 28.1799C9.78107 28.4879 9.4205 28.618 9.1755 28.618C9.0553 28.618 8.96747 28.5876 8.91662 28.5529C8.86577 28.5139 8.83804 28.4705 8.83804 28.3838C8.83341 28.3013 8.912 28.1669 9.06455 28.0541C9.21248 27.9413 9.42512 27.8546 9.61003 27.8459C9.63315 27.8415 9.65626 27.8415 9.67937 27.8415Z" fill="#231F20"/>
<path d="M12.6214 26.2626C12.529 26.2626 12.4365 26.2756 12.3487 26.2973C11.8772 26.4144 11.4519 26.8222 11.4889 27.3687C11.5073 27.6203 11.6599 27.8112 11.8494 27.8979C12.0343 27.9804 12.2331 27.9977 12.4134 28.0107C12.5983 28.0281 12.7647 28.0411 12.871 28.0801C12.9727 28.1148 13.0005 28.1322 13.019 28.2363C13.0421 28.3491 13.0051 28.4141 12.908 28.4922C12.811 28.5703 12.6445 28.6353 12.4781 28.657C12.3117 28.6831 12.1453 28.6614 12.0436 28.618C11.9465 28.5703 11.9141 28.5399 11.9188 28.4315C11.9188 28.4315 11.9188 28.4271 11.9188 28.4228C11.9188 28.3144 11.8263 28.2276 11.7107 28.2276C11.5952 28.2276 11.5027 28.3144 11.5027 28.4185C11.4935 28.6701 11.6599 28.8739 11.8633 28.9694C12.0667 29.0604 12.3071 29.0778 12.5382 29.0431C12.7693 29.0127 13.0005 28.9347 13.1761 28.7915C13.3564 28.6484 13.4766 28.4185 13.4304 28.1712C13.3888 27.937 13.2039 27.7765 13.0144 27.7114C12.8248 27.6463 12.6307 27.6377 12.4504 27.6247C12.2747 27.6073 12.1175 27.5856 12.0297 27.5466C11.9465 27.5075 11.9141 27.4859 11.9049 27.347C11.8818 27 12.1545 26.7484 12.455 26.6747C12.6076 26.64 12.7555 26.6487 12.871 26.7051C12.9866 26.7615 13.0791 26.8612 13.1299 27.0564C13.1484 27.1432 13.2362 27.2126 13.3333 27.2126C13.4443 27.2126 13.5413 27.1258 13.5413 27.0174C13.5413 27.0044 13.5367 26.9827 13.5321 26.9697C13.4628 26.6834 13.2871 26.4708 13.0652 26.3624C12.9265 26.293 12.774 26.2626 12.6214 26.2626Z" fill="#231F20"/>
<path d="M15.2663 25.7985C15.2663 25.7985 15.2663 25.7985 15.2617 25.7985C15.16 25.7985 15.0675 25.8766 15.0583 25.972C15.0583 25.972 15.0166 26.2886 14.9843 26.7137C14.7439 26.7007 14.5544 26.6834 14.5544 26.6834C14.5498 26.6834 14.5405 26.6834 14.5359 26.6834C14.4203 26.6834 14.3279 26.7701 14.3279 26.8786C14.3279 26.9783 14.4111 27.0651 14.5174 27.0738C14.5174 27.0738 14.7162 27.0911 14.9658 27.1041C14.9566 27.2907 14.9566 27.4815 14.9612 27.6724C14.9704 28.0758 15.0074 28.4575 15.1461 28.7395C15.22 28.8783 15.331 29.0127 15.502 29.0561C15.6777 29.0995 15.858 29.0388 16.029 28.926C16.0753 28.8956 16.1122 28.8219 16.1122 28.7655C16.1122 28.6614 16.0198 28.5703 15.9042 28.5703C15.8672 28.5703 15.8118 28.5876 15.7794 28.6093C15.6731 28.6874 15.6268 28.6831 15.613 28.6787C15.5991 28.6744 15.5668 28.657 15.5251 28.5746C15.4419 28.4055 15.3865 28.0454 15.3772 27.6637C15.3726 27.4859 15.3726 27.2993 15.3818 27.1215C15.4697 27.1258 15.5575 27.1258 15.6407 27.1258C15.7933 27.1258 15.9181 27.1258 16.0336 27.0911C16.1169 27.0694 16.1862 26.9827 16.1862 26.9046C16.1862 26.7962 16.0937 26.7094 15.9782 26.7094C15.9597 26.7094 15.9319 26.7137 15.9135 26.7181C15.9042 26.7224 15.7794 26.7354 15.6361 26.7354C15.5668 26.7354 15.4835 26.7354 15.4003 26.7311C15.4281 26.3233 15.4697 26.0197 15.4697 26.0197C15.4697 26.011 15.4697 26.0024 15.4697 25.9937C15.4697 25.8852 15.3772 25.7985 15.2663 25.7985Z" fill="#231F20"/>
<path d="M18.0175 26.5359C17.9851 26.5359 17.9528 26.5359 17.9204 26.5402C17.6708 26.5663 17.4165 26.6877 17.2362 26.922C17.0606 27.1518 16.9635 27.4815 16.9728 27.9153C16.9774 28.31 17.0791 28.605 17.264 28.8002C17.4443 28.9997 17.6985 29.0778 17.9389 29.0778C18.1747 29.0735 18.4012 28.9997 18.5907 28.8869C18.7756 28.7785 18.9328 28.6353 18.9975 28.4488C19.0021 28.4315 19.0114 28.4055 19.0114 28.3838C19.0114 28.2797 18.9143 28.1886 18.8034 28.1886C18.7155 28.1886 18.6277 28.2536 18.6046 28.3274C18.5861 28.3794 18.4983 28.4835 18.3688 28.5573C18.2394 28.631 18.0776 28.6831 17.9343 28.6874C17.791 28.6874 17.6754 28.6527 17.5783 28.5443C17.4951 28.4575 17.4212 28.3013 17.3934 28.0498C17.6708 28.1799 17.999 28.1886 18.2764 28.1148C18.4705 28.0628 18.6462 27.9717 18.7802 27.8415C18.9097 27.7071 18.9975 27.5206 18.9836 27.321C18.9467 26.8482 18.489 26.5359 18.0175 26.5359ZM18.0175 26.9263C18.2856 26.9263 18.5491 27.1085 18.5676 27.347C18.5722 27.4338 18.5445 27.5032 18.4751 27.5726C18.4058 27.642 18.2902 27.7071 18.1608 27.7418C17.9019 27.8112 17.5922 27.7678 17.4119 27.5813H17.4073C17.4396 27.3861 17.5044 27.2429 17.5783 27.1475C17.6893 27.0044 17.8233 26.9436 17.962 26.9306C17.9805 26.9263 17.999 26.9263 18.0175 26.9263Z" fill="#231F20"/>
<path d="M21.1388 26.3103C21.0833 26.3103 21.0325 26.319 20.9816 26.332C20.7135 26.3971 20.5147 26.601 20.3437 26.8569C20.2975 26.922 20.2559 26.9957 20.2143 27.0694V26.5229C20.2143 26.4144 20.1218 26.3277 20.0062 26.3277C19.8907 26.3277 19.7982 26.4144 19.7982 26.5229V28.6614C19.7936 28.7308 19.7936 28.8002 19.7982 28.8696C19.7982 28.8739 19.7982 28.8783 19.7982 28.8783C19.8028 28.9824 19.8953 29.0648 20.0062 29.0648C20.1218 29.0648 20.2143 28.978 20.2143 28.8696V28.6831C20.2328 28.0888 20.4362 27.4468 20.695 27.0651C20.8337 26.8525 20.9955 26.7311 21.088 26.7094C21.1342 26.6964 21.1665 26.6964 21.2128 26.7181C21.259 26.7441 21.3237 26.7918 21.3931 26.8872C21.4254 26.9393 21.504 26.9783 21.5641 26.9783C21.6797 26.9783 21.7721 26.8916 21.7721 26.7831C21.7721 26.7484 21.7583 26.7007 21.7398 26.6747C21.6427 26.5359 21.5317 26.4318 21.3977 26.3711C21.3145 26.332 21.2266 26.3147 21.1388 26.3103Z" fill="#231F20"/>
<path d="M23.5363 26.4058C23.467 26.4014 23.3977 26.4058 23.3329 26.4188C22.7967 26.5185 22.3298 27.0434 22.3483 27.9153C22.3529 28.31 22.4546 28.605 22.6395 28.8002C22.8198 28.9997 23.0741 29.0778 23.3145 29.0778C23.5502 29.0735 23.7767 28.9997 23.9663 28.8869C24.1512 28.7785 24.3083 28.6353 24.3731 28.4488C24.3777 28.4315 24.3869 28.4055 24.3869 28.3838C24.3869 28.2797 24.2899 28.1886 24.1789 28.1886C24.0911 28.1886 24.0032 28.2536 23.9801 28.3274C23.9616 28.3794 23.8738 28.4835 23.7444 28.5573C23.6149 28.631 23.4531 28.6831 23.3098 28.6874C23.1665 28.6874 23.051 28.6527 22.9539 28.5443C22.8522 28.4402 22.769 28.245 22.7644 27.9066C22.7505 27.1649 23.1064 26.8569 23.4115 26.8048C23.5641 26.7745 23.712 26.8092 23.823 26.8959C23.9385 26.987 24.0264 27.1302 24.031 27.3644C24.0356 27.4685 24.1281 27.5553 24.239 27.5553C24.3546 27.5553 24.447 27.4685 24.447 27.3601C24.447 27.3601 24.447 27.3557 24.447 27.3514C24.4378 27.0261 24.2991 26.7615 24.0911 26.5966C23.9293 26.4708 23.7351 26.4101 23.5363 26.4058Z" fill="#231F20"/>
<path d="M26.4529 26.3017C26.1755 26.3017 25.9074 26.3927 25.6947 26.5272C25.4266 26.6921 25.214 26.9306 25.2325 27.2256C25.2371 27.3297 25.3295 27.4121 25.4405 27.4121C25.5561 27.4121 25.6485 27.3254 25.6485 27.2169C25.6485 27.2126 25.6485 27.2082 25.6485 27.2039C25.6439 27.1258 25.7363 26.9697 25.9212 26.8525C26.1108 26.7354 26.365 26.666 26.5777 26.7007C26.7857 26.7354 26.9706 26.8439 27.0954 27.1649C27.1416 27.295 27.1786 27.4642 27.1925 27.6724C26.9983 27.4989 26.7348 27.4381 26.4945 27.4555C26.2079 27.4728 25.9305 27.5856 25.7178 27.7461C25.5006 27.9066 25.3295 28.1278 25.3342 28.3881C25.3342 28.579 25.4266 28.7525 25.5699 28.8566C25.7132 28.965 25.8981 29.0084 26.0923 29.0084C26.4066 29.0041 26.7626 28.8826 27.0954 28.6353C27.0908 28.7004 27.0862 28.7742 27.0723 28.8522C27.0723 28.8609 27.0723 28.8739 27.0723 28.8783C27.0723 28.9867 27.1648 29.0735 27.2803 29.0735C27.3728 29.0735 27.4652 29.0041 27.4837 28.9173C27.6686 28.0584 27.6455 27.4555 27.4837 27.0347C27.3219 26.6096 26.9937 26.3711 26.647 26.3147C26.5823 26.306 26.5176 26.3017 26.4529 26.3017ZM26.5915 27.8415C26.7441 27.8415 26.8643 27.8893 26.9567 28.0064C26.9845 28.0454 27.0122 28.0931 27.0353 28.1582C27.0307 28.1625 27.0168 28.1712 27.0076 28.1799C26.6932 28.4879 26.3327 28.618 26.0877 28.618C25.9675 28.618 25.8796 28.5876 25.8288 28.5529C25.7779 28.5139 25.7502 28.4705 25.7502 28.3838C25.7456 28.3013 25.8242 28.1669 25.9767 28.0541C26.1246 27.9413 26.3373 27.8546 26.5222 27.8459C26.5453 27.8415 26.5684 27.8415 26.5915 27.8415Z" fill="#231F20"/>
<path d="M29.7416 26.3103C29.6861 26.3103 29.6353 26.319 29.5844 26.332C29.3163 26.3971 29.1175 26.601 28.9465 26.8569C28.9003 26.922 28.8587 26.9957 28.8171 27.0694V26.5229C28.8171 26.4144 28.7246 26.3277 28.609 26.3277C28.4935 26.3277 28.401 26.4144 28.401 26.5229V28.6614C28.3964 28.7308 28.3964 28.8002 28.401 28.8696C28.401 28.8739 28.401 28.8783 28.401 28.8783C28.4056 28.9824 28.4981 29.0648 28.609 29.0648C28.7246 29.0648 28.8171 28.978 28.8171 28.8696V28.6831C28.8356 28.0888 29.039 27.4468 29.2978 27.0651C29.4365 26.8525 29.5983 26.7311 29.6908 26.7094C29.737 26.6964 29.7694 26.6964 29.8156 26.7181C29.8618 26.7441 29.9265 26.7918 29.9959 26.8872C30.0282 26.9393 30.1068 26.9783 30.1669 26.9783C30.2825 26.9783 30.3749 26.8916 30.3749 26.7831C30.3749 26.7484 30.3611 26.7007 30.3426 26.6747C30.2455 26.5359 30.1345 26.4318 30.0005 26.3711C29.9173 26.332 29.8294 26.3147 29.7416 26.3103Z" fill="#231F20"/>
<path d="M32.6146 25.7941C32.499 25.7985 32.4065 25.8852 32.4065 25.9893V25.9937L32.4112 26.8612C32.3326 26.8048 32.2494 26.7615 32.1662 26.7354C32.083 26.7051 31.9997 26.6964 31.9212 26.6921C31.7825 26.6921 31.653 26.7268 31.5375 26.7875C31.1769 26.974 30.9504 27.3644 30.8441 27.7635C30.7424 28.1625 30.7516 28.605 31.0752 28.8652C31.237 28.9954 31.4681 29.0561 31.727 29.0257C31.935 29.0041 32.1615 28.9347 32.4204 28.8089V28.8783C32.4204 28.9867 32.5129 29.0735 32.6284 29.0735C32.744 29.0735 32.8365 28.9867 32.8365 28.8783V28.8739L32.8226 25.9937C32.8226 25.9893 32.8226 25.9893 32.8226 25.9893C32.8226 25.8809 32.7301 25.7941 32.6146 25.7941ZM31.9165 27.0824C31.9535 27.0824 31.9859 27.0868 32.0275 27.0998C32.1338 27.1345 32.2679 27.2299 32.4158 27.4295L32.4204 28.3621C32.1014 28.5399 31.8518 28.618 31.6808 28.6397C31.5051 28.657 31.4127 28.6223 31.3479 28.5703C31.2185 28.4662 31.163 28.1712 31.2462 27.8546C31.3295 27.5379 31.5421 27.2299 31.7409 27.1302C31.801 27.0955 31.8564 27.0824 31.9165 27.0824Z" fill="#231F20"/>
<path d="M4.76252 26.3711C4.65157 26.3711 4.54525 26.4058 4.46666 26.4622C4.29562 26.5879 4.17081 26.7875 4.06448 27.0347V26.8048C4.06448 26.6964 3.96741 26.6096 3.85646 26.6096C3.74089 26.6096 3.64844 26.6964 3.64844 26.8048V28.8696C3.64844 28.978 3.74089 29.0648 3.85646 29.0648C3.96278 29.0648 4.05524 28.9824 4.05986 28.8826C4.09222 28.3881 4.19392 27.8979 4.32336 27.5119C4.45279 27.1215 4.6377 26.8352 4.72091 26.7745C4.73016 26.7658 4.73478 26.7615 4.7394 26.7615C4.75327 26.7745 4.80412 26.8309 4.85497 26.9653C4.96592 27.2603 5.05837 27.8632 5.07224 28.8305C5.07224 28.939 5.16469 29.0214 5.28026 29.0214C5.37734 29.0214 5.4698 28.952 5.48366 28.8609C5.58536 28.2883 5.77027 27.8762 5.96905 27.6247C6.16783 27.3687 6.36661 27.282 6.51453 27.2863C6.66708 27.295 6.81963 27.3861 6.94445 27.642C7.07388 27.8936 7.15247 28.3057 7.10624 28.8566C7.10624 28.8609 7.10624 28.8696 7.10624 28.8739C7.10624 28.9824 7.1987 29.0691 7.31427 29.0691C7.42059 29.0691 7.51304 28.9867 7.52229 28.8869C7.56852 28.284 7.49455 27.8155 7.32351 27.4728C7.15247 27.1345 6.86586 26.9133 6.53302 26.9003C6.20481 26.8829 5.88584 27.0694 5.63621 27.3904C5.56225 27.4859 5.49291 27.5943 5.42819 27.7158C5.38659 27.334 5.32649 27.0477 5.2479 26.8352C5.17856 26.6443 5.09535 26.5012 4.9428 26.4188C4.88733 26.3884 4.82261 26.3711 4.76252 26.3711Z" stroke="#231F20" stroke-width="0.182425"/>
<path d="M9.54069 26.3017C9.26333 26.3017 8.99521 26.3927 8.78256 26.5272C8.51444 26.6921 8.3018 26.9306 8.32029 27.2256C8.32491 27.3297 8.41737 27.4121 8.52831 27.4121C8.64388 27.4121 8.73634 27.3254 8.73634 27.2169C8.73634 27.2126 8.73634 27.2082 8.73634 27.2039C8.73171 27.1258 8.82417 26.9697 9.00908 26.8525C9.19861 26.7354 9.45286 26.666 9.66551 26.7007C9.87353 26.7354 10.0584 26.8439 10.1833 27.1649C10.2295 27.295 10.2665 27.4642 10.2803 27.6724C10.0862 27.4989 9.82268 27.4381 9.5823 27.4555C9.29569 27.4728 9.01832 27.5856 8.80568 27.7461C8.58841 27.9066 8.41737 28.1278 8.42199 28.3881C8.42199 28.579 8.51444 28.7525 8.65775 28.8566C8.80105 28.965 8.98596 29.0084 9.18012 29.0084C9.49446 29.0041 9.85042 28.8826 10.1833 28.6353C10.1786 28.7004 10.174 28.7742 10.1601 28.8522C10.1601 28.8609 10.1601 28.8739 10.1601 28.8783C10.1601 28.9867 10.2526 29.0735 10.3682 29.0735C10.4606 29.0735 10.5531 29.0041 10.5716 28.9173C10.7565 28.0584 10.7334 27.4555 10.5716 27.0347C10.4098 26.6096 10.0816 26.3711 9.73485 26.3147C9.67013 26.306 9.60541 26.3017 9.54069 26.3017ZM9.67937 27.8415C9.83192 27.8415 9.95212 27.8893 10.0446 28.0064C10.0723 28.0454 10.1 28.0931 10.1232 28.1582C10.1185 28.1625 10.1047 28.1712 10.0954 28.1799C9.78107 28.4879 9.4205 28.618 9.1755 28.618C9.0553 28.618 8.96747 28.5876 8.91662 28.5529C8.86577 28.5139 8.83804 28.4705 8.83804 28.3838C8.83341 28.3013 8.912 28.1669 9.06455 28.0541C9.21248 27.9413 9.42512 27.8546 9.61003 27.8459C9.63315 27.8415 9.65626 27.8415 9.67937 27.8415Z" stroke="#231F20" stroke-width="0.182425"/>
<path d="M12.6214 26.2626C12.529 26.2626 12.4365 26.2756 12.3487 26.2973C11.8772 26.4144 11.4519 26.8222 11.4889 27.3687C11.5073 27.6203 11.6599 27.8112 11.8494 27.8979C12.0343 27.9804 12.2331 27.9977 12.4134 28.0107C12.5983 28.0281 12.7647 28.0411 12.871 28.0801C12.9727 28.1148 13.0005 28.1322 13.019 28.2363C13.0421 28.3491 13.0051 28.4141 12.908 28.4922C12.811 28.5703 12.6445 28.6353 12.4781 28.657C12.3117 28.6831 12.1453 28.6614 12.0436 28.618C11.9465 28.5703 11.9141 28.5399 11.9188 28.4315C11.9188 28.4315 11.9188 28.4271 11.9188 28.4228C11.9188 28.3144 11.8263 28.2276 11.7107 28.2276C11.5952 28.2276 11.5027 28.3144 11.5027 28.4185C11.4935 28.6701 11.6599 28.8739 11.8633 28.9694C12.0667 29.0604 12.3071 29.0778 12.5382 29.0431C12.7693 29.0127 13.0005 28.9347 13.1761 28.7915C13.3564 28.6484 13.4766 28.4185 13.4304 28.1712C13.3888 27.937 13.2039 27.7765 13.0144 27.7114C12.8248 27.6463 12.6307 27.6377 12.4504 27.6247C12.2747 27.6073 12.1175 27.5856 12.0297 27.5466C11.9465 27.5075 11.9141 27.4859 11.9049 27.347C11.8818 27 12.1545 26.7484 12.455 26.6747C12.6076 26.64 12.7555 26.6487 12.871 26.7051C12.9866 26.7615 13.0791 26.8612 13.1299 27.0564C13.1484 27.1432 13.2362 27.2126 13.3333 27.2126C13.4443 27.2126 13.5413 27.1258 13.5413 27.0174C13.5413 27.0044 13.5367 26.9827 13.5321 26.9697C13.4628 26.6834 13.2871 26.4708 13.0652 26.3624C12.9265 26.293 12.774 26.2626 12.6214 26.2626Z" stroke="#231F20" stroke-width="0.182425"/>
<path d="M15.2663 25.7985C15.2663 25.7985 15.2663 25.7985 15.2617 25.7985C15.16 25.7985 15.0675 25.8766 15.0583 25.972C15.0583 25.972 15.0166 26.2886 14.9843 26.7137C14.7439 26.7007 14.5544 26.6834 14.5544 26.6834C14.5498 26.6834 14.5405 26.6834 14.5359 26.6834C14.4203 26.6834 14.3279 26.7701 14.3279 26.8786C14.3279 26.9783 14.4111 27.0651 14.5174 27.0738C14.5174 27.0738 14.7162 27.0911 14.9658 27.1041C14.9566 27.2907 14.9566 27.4815 14.9612 27.6724C14.9704 28.0758 15.0074 28.4575 15.1461 28.7395C15.22 28.8783 15.331 29.0127 15.502 29.0561C15.6777 29.0995 15.858 29.0388 16.029 28.926C16.0753 28.8956 16.1122 28.8219 16.1122 28.7655C16.1122 28.6614 16.0198 28.5703 15.9042 28.5703C15.8672 28.5703 15.8118 28.5876 15.7794 28.6093C15.6731 28.6874 15.6268 28.6831 15.613 28.6787C15.5991 28.6744 15.5668 28.657 15.5251 28.5746C15.4419 28.4055 15.3865 28.0454 15.3772 27.6637C15.3726 27.4859 15.3726 27.2993 15.3818 27.1215C15.4697 27.1258 15.5575 27.1258 15.6407 27.1258C15.7933 27.1258 15.9181 27.1258 16.0336 27.0911C16.1169 27.0694 16.1862 26.9827 16.1862 26.9046C16.1862 26.7962 16.0937 26.7094 15.9782 26.7094C15.9597 26.7094 15.9319 26.7137 15.9135 26.7181C15.9042 26.7224 15.7794 26.7354 15.6361 26.7354C15.5668 26.7354 15.4835 26.7354 15.4003 26.7311C15.4281 26.3233 15.4697 26.0197 15.4697 26.0197C15.4697 26.011 15.4697 26.0024 15.4697 25.9937C15.4697 25.8852 15.3772 25.7985 15.2663 25.7985Z" stroke="#231F20" stroke-width="0.182425"/>
<path d="M18.0175 26.5359C17.9851 26.5359 17.9528 26.5359 17.9204 26.5402C17.6708 26.5663 17.4165 26.6877 17.2362 26.922C17.0606 27.1518 16.9635 27.4815 16.9728 27.9153C16.9774 28.31 17.0791 28.605 17.264 28.8002C17.4443 28.9997 17.6985 29.0778 17.9389 29.0778C18.1747 29.0735 18.4012 28.9997 18.5907 28.8869C18.7756 28.7785 18.9328 28.6353 18.9975 28.4488C19.0021 28.4315 19.0114 28.4055 19.0114 28.3838C19.0114 28.2797 18.9143 28.1886 18.8034 28.1886C18.7155 28.1886 18.6277 28.2536 18.6046 28.3274C18.5861 28.3794 18.4983 28.4835 18.3688 28.5573C18.2394 28.631 18.0776 28.6831 17.9343 28.6874C17.791 28.6874 17.6754 28.6527 17.5783 28.5443C17.4951 28.4575 17.4212 28.3013 17.3934 28.0498C17.6708 28.1799 17.999 28.1886 18.2764 28.1148C18.4705 28.0628 18.6462 27.9717 18.7802 27.8415C18.9097 27.7071 18.9975 27.5206 18.9836 27.321C18.9467 26.8482 18.489 26.5359 18.0175 26.5359ZM18.0175 26.9263C18.2856 26.9263 18.5491 27.1085 18.5676 27.347C18.5722 27.4338 18.5445 27.5032 18.4751 27.5726C18.4058 27.642 18.2902 27.7071 18.1608 27.7418C17.9019 27.8112 17.5922 27.7678 17.4119 27.5813H17.4073C17.4396 27.3861 17.5044 27.2429 17.5783 27.1475C17.6893 27.0044 17.8233 26.9436 17.962 26.9306C17.9805 26.9263 17.999 26.9263 18.0175 26.9263Z" stroke="#231F20" stroke-width="0.182425"/>
<path d="M21.1388 26.3103C21.0833 26.3103 21.0325 26.319 20.9816 26.332C20.7135 26.3971 20.5147 26.601 20.3437 26.8569C20.2975 26.922 20.2559 26.9957 20.2143 27.0694V26.5229C20.2143 26.4144 20.1218 26.3277 20.0062 26.3277C19.8907 26.3277 19.7982 26.4144 19.7982 26.5229V28.6614C19.7936 28.7308 19.7936 28.8002 19.7982 28.8696C19.7982 28.8739 19.7982 28.8783 19.7982 28.8783C19.8028 28.9824 19.8953 29.0648 20.0062 29.0648C20.1218 29.0648 20.2143 28.978 20.2143 28.8696V28.6831C20.2328 28.0888 20.4362 27.4468 20.695 27.0651C20.8337 26.8525 20.9955 26.7311 21.088 26.7094C21.1342 26.6964 21.1665 26.6964 21.2128 26.7181C21.259 26.7441 21.3237 26.7918 21.3931 26.8872C21.4254 26.9393 21.504 26.9783 21.5641 26.9783C21.6797 26.9783 21.7721 26.8916 21.7721 26.7831C21.7721 26.7484 21.7583 26.7007 21.7398 26.6747C21.6427 26.5359 21.5317 26.4318 21.3977 26.3711C21.3145 26.332 21.2266 26.3147 21.1388 26.3103Z" stroke="#231F20" stroke-width="0.182425"/>
<path d="M23.5363 26.4058C23.467 26.4014 23.3977 26.4058 23.3329 26.4188C22.7967 26.5185 22.3298 27.0434 22.3483 27.9153C22.3529 28.31 22.4546 28.605 22.6395 28.8002C22.8198 28.9997 23.0741 29.0778 23.3145 29.0778C23.5502 29.0735 23.7767 28.9997 23.9663 28.8869C24.1512 28.7785 24.3083 28.6353 24.3731 28.4488C24.3777 28.4315 24.3869 28.4055 24.3869 28.3838C24.3869 28.2797 24.2899 28.1886 24.1789 28.1886C24.0911 28.1886 24.0032 28.2536 23.9801 28.3274C23.9616 28.3794 23.8738 28.4835 23.7444 28.5573C23.6149 28.631 23.4531 28.6831 23.3098 28.6874C23.1665 28.6874 23.051 28.6527 22.9539 28.5443C22.8522 28.4402 22.769 28.245 22.7644 27.9066C22.7505 27.1649 23.1064 26.8569 23.4115 26.8048C23.5641 26.7745 23.712 26.8092 23.823 26.8959C23.9385 26.987 24.0264 27.1302 24.031 27.3644C24.0356 27.4685 24.1281 27.5553 24.239 27.5553C24.3546 27.5553 24.447 27.4685 24.447 27.3601C24.447 27.3601 24.447 27.3557 24.447 27.3514C24.4378 27.0261 24.2991 26.7615 24.0911 26.5966C23.9293 26.4708 23.7351 26.4101 23.5363 26.4058Z" stroke="#231F20" stroke-width="0.182425"/>
<path d="M26.4529 26.3017C26.1755 26.3017 25.9074 26.3927 25.6947 26.5272C25.4266 26.6921 25.214 26.9306 25.2325 27.2256C25.2371 27.3297 25.3295 27.4121 25.4405 27.4121C25.5561 27.4121 25.6485 27.3254 25.6485 27.2169C25.6485 27.2126 25.6485 27.2082 25.6485 27.2039C25.6439 27.1258 25.7363 26.9697 25.9212 26.8525C26.1108 26.7354 26.365 26.666 26.5777 26.7007C26.7857 26.7354 26.9706 26.8439 27.0954 27.1649C27.1416 27.295 27.1786 27.4642 27.1925 27.6724C26.9983 27.4989 26.7348 27.4381 26.4945 27.4555C26.2079 27.4728 25.9305 27.5856 25.7178 27.7461C25.5006 27.9066 25.3295 28.1278 25.3342 28.3881C25.3342 28.579 25.4266 28.7525 25.5699 28.8566C25.7132 28.965 25.8981 29.0084 26.0923 29.0084C26.4066 29.0041 26.7626 28.8826 27.0954 28.6353C27.0908 28.7004 27.0862 28.7742 27.0723 28.8522C27.0723 28.8609 27.0723 28.8739 27.0723 28.8783C27.0723 28.9867 27.1648 29.0735 27.2803 29.0735C27.3728 29.0735 27.4652 29.0041 27.4837 28.9173C27.6686 28.0584 27.6455 27.4555 27.4837 27.0347C27.3219 26.6096 26.9937 26.3711 26.647 26.3147C26.5823 26.306 26.5176 26.3017 26.4529 26.3017ZM26.5915 27.8415C26.7441 27.8415 26.8643 27.8893 26.9567 28.0064C26.9845 28.0454 27.0122 28.0931 27.0353 28.1582C27.0307 28.1625 27.0168 28.1712 27.0076 28.1799C26.6932 28.4879 26.3327 28.618 26.0877 28.618C25.9675 28.618 25.8796 28.5876 25.8288 28.5529C25.7779 28.5139 25.7502 28.4705 25.7502 28.3838C25.7456 28.3013 25.8242 28.1669 25.9767 28.0541C26.1246 27.9413 26.3373 27.8546 26.5222 27.8459C26.5453 27.8415 26.5684 27.8415 26.5915 27.8415Z" stroke="#231F20" stroke-width="0.182425"/>
<path d="M29.7416 26.3103C29.6861 26.3103 29.6353 26.319 29.5844 26.332C29.3163 26.3971 29.1175 26.601 28.9465 26.8569C28.9003 26.922 28.8587 26.9957 28.8171 27.0694V26.5229C28.8171 26.4144 28.7246 26.3277 28.609 26.3277C28.4935 26.3277 28.401 26.4144 28.401 26.5229V28.6614C28.3964 28.7308 28.3964 28.8002 28.401 28.8696C28.401 28.8739 28.401 28.8783 28.401 28.8783C28.4056 28.9824 28.4981 29.0648 28.609 29.0648C28.7246 29.0648 28.8171 28.978 28.8171 28.8696V28.6831C28.8356 28.0888 29.039 27.4468 29.2978 27.0651C29.4365 26.8525 29.5983 26.7311 29.6908 26.7094C29.737 26.6964 29.7694 26.6964 29.8156 26.7181C29.8618 26.7441 29.9265 26.7918 29.9959 26.8872C30.0282 26.9393 30.1068 26.9783 30.1669 26.9783C30.2825 26.9783 30.3749 26.8916 30.3749 26.7831C30.3749 26.7484 30.3611 26.7007 30.3426 26.6747C30.2455 26.5359 30.1345 26.4318 30.0005 26.3711C29.9173 26.332 29.8294 26.3147 29.7416 26.3103Z" stroke="#231F20" stroke-width="0.182425"/>
<path d="M32.6146 25.7941C32.499 25.7985 32.4065 25.8852 32.4065 25.9893V25.9937L32.4112 26.8612C32.3326 26.8048 32.2494 26.7615 32.1662 26.7354C32.083 26.7051 31.9997 26.6964 31.9212 26.6921C31.7825 26.6921 31.653 26.7268 31.5375 26.7875C31.1769 26.974 30.9504 27.3644 30.8441 27.7635C30.7424 28.1625 30.7516 28.605 31.0752 28.8652C31.237 28.9954 31.4681 29.0561 31.727 29.0257C31.935 29.0041 32.1615 28.9347 32.4204 28.8089V28.8783C32.4204 28.9867 32.5129 29.0735 32.6284 29.0735C32.744 29.0735 32.8365 28.9867 32.8365 28.8783V28.8739L32.8226 25.9937C32.8226 25.9893 32.8226 25.9893 32.8226 25.9893C32.8226 25.8809 32.7301 25.7941 32.6146 25.7941ZM31.9165 27.0824C31.9535 27.0824 31.9859 27.0868 32.0275 27.0998C32.1338 27.1345 32.2679 27.2299 32.4158 27.4295L32.4204 28.3621C32.1014 28.5399 31.8518 28.618 31.6808 28.6397C31.5051 28.657 31.4127 28.6223 31.3479 28.5703C31.2185 28.4662 31.163 28.1712 31.2462 27.8546C31.3295 27.5379 31.5421 27.2299 31.7409 27.1302C31.801 27.0955 31.8564 27.0824 31.9165 27.0824Z" stroke="#231F20" stroke-width="0.182425"/>
<path d="M22.9854 20.6862H12.4048V3.17343H22.9854V20.6862Z" fill="#FF5F00"/>
<path d="M13.2664 11.9552C13.2664 8.47208 15.6886 5.3694 18.2424 3.36991C16.3749 1.90778 15.588 0.984333 10.5877 0.984333C5.58734 0.984333 1.4799 5.57568 0.476546 11.9552C-0.526809 18.3348 5.39223 22.8754 11.4564 22.8754C14.0179 22.8754 16.3749 22.0027 18.2424 20.5405C15.6886 18.541 13.2664 15.4384 13.2664 11.9552Z" fill="#EB001B"/>
<path d="M36.0194 11.9607C35.0758 18.5058 31.4658 22.0292 27.0347 22.4108C22.6036 22.7924 20.4232 22.0558 18.2422 20.5903C20.7983 18.5805 22.4392 15.4618 22.4392 11.9607C22.4392 8.45965 20.7983 5.34098 18.2422 3.33118C20.1116 1.86152 22.4699 0.984329 25.033 0.984329C31.1008 0.984329 36.963 5.4157 36.0194 11.9607Z" fill="#F79E1B"/>
</svg>
