<svg width="31" height="25" viewBox="0 0 31 25" fill="none" xmlns="http://www.w3.org/2000/svg">
<path d="M3.2538 2.10376C3.94611 1.73497 5.09458 1.38043 6.55217 1.09854C7.99921 0.818688 9.71542 0.617073 11.5206 0.537503C15.1454 0.377725 19.0607 0.712989 21.8595 1.84341C22.7053 2.18504 23.3257 2.92351 23.5689 3.82962C24.2813 6.48395 24.5394 9.94677 24.4952 13.3262C24.451 16.702 24.1058 19.9537 23.6321 22.1735C23.3871 23.3215 22.5211 24.1746 21.3956 24.3246C19.4624 24.5822 16.9094 24.5208 14.0284 24.3656C13.0798 24.3145 12.096 24.2532 11.0908 24.1906C9.06409 24.0644 6.95067 23.9328 4.86548 23.8682C3.41816 23.8233 2.12419 23.1757 1.64987 21.9804C0.604927 19.347 0.339148 15.7794 0.585456 12.2545C0.831352 8.73544 1.58265 5.32694 2.51784 3.03523C2.69591 2.59886 2.93252 2.27491 3.2538 2.10376Z" stroke="#444448"/>
<path d="M29.3795 0.842043C29.147 0.603597 28.8387 0.510304 28.5546 0.603587C26.7989 1.18064 25.3245 2.42227 23.9587 3.92705C23.2776 4.67748 22.6323 5.48313 21.9959 6.29219C21.8925 6.42359 21.7893 6.55522 21.6862 6.68673C21.1578 7.36036 20.6318 8.03107 20.103 8.65268C19.6149 9.22636 19.12 9.78916 18.6264 10.348C18.2627 10.7842 17.0723 12.1533 15.8589 13.5044C15.2489 14.1837 14.6303 14.8615 14.1056 15.4166C13.5908 15.9611 13.1404 16.4155 12.8785 16.6248L12.5422 16.8933L12.2266 16.6008C11.4365 15.8687 10.5405 14.9624 9.64789 14.0594C9.13987 13.5455 8.63284 13.0326 8.14721 12.5538C7.47036 11.8863 6.83124 11.2807 6.2701 10.808C5.69527 10.3238 5.24913 10.0201 4.95188 9.90739C4.77061 9.83864 4.50193 9.81874 4.20339 9.87659C3.90814 9.9338 3.62954 10.0585 3.42889 10.2261C3.23257 10.3901 3.12727 10.5785 3.11225 10.785C3.09696 10.9953 3.16911 11.3108 3.50178 11.7355C5.49595 14.2812 7.45143 16.2555 9.72521 18.5504L9.8639 18.6904C10.756 19.5909 11.4395 20.1251 12.1179 20.2893C12.7482 20.4418 13.4851 20.2951 14.5461 19.5134L14.563 19.501C14.7602 19.3553 14.9356 19.225 15.089 19.0809C16.6058 17.6556 20.8068 12.9972 21.8959 11.7254C22.5642 10.9455 23.3183 10.1597 24.0818 9.36791L24.1933 9.25233C24.9239 8.49472 25.6616 7.72984 26.3579 6.94181C27.8258 5.28057 29.0661 3.5632 29.6241 1.70398C29.7118 1.41176 29.6143 1.08267 29.3795 0.842043Z" fill="#F73E49"/>
</svg>
