<svg width="25" height="25" viewBox="0 0 25 25" fill="none" xmlns="http://www.w3.org/2000/svg">
<path d="M2.51784 3.03523C2.69591 2.59886 2.93252 2.27491 3.2538 2.10376C3.94611 1.73497 5.09458 1.38043 6.55217 1.09854C7.99921 0.818688 9.71542 0.617073 11.5206 0.537503C15.1454 0.377725 19.0607 0.712989 21.8595 1.84341C22.7053 2.18504 23.3257 2.92351 23.5689 3.82962C24.2813 6.48395 24.5394 9.94677 24.4952 13.3262C24.451 16.702 24.1058 19.9537 23.6321 22.1735C23.3871 23.3215 22.5211 24.1746 21.3956 24.3246C19.4624 24.5822 16.9094 24.5208 14.0284 24.3656C13.0798 24.3145 12.096 24.2532 11.0908 24.1906C9.06409 24.0644 6.95067 23.9328 4.86547 23.8682C3.41815 23.8233 2.12419 23.1757 1.64987 21.9804C0.604927 19.347 0.339148 15.7794 0.585456 12.2545C0.831352 8.73544 1.58265 5.32694 2.51784 3.03523Z" stroke="#444448"/>
</svg>
