<svg width="175" height="158" viewBox="0 0 175 158" fill="none" xmlns="http://www.w3.org/2000/svg">
<path d="M82 120.962L81.1627 119.717L82 120.962ZM175 157.962L171.816 140.937L158.664 152.206L175 157.962ZM0.566715 77.4043C4.7768 91.045 13.8932 109.751 27.6592 121.335C34.5675 127.148 42.7021 131.212 52.0039 131.868C61.3142 132.524 71.6196 129.753 82.8373 122.207L81.1627 119.717C70.3804 126.971 60.7274 129.475 52.2148 128.875C43.6937 128.274 36.1409 124.551 29.5908 119.039C16.4401 107.973 7.55653 89.8789 3.43329 76.5196L0.566715 77.4043ZM82.8373 122.207C110.936 103.304 120.754 66.9363 120.25 39.1847C119.998 25.3248 117.171 13.283 112.485 6.48564C110.132 3.0716 107.146 0.758164 103.592 0.520007C100.042 0.282015 96.4297 2.15098 92.9022 5.93983L95.0978 7.98409C98.3203 4.52294 101.115 3.36066 103.392 3.51329C105.667 3.66576 107.931 5.16483 110.015 8.18828C114.204 14.2659 117.002 25.5991 117.25 39.2392C117.746 66.4876 108.064 101.62 81.1627 119.717L82.8373 122.207ZM92.9022 5.93983C86.7355 12.5632 87.1585 23.2388 90.9342 35.2585C94.7514 47.4101 102.19 61.573 111.054 75.8367C128.796 104.385 152.462 133.67 165.066 148.674L167.363 146.744C154.782 131.768 131.228 102.615 113.602 74.2532C104.783 60.0619 97.5005 46.1514 93.7963 34.3594C90.0506 22.4354 90.1514 13.297 95.0978 7.98409L92.9022 5.93983Z" fill="#FB9358"/>
</svg>
