<svg width="73" height="57" viewBox="0 0 73 57" fill="none" xmlns="http://www.w3.org/2000/svg">
<path fill-rule="evenodd" clip-rule="evenodd" d="M71.5472 4.72217C71.5502 4.8574 71.5531 4.99035 71.5571 5.11978C71.8545 14.6208 72.0329 24.1358 71.9949 33.6419C71.9762 38.361 71.8759 43.0806 71.762 47.7981C71.7532 48.1676 71.7469 48.5376 71.7406 48.9078C71.7259 49.7704 71.7112 50.6338 71.6637 51.4937C71.62 52.2811 71.5108 53.0737 71.0724 53.7484C70.1369 55.1878 68.2636 55.2788 66.7235 55.3388C57.2029 55.7103 52.2947 55.9265 42.7689 56.1016C33.2408 56.2769 23.7137 56.3612 14.1841 56.4055C11.8551 56.4163 9.5258 56.4261 7.19654 56.4357C6.9859 56.4366 6.76612 56.4418 6.54057 56.4473C5.09804 56.482 3.41905 56.5223 2.38206 55.446C1.40693 54.4337 1.49117 52.6604 1.56214 51.1665C1.58123 50.7646 1.59936 50.3829 1.59564 50.0416L1.51767 42.8875C1.48516 39.9014 1.45883 36.9149 1.43249 33.9284C1.37532 27.4457 1.31815 20.9626 1.19784 14.4816C1.1888 13.9952 1.18087 13.5087 1.17294 13.0221C1.14199 11.1233 1.11102 9.22339 1.01435 7.3272C0.941072 5.89355 1.09721 4.28968 2.71108 3.81574C3.43818 3.60213 4.23786 3.56071 5.0168 3.52036C5.31258 3.50504 5.60536 3.48987 5.89005 3.4655C7.00835 3.36977 8.12726 3.2767 9.24618 3.18689C11.624 2.99585 14.0029 2.81827 16.3828 2.65397C25.8331 2.00185 35.2969 1.58139 44.7673 1.37483C50.7415 1.24461 52.1208 1.13235 58.1091 1.22644L58.6598 1.21491C60.1124 1.18451 61.5652 1.1541 63.0179 1.12112L66.5973 1.04009C66.8696 1.03396 67.146 1.0201 67.4242 1.00616C68.1366 0.97044 68.8605 0.934152 69.5546 1.0256C71.4721 1.27815 71.513 3.15341 71.5472 4.72217ZM20.9599 54.6485C23.8198 54.6051 26.6798 54.5683 29.5397 54.5324C35.0087 54.4638 42.1698 54.373 47.6385 54.2616C52.0137 54.1724 51.7694 54.0542 56.1432 53.9144C58.4006 53.8423 60.658 53.7639 62.915 53.6786C64.0435 53.636 65.172 53.5917 66.3006 53.5454C66.4544 53.539 66.6109 53.5354 66.7688 53.5316C67.4592 53.5154 68.1766 53.4985 68.8166 53.259C69.8173 52.8844 69.8333 51.9127 69.8484 50.9948C69.8497 50.9145 69.8511 50.8345 69.853 50.7554C69.8794 49.6992 69.9022 48.6429 69.9228 47.5867C69.9653 45.4037 69.9945 43.2204 70.0167 41.0371C70.0618 36.6002 70.0773 32.1625 70.0802 27.7252C70.0829 23.2873 70.0467 18.8509 69.9565 14.414C69.912 12.2311 69.8587 10.0481 69.7963 7.86543C69.7642 6.73876 69.7295 5.61249 69.6926 4.48603C69.6887 4.36742 69.6929 4.23391 69.6973 4.09394C69.711 3.65752 69.7267 3.1583 69.5046 2.85215C69.255 2.50839 68.9204 2.5189 68.5316 2.53112C68.4506 2.53366 68.3672 2.53628 68.2818 2.53579C65.3575 2.51925 62.4334 2.51555 59.5094 2.51186C57.8145 2.50971 56.1196 2.50757 54.4248 2.50293C44.7222 2.65233 39.6465 2.93747 29.9593 3.43039C24.9771 3.69267 18.8421 4.06945 13.8633 4.45419C11.624 4.62727 9.38579 4.81199 7.14837 5.00895C6.80215 5.03942 6.45462 5.06611 6.10675 5.09283C5.33363 5.15221 4.55883 5.21172 3.79306 5.31307C2.73435 5.45309 2.54433 5.97927 2.47881 6.9794C2.27266 10.13 2.37506 13.3351 2.47677 16.5183C2.51573 17.7378 2.5546 18.9541 2.57597 20.1629L3.04255 46.4647C3.05502 47.1666 3.06239 47.8693 3.06976 48.5722C3.08521 50.0448 3.10067 51.5182 3.16298 52.9875C3.16416 53.0155 3.16529 53.0434 3.16641 53.0712C3.19003 53.6577 3.21276 54.2223 3.78387 54.5508C4.14065 54.7559 4.58989 54.8016 4.99177 54.8286C5.66109 54.8733 6.33846 54.8551 7.01301 54.837C7.28655 54.8296 7.55963 54.8223 7.83151 54.8192C12.2078 54.7686 16.5838 54.7151 20.9599 54.6485Z" fill="#F48120"/>
<path d="M58.1091 1.22644C52.1209 1.13235 50.7415 1.24461 44.7673 1.37483C35.2969 1.58139 25.8331 2.00185 16.3828 2.65397C14.0029 2.81827 11.624 2.99585 9.24618 3.18689C8.12726 3.2767 7.00835 3.36977 5.89005 3.4655C5.60536 3.48987 5.31258 3.50504 5.0168 3.52036C4.23786 3.56071 3.43818 3.60213 2.71108 3.81574C1.09721 4.28968 0.941072 5.89355 1.01435 7.3272C1.11102 9.22339 1.14199 11.1233 1.17294 13.0221C1.18087 13.5087 1.1888 13.9952 1.19784 14.4816C1.31815 20.9626 1.37532 27.4457 1.43249 33.9284C1.45883 36.9149 1.48516 39.9014 1.51767 42.8875M58.1091 1.22644L58.6598 1.21491M58.1091 1.22644C58.2927 1.2226 58.4763 1.21875 58.6598 1.21491M1.51767 42.8875C1.54359 45.2723 1.56952 47.6569 1.59564 50.0416M1.51767 42.8875L1.59564 50.0416M1.59564 50.0416C1.59936 50.3829 1.58123 50.7646 1.56214 51.1665C1.49117 52.6604 1.40693 54.4337 2.38206 55.446C3.41905 56.5223 5.09804 56.482 6.54057 56.4473C6.76612 56.4418 6.9859 56.4366 7.19654 56.4357C9.5258 56.4261 11.8551 56.4163 14.1841 56.4055C23.7137 56.3612 33.2408 56.2769 42.7689 56.1016C52.2947 55.9265 57.2029 55.7103 66.7235 55.3388C68.2636 55.2788 70.1369 55.1878 71.0724 53.7484C71.5108 53.0737 71.62 52.2811 71.6637 51.4937C71.7112 50.6338 71.7259 49.7704 71.7406 48.9078C71.7469 48.5376 71.7532 48.1676 71.762 47.7981C71.8759 43.0806 71.9762 38.361 71.9949 33.6419C72.0329 24.1358 71.8545 14.6208 71.5571 5.11978C71.5531 4.99035 71.5502 4.8574 71.5472 4.72217C71.513 3.15341 71.4721 1.27815 69.5546 1.0256C68.8605 0.934152 68.1366 0.97044 67.4242 1.00616C67.146 1.0201 66.8696 1.03396 66.5973 1.04009L63.0179 1.12112C61.5652 1.1541 60.1124 1.18451 58.6598 1.21491M29.5397 54.5324C26.6798 54.5683 23.8198 54.6051 20.9599 54.6485C16.5838 54.7151 12.2078 54.7686 7.83151 54.8192C7.55963 54.8223 7.28655 54.8296 7.01301 54.837C6.33846 54.8551 5.66109 54.8733 4.99177 54.8286C4.58989 54.8016 4.14065 54.7559 3.78387 54.5508C3.21276 54.2223 3.19003 53.6577 3.16641 53.0712C3.16529 53.0434 3.16416 53.0155 3.16298 52.9875C3.10067 51.5182 3.08521 50.0447 3.06976 48.5722C3.06239 47.8693 3.05502 47.1666 3.04255 46.4647L2.57597 20.1629C2.5546 18.9541 2.51573 17.7378 2.47677 16.5183C2.37506 13.3351 2.27266 10.1301 2.47881 6.9794C2.54433 5.97927 2.73435 5.45309 3.79306 5.31307C4.55883 5.21172 5.33363 5.15221 6.10675 5.09283C6.45462 5.06611 6.80215 5.03942 7.14837 5.00895C9.38579 4.81199 11.624 4.62727 13.8633 4.45419C18.8421 4.06945 24.9771 3.69267 29.9593 3.43039C39.6464 2.93747 44.7222 2.65233 54.4248 2.50293C56.1196 2.50757 57.8145 2.50971 59.5094 2.51186C62.4334 2.51555 65.3575 2.51925 68.2818 2.53579C68.3672 2.53628 68.4506 2.53366 68.5316 2.53112C68.9204 2.5189 69.255 2.50839 69.5046 2.85215C69.7267 3.1583 69.711 3.65752 69.6973 4.09394C69.6929 4.23391 69.6887 4.36742 69.6926 4.48603C69.7295 5.6125 69.7642 6.73876 69.7963 7.86543C69.8587 10.0481 69.912 12.2311 69.9565 14.414C70.0467 18.8509 70.0829 23.2873 70.0802 27.7252C70.0773 32.1625 70.0618 36.6002 70.0167 41.0371C69.9945 43.2204 69.9653 45.4037 69.9228 47.5867C69.9022 48.6429 69.8794 49.6992 69.853 50.7554C69.8511 50.8345 69.8497 50.9145 69.8484 50.9948C69.8333 51.9127 69.8173 52.8844 68.8166 53.259C68.1766 53.4985 67.4592 53.5154 66.7688 53.5316C66.6109 53.5354 66.4544 53.539 66.3006 53.5454C65.172 53.5917 64.0435 53.636 62.915 53.6786C60.658 53.7639 58.4006 53.8423 56.1432 53.9144C51.7694 54.0542 52.0137 54.1724 47.6385 54.2616C42.1698 54.373 35.0087 54.4638 29.5397 54.5324Z" stroke="#F48120" stroke-width="0.3"/>
<path d="M54.066 18.4056C50.2574 12.1584 43.5989 10.2336 36.6893 11.5438C28.9396 8.35773 21.5415 10.7855 17.4008 18.1118C15.4803 21.5098 14.604 25.4505 14.3543 29.3139C13.948 35.5981 14.7028 42.2421 15.2353 48.5062C15.2531 48.7154 15.3261 48.8875 15.4293 49.0275C15.4535 49.3927 15.6663 49.7391 16.1232 49.8673C21.6075 51.4086 27.1232 51.8497 32.6842 50.4571C32.8133 50.4415 32.9425 50.4036 33.0647 50.3431C33.1848 50.2836 33.307 50.2292 33.4285 50.1733C33.412 50.4887 33.3862 55.2731 33.3418 55.5879L35.2428 56.1119C35.4556 54.6117 35.436 48.6878 35.2124 47.2115C37.08 47.4824 38.9881 47.5441 40.7821 47.5199C41.0155 47.5167 41.2049 47.4468 41.3523 47.3364C41.6057 47.3245 41.8506 47.2998 42.0923 47.2691C42.307 48.6795 44.4629 54.3913 45.4358 55.4791C46.2852 56.4286 47.6746 55.0296 46.8303 54.0846C46.1032 53.2723 44.1215 47.8664 44.0125 46.7928C45.6779 46.1516 46.9854 44.9915 47.989 43.5088C51.8523 44.1138 55.5999 43.0571 58.4015 40.249C58.6999 39.9502 58.7425 39.5987 58.6377 39.2934C58.6683 39.1974 58.6898 39.0948 58.6903 38.9772C58.6999 31.9681 57.7806 24.4981 54.066 18.4056ZM41.0288 45.3847C40.8087 45.3874 40.6302 45.4515 40.4864 45.5509C35.7721 45.5943 30.3436 45.1115 27.4319 40.9104C24.938 37.312 24.7261 36.0206 24.4984 32.3037C32.6192 32.0602 41.2136 30.1014 48.1024 25.8527C48.1084 25.9054 48.1139 25.9585 48.1286 26.0139C49.6599 31.7627 49.3939 45.2772 41.0288 45.3847ZM49.0173 41.6723C51.1106 37.1005 51.1664 30.7485 50.2547 26.4503C50.7755 26.773 51.3081 27.076 51.867 27.3423C53.0084 27.886 54.0093 26.1867 52.8619 25.6399C51.678 25.0761 50.5646 24.3805 49.529 23.5759C49.4269 23.4968 49.3167 23.4322 49.2032 23.3847C48.9415 23.2158 48.6019 23.1869 48.2527 23.4217C41.2453 28.1436 32.1691 30.2039 23.699 30.3508C23.4849 30.2913 23.2547 30.2931 23.0511 30.36C22.5522 30.3627 22.0548 30.3619 21.5607 30.3523C20.2885 30.3261 20.2913 32.2976 21.5607 32.3237C21.8822 32.3301 22.2069 32.3274 22.5303 32.3288C22.8074 36.6191 23.1419 38.1705 25.9598 42.2375C27.7097 44.7619 30.3147 46.1101 33.1637 46.8138C33.1672 46.8619 33.1681 46.9099 33.178 46.9607C33.2519 47.3324 33.3091 47.7062 33.3537 48.0806C33.0059 48.2234 32.6583 48.3671 32.3181 48.5268C32.2868 48.5318 32.2566 48.5327 32.2239 48.5405C27.15 49.8237 22.1744 49.4457 17.1779 48.108C16.7514 42.9468 16.5617 37.7723 16.3438 32.5982C16.1825 28.7701 16.6525 25.0875 17.9948 21.4859C19.2544 18.1044 21.5108 15.0474 24.6713 13.2507C28.3024 11.1864 32.5905 11.9548 36.2492 13.4773C36.5076 13.5844 36.7307 13.5711 36.914 13.4874C36.9495 13.4837 36.9833 13.4841 37.0197 13.4773C43.7194 12.1493 49.4478 14.302 52.8924 20.2938C56.0698 25.8207 56.7274 32.7288 56.7187 38.9773C56.7187 39.0258 56.727 39.0697 56.7324 39.115C54.6088 41.093 51.8729 41.9656 49.0173 41.6723Z" fill="#F48120" stroke="#F48120" stroke-width="0.3"/>
<path d="M31.6644 34.4594C31.6 33.9262 31.2641 33.4736 30.6784 33.4736C30.1897 33.4736 29.6286 33.9243 29.6925 34.4594C29.7865 35.2456 29.9469 36.0085 30.1387 36.775C30.4465 38.008 32.3477 37.4843 32.0397 36.251C31.892 35.6604 31.7365 35.0648 31.6644 34.4594Z" fill="#F48120" stroke="#F48120" stroke-width="0.3"/>
<path d="M43.7044 34.6902C43.5611 34.0989 43.4782 33.5021 43.411 32.8985C43.3511 32.3649 43.0078 31.9132 42.4248 31.9132C41.9328 31.9132 41.3791 32.364 41.439 32.8985C41.526 33.6756 41.6188 34.4536 41.8023 35.2141C42.1012 36.4497 44.0022 35.9257 43.7044 34.6902Z" fill="#F48120" stroke="#F48120" stroke-width="0.3"/>
<path d="M35.6024 38.2675C36.6894 38.975 38.0336 39.0752 39.2372 38.6134C39.7384 38.4212 40.0783 37.9573 39.9256 37.4007C39.7942 36.9207 39.2152 36.5198 38.7132 36.7124C37.9627 36.9998 37.2841 37.0121 36.5973 36.565C35.5285 35.8695 34.5417 37.5774 35.6024 38.2675Z" fill="#F48120" stroke="#F48120" stroke-width="0.3"/>
<path d="M42.5505 39.7589C40.3685 41.6307 37.4186 41.4824 34.9553 40.2614C33.8204 39.6994 32.8207 41.3996 33.9604 41.9643C37.2715 43.6049 41.0508 43.6351 43.9443 41.1529C44.9109 40.3242 43.5097 38.9361 42.5505 39.7589Z" fill="#F48120" stroke="#F48120" stroke-width="0.3"/>
</svg>
