<svg width="77" height="62" viewBox="0 0 77 62" fill="none" xmlns="http://www.w3.org/2000/svg">
<path fill-rule="evenodd" clip-rule="evenodd" d="M54.3168 2.15372C53.8501 1.50297 53.0932 1.20216 52.3122 1.33968C51.8943 1.25067 51.4708 1.29037 51.0717 1.46118C43.8099 4.55889 36.6008 8.06898 29.6291 11.4646L29.5913 11.483C22.1636 15.1001 9.52679 20.2044 1.77646 23.4452L1 27.6819C9.21656 24.2908 23.2999 18.8589 31.1513 15.0467L31.2508 14.9984C36.3796 12.5068 41.6732 9.93625 46.9598 7.53365C44.6697 12.173 43.4812 18.1432 43.3333 25.7302C43.2179 31.6116 44.047 39.6067 48.5099 45.0615C36.084 43.9031 18.6232 39.4004 2.15573 33.871L1.49505 37.7648C2.22873 38.0094 7.44073 39.745 8.17569 39.9848C6.23126 45.8549 6.77748 51.9372 7.57248 57.0693C7.56239 57.9618 8.08828 58.6756 8.94347 58.93C11.2676 59.6227 13.1719 60.1137 14.9361 60.4753C15.0798 60.5054 15.2242 60.5209 15.3649 60.5209C15.8161 60.5209 16.2381 60.3672 16.5875 60.0762C17.2444 59.7325 17.8695 58.9958 17.7081 57.9237C17.3334 55.432 17.1768 53.1721 17.2309 51.0243C17.3039 48.128 18.2917 44.0567 18.6046 43.1672C19.0148 43.281 19.4261 43.3924 19.8375 43.5031L23.9298 44.5901C34.5006 47.2858 44.1009 48.8367 53.269 49.3279L53.3869 49.3319C53.9257 49.3319 54.382 49.1319 54.7135 48.753C55.1558 48.5287 55.4875 48.1605 55.6744 47.6783C60.7413 34.6372 63.4255 14.8878 54.3168 2.15372ZM11.2699 55.5353C11.993 55.7408 12.7531 55.9418 13.5713 56.1457C12.9955 50.656 13.4059 46.158 14.8533 42.0765C13.8681 41.7831 12.884 41.4831 11.9016 41.1767C10.2636 46.2687 10.6814 51.483 11.2699 55.5353ZM47.2596 24.7444C47.2076 27.3599 47.4922 32.7546 48.2424 35.7353C49.1448 39.3204 50.6975 42.0949 52.8648 43.9955C54.9645 37.827 60.0347 19.6221 52.2981 6.24814C50.1739 9.04712 47.9044 15.2519 47.41 21.611C47.331 22.626 47.28 23.6777 47.2596 24.7444Z" fill="#F48120"/>
<path d="M29.6291 11.4646C36.6008 8.06898 43.8099 4.55889 51.0717 1.46118C51.4708 1.29037 51.8943 1.25067 52.3122 1.33968C53.0932 1.20216 53.8501 1.50297 54.3168 2.15372C63.4255 14.8878 60.7413 34.6372 55.6743 47.6783C55.4875 48.1605 55.1558 48.5287 54.7135 48.753C54.382 49.1319 53.9257 49.3319 53.3869 49.3319L53.269 49.3279C44.1009 48.8367 34.5006 47.2858 23.9298 44.5901L19.8375 43.5031C19.4261 43.3924 19.0148 43.281 18.6046 43.1672C18.2917 44.0567 17.3039 48.128 17.2309 51.0243C17.1768 53.1721 17.3334 55.432 17.7081 57.9237C17.8695 58.9958 17.2444 59.7325 16.5875 60.0762C16.2381 60.3672 15.8161 60.5209 15.3649 60.5209C15.2242 60.5209 15.0798 60.5054 14.9361 60.4753C13.1719 60.1137 11.2676 59.6227 8.94347 58.93C8.08828 58.6756 7.56239 57.9618 7.57248 57.0693C6.77748 51.9372 6.23126 45.8549 8.17569 39.9848C7.44073 39.745 2.22873 38.0094 1.49505 37.7648L2.15573 33.871C18.6232 39.4004 36.084 43.9031 48.5099 45.0615C44.047 39.6067 43.2179 31.6116 43.3333 25.7302C43.4812 18.1432 44.6697 12.173 46.9598 7.53365C41.6732 9.93625 36.3796 12.5068 31.2508 14.9984M29.6291 11.4646L29.5913 11.483M29.6291 11.4646C29.6165 11.4707 29.6039 11.4769 29.5913 11.483M31.2508 14.9984L31.1513 15.0467M31.2508 14.9984C31.2177 15.0145 31.1845 15.0306 31.1513 15.0467M29.5913 11.483C22.1636 15.1001 9.52679 20.2044 1.77646 23.4452L1 27.6819C9.21656 24.2909 23.2999 18.8589 31.1513 15.0467M13.5713 56.1457C12.7531 55.9418 11.993 55.7408 11.2699 55.5353C10.6814 51.483 10.2636 46.2687 11.9016 41.1767C12.884 41.4831 13.8681 41.7831 14.8533 42.0765C13.4059 46.158 12.9955 50.656 13.5713 56.1457ZM48.2424 35.7353C47.4922 32.7546 47.2076 27.3599 47.2596 24.7444C47.28 23.6777 47.331 22.626 47.41 21.611C47.9045 15.2519 50.1739 9.04712 52.2981 6.24814C60.0347 19.6221 54.9645 37.827 52.8648 43.9955C50.6975 42.0949 49.1448 39.3204 48.2424 35.7353Z" stroke="#FAFCFF"/>
<path d="M2.26465 22.1872C2.26465 26.7659 1.51845 32.8578 2.26465 38.6035" stroke="#F48120" stroke-width="1.5" stroke-linecap="round"/>
<path d="M64.5127 7.4507C63.8519 7.4507 63.1689 7.84003 62.7714 8.44197C62.3837 9.03061 62.3211 9.7406 62.6 10.3906C66.8101 20.2001 66.0915 30.6169 60.5765 39.7213C60.2116 40.3253 60.1871 41.0017 60.5131 41.5789C60.8699 42.2121 61.6039 42.6381 62.3389 42.6381C63.0095 42.6381 63.5786 42.3065 63.9434 41.7041C70.1032 31.5344 70.842 19.7458 66.0206 8.50952C65.7321 7.83683 65.1819 7.4507 64.5127 7.4507Z" fill="#F48120" stroke="#FAFBFF"/>
<path d="M72.5454 13.6988C71.8828 13.6988 71.2423 14.0068 70.8747 14.5035C70.5358 14.9608 70.4481 15.5384 70.6277 16.131C72.3893 21.9232 72.1023 27.6359 69.7741 33.112C69.497 33.7623 69.562 34.4729 69.9505 35.0616C70.3488 35.6648 71.0317 36.0524 71.691 36.0524C72.3602 36.0524 72.9086 35.6654 73.1965 34.9899C76.0012 28.3909 76.4035 21.6893 74.3915 15.0704C74.1339 14.224 73.4257 13.6988 72.5454 13.6988Z" fill="#F48120" stroke="#FAFBFF"/>
</svg>
