<svg width="65" height="71" viewBox="0 0 65 71" fill="none" xmlns="http://www.w3.org/2000/svg">
<path fill-rule="evenodd" clip-rule="evenodd" d="M63.5982 32.9776C63.6009 33.075 63.6034 33.1707 63.607 33.2639C63.8709 40.104 64.0292 46.9544 63.9955 53.7982C63.9788 57.1957 63.8899 60.5936 63.7889 63.9899C63.781 64.2559 63.7754 64.5223 63.7698 64.7889C63.7568 65.4098 63.7438 66.0315 63.7016 66.6505C63.6628 67.2174 63.5659 67.788 63.1769 68.2738C62.3469 69.3101 60.6846 69.3756 59.318 69.4188C50.8702 69.6863 46.5151 69.8419 38.0625 69.968C29.608 70.0942 21.1544 70.1549 12.6986 70.1868C10.632 70.1946 8.56515 70.2016 6.49834 70.2085C6.31143 70.2091 6.11642 70.2129 5.91628 70.2168C4.63629 70.2418 3.14648 70.2709 2.22634 69.496C1.36108 68.7672 1.43583 67.4905 1.4988 66.415C1.51574 66.1256 1.53183 65.8508 1.52853 65.6051L1.45934 60.4546C1.4305 58.3047 1.40713 56.1546 1.38376 54.0045C1.33303 49.3373 1.2823 44.6698 1.17555 40.0038C1.16753 39.6537 1.16049 39.3034 1.15345 38.9531C1.12599 37.5861 1.09851 36.2182 1.01273 34.8531C0.947712 33.8209 1.08626 32.6662 2.51829 32.325C3.16346 32.1712 3.87303 32.1414 4.56421 32.1124C4.82665 32.1013 5.08645 32.0904 5.33906 32.0729C6.33135 32.0039 7.32419 31.9369 8.31703 31.8723C10.4269 31.7347 12.5378 31.6069 14.6495 31.4886C23.035 31.0191 31.4325 30.7164 39.8358 30.5677C45.1368 30.4739 46.3608 30.3931 51.6743 30.4609L52.1629 30.4526C53.4519 30.4307 54.7409 30.4088 56.03 30.385L59.2061 30.3267C59.4477 30.3223 59.693 30.3123 59.9398 30.3023C60.5719 30.2766 61.2142 30.2504 61.8302 30.3163C63.5315 30.4981 63.5679 31.8482 63.5982 32.9776ZM18.7109 68.9219C21.2486 68.8906 23.7863 68.8641 26.324 68.8382C31.1768 68.7889 37.531 68.7235 42.3834 68.6432C46.2657 68.579 46.0489 68.494 49.9299 68.3933C51.9329 68.3414 53.936 68.285 55.9387 68.2236C56.94 68.1929 57.9414 68.161 58.9427 68.1276C59.0793 68.1231 59.2181 68.1204 59.3583 68.1178C59.9709 68.1061 60.6074 68.0939 61.1753 67.9215C62.0632 67.6518 62.0774 66.9522 62.0909 66.2914C62.092 66.2335 62.0932 66.176 62.0949 66.119C62.1183 65.3586 62.1386 64.5981 62.1569 63.8377C62.1946 62.2661 62.2205 60.6942 62.2402 59.1223C62.2802 55.928 62.294 52.7331 62.2965 49.5385C62.2989 46.3435 62.2668 43.1495 62.1868 39.9552C62.1473 38.3836 62.1 36.812 62.0446 35.2406C62.0162 34.4294 61.9854 33.6186 61.9526 32.8076C61.9491 32.7222 61.9528 32.6261 61.9567 32.5253C61.9689 32.2111 61.9829 31.8517 61.7858 31.6313C61.5643 31.3838 61.2674 31.3914 60.9224 31.4002C60.8505 31.402 60.7766 31.4039 60.7008 31.4035C58.106 31.3916 55.5113 31.389 52.9168 31.3863C51.4129 31.3848 49.909 31.3832 48.4051 31.3799C39.7957 31.4874 35.2919 31.6927 26.6963 32.0476C22.2754 32.2364 16.8317 32.5077 12.4139 32.7847C10.4269 32.9093 8.44091 33.0423 6.45559 33.1841C6.14839 33.206 5.84002 33.2252 5.53134 33.2445C4.84534 33.2872 4.15783 33.33 3.47834 33.403C2.53893 33.5038 2.37032 33.8826 2.31219 34.6027C2.12926 36.871 2.22013 39.1785 2.31037 41.4702C2.34495 42.3481 2.37943 43.2238 2.39839 44.0941L2.81241 63.0299C2.82347 63.5353 2.83001 64.0412 2.83655 64.5472C2.85026 65.6074 2.86397 66.6682 2.91926 67.726C2.92031 67.7461 2.92131 67.7662 2.92231 67.7863C2.94326 68.2085 2.96344 68.615 3.4702 68.8515C3.78677 68.9992 4.18539 69.0321 4.542 69.0515C5.1359 69.0837 5.73695 69.0706 6.33549 69.0575C6.57821 69.0522 6.82051 69.047 7.06176 69.0447C10.9449 69.0083 14.8279 68.9698 18.7109 68.9219Z" fill="#F48120"/>
<path d="M51.6743 30.4609C46.3608 30.3931 45.1368 30.4739 39.8358 30.5677C31.4325 30.7164 23.035 31.0191 14.6495 31.4886C12.5378 31.6069 10.4269 31.7347 8.31703 31.8723C7.32419 31.9369 6.33135 32.0039 5.33906 32.0729C5.08645 32.0904 4.82665 32.1013 4.56421 32.1124C3.87303 32.1414 3.16346 32.1712 2.51829 32.325C1.08626 32.6662 0.947712 33.8209 1.01273 34.8531C1.09851 36.2182 1.12599 37.5861 1.15345 38.9531C1.16049 39.3034 1.16753 39.6537 1.17555 40.0038C1.2823 44.6698 1.33303 49.3373 1.38376 54.0045C1.40713 56.1546 1.4305 58.3047 1.45934 60.4546M51.6743 30.4609L52.1629 30.4526M51.6743 30.4609C51.8372 30.4581 52.0001 30.4553 52.1629 30.4526M1.45934 60.4546C1.48234 62.1715 1.50535 63.8882 1.52853 65.6051M1.45934 60.4546L1.52853 65.6051M1.52853 65.6051C1.53183 65.8508 1.51574 66.1256 1.4988 66.415C1.43583 67.4905 1.36108 68.7672 2.22634 69.496C3.14648 70.2709 4.63629 70.2418 5.91628 70.2168C6.11642 70.2129 6.31143 70.2091 6.49834 70.2085C8.56515 70.2016 10.632 70.1946 12.6986 70.1868C21.1544 70.1549 29.608 70.0942 38.0625 69.968C46.5151 69.8419 50.8702 69.6863 59.318 69.4188C60.6846 69.3756 62.3469 69.3101 63.1769 68.2738C63.5659 67.788 63.6628 67.2174 63.7016 66.6505C63.7438 66.0315 63.7568 65.4098 63.7698 64.7889C63.7754 64.5223 63.781 64.2559 63.7889 63.9899C63.8899 60.5936 63.9788 57.1957 63.9955 53.7982C64.0292 46.9544 63.8709 40.104 63.607 33.2639C63.6034 33.1707 63.6009 33.075 63.5982 32.9776C63.5679 31.8482 63.5315 30.4981 61.8302 30.3163C61.2142 30.2504 60.5719 30.2766 59.9398 30.3023C59.693 30.3123 59.4477 30.3223 59.2061 30.3267L56.03 30.385C54.7409 30.4088 53.4519 30.4307 52.1629 30.4526M26.324 68.8382C23.7863 68.8641 21.2486 68.8906 18.7109 68.9219C14.8279 68.9698 10.9449 69.0083 7.06176 69.0447C6.82051 69.047 6.57821 69.0522 6.33549 69.0575C5.73695 69.0706 5.1359 69.0837 4.542 69.0515C4.18539 69.0321 3.78677 68.9992 3.4702 68.8515C2.96344 68.615 2.94326 68.2085 2.92231 67.7863C2.92131 67.7662 2.92031 67.7461 2.91926 67.726C2.86397 66.6682 2.85026 65.6074 2.83655 64.5472C2.83001 64.0412 2.82347 63.5353 2.81241 63.0299L2.39839 44.0941C2.37943 43.2238 2.34495 42.3481 2.31037 41.4702C2.22013 39.1785 2.12926 36.871 2.31219 34.6027C2.37032 33.8826 2.53893 33.5038 3.47834 33.403C4.15783 33.33 4.84534 33.2872 5.53134 33.2445C5.84002 33.2252 6.14839 33.206 6.45559 33.1841C8.44091 33.0423 10.4269 32.9093 12.4139 32.7847C16.8317 32.5077 22.2754 32.2364 26.6963 32.0476C35.2919 31.6927 39.7957 31.4874 48.4051 31.3799C49.909 31.3832 51.4129 31.3848 52.9168 31.3863C55.5113 31.389 58.106 31.3916 60.7008 31.4035C60.7766 31.4039 60.8505 31.402 60.9224 31.4002C61.2674 31.3914 61.5643 31.3838 61.7858 31.6313C61.9829 31.8517 61.9689 32.2111 61.9567 32.5253C61.9528 32.6261 61.9491 32.7222 61.9526 32.8076C61.9854 33.6186 62.0162 34.4294 62.0446 35.2406C62.1 36.812 62.1473 38.3836 62.1868 39.9552C62.2668 43.1495 62.2989 46.3435 62.2965 49.5385C62.294 52.7331 62.2802 55.928 62.2402 59.1223C62.2205 60.6942 62.1946 62.2661 62.1569 63.8377C62.1386 64.5981 62.1183 65.3586 62.0949 66.119C62.0932 66.176 62.092 66.2335 62.0909 66.2914C62.0774 66.9522 62.0632 67.6518 61.1753 67.9215C60.6074 68.0939 59.9709 68.1061 59.3583 68.1178C59.2181 68.1204 59.0793 68.1231 58.9427 68.1276C57.9414 68.161 56.94 68.1929 55.9387 68.2236C53.936 68.285 51.9329 68.3414 49.9299 68.3933C46.0489 68.494 46.2657 68.579 42.3834 68.6433C37.531 68.7235 31.1768 68.7889 26.324 68.8382Z" stroke="#F48120" stroke-width="0.5"/>
<path d="M28.4184 44.2764C28.2239 44.3322 28.0322 44.4007 27.8483 44.4804C26.2398 45.1779 25.3818 46.6066 24.9274 47.8319C23.4002 46.4952 21.6846 45.9553 20.0534 46.3083C19.7998 46.3633 19.5484 46.4442 19.3055 46.5495C17.4993 47.3327 16.1236 49.5198 16.0346 51.7502C15.945 54.0005 17.118 55.905 19.5218 57.4101C21.9419 58.9257 24.6083 60.0009 27.1871 61.041L27.7188 61.2555C27.9785 61.4699 28.3212 61.5288 28.6095 61.4041C28.7291 61.3522 28.8344 61.2713 28.9223 61.1635L29.4255 60.5503C31.1726 58.4221 32.9792 56.2219 34.3531 53.7518C35.7175 51.2992 35.8073 49.0773 34.6199 47.1479C33.4242 45.2044 30.7775 43.5989 28.4184 44.2764ZM33.6621 48.9325C34.3523 50.724 32.9898 52.8146 32.0885 54.1983C30.8597 56.0838 29.4256 57.8473 28.0294 59.5525C25.9287 58.7026 23.7619 57.8208 21.7259 56.7325C20.2547 55.946 18.0311 54.7575 17.7532 52.8621C17.5022 51.1501 18.3195 48.8465 19.9355 48.1458C20.0393 48.1008 20.1467 48.0627 20.2547 48.0321C22.2334 47.4739 23.8809 49.0423 24.5422 49.8049C24.6072 49.9879 24.7375 50.1381 24.9165 50.2335C25.154 50.3602 25.4426 50.3723 25.6883 50.2658C25.9436 50.1551 26.1195 49.9272 26.1712 49.6402C26.3216 48.8074 26.8523 46.7911 28.5346 46.0616C28.712 45.9847 28.8993 45.9241 29.0913 45.8818C30.8817 45.4851 32.9811 47.1654 33.6621 48.9325Z" fill="#F48120"/>
<path d="M48.849 44.4147C48.7589 44.3457 48.664 44.2823 48.5667 44.2261C47.7156 43.7347 46.7858 43.8254 46.0823 44.0299C46.1743 42.896 45.8445 41.9432 45.1409 41.3266C45.0315 41.2308 44.9111 41.1446 44.7826 41.0704C43.8268 40.5186 42.3827 40.6294 41.3486 41.3341C40.3055 42.0452 39.8396 43.2093 39.9646 44.7942C40.0902 46.39 40.4964 47.9496 40.8892 49.458L40.9701 49.7691C40.9602 49.9576 41.0481 50.1316 41.2006 50.2197C41.2639 50.2563 41.3355 50.2767 41.4133 50.2803L41.8575 50.3021C43.3991 50.3782 44.9931 50.457 46.564 50.2508C48.124 50.0462 49.1544 49.3448 49.6267 48.1659C50.1025 46.9785 49.9417 45.2507 48.849 44.4147ZM48.5033 48.3305C47.9271 49.2395 46.5308 49.324 45.6068 49.3802C44.3476 49.4565 43.0746 49.3996 41.8406 49.3403C41.5219 48.1106 41.1954 46.8405 41.0056 45.5604C40.8685 44.6353 40.6612 43.2372 41.4219 42.4792C42.1089 41.7946 43.419 41.3934 44.2741 41.887C44.3291 41.9188 44.3821 41.9544 44.432 41.9928C45.344 42.6974 45.1879 43.9629 45.0653 44.5153C45.0046 44.6057 44.9805 44.7145 44.9973 44.827C45.0196 44.9762 45.1105 45.1102 45.2405 45.1853C45.3755 45.2633 45.5369 45.2664 45.6834 45.1938C46.1086 44.9834 47.1937 44.5492 48.0839 45.0631C48.1778 45.1173 48.2676 45.1814 48.3507 45.2537C49.1272 45.9274 49.0716 47.4338 48.5033 48.3305Z" fill="#F48120" stroke="#F48120" stroke-width="0.3"/>
<path d="M62.549 31.8114L57.6166 21.4087C57.5687 21.3024 57.4909 21.2123 57.3927 21.1496C57.2944 21.0868 57.18 21.054 57.0634 21.0553H39.3466C39.2659 21.0553 39.1859 21.0712 39.1114 21.1021C39.0368 21.133 38.969 21.1783 38.912 21.2354C38.8549 21.2924 38.8096 21.3602 38.7787 21.4348C38.7478 21.5093 38.7319 21.5893 38.7319 21.67C38.7319 21.7507 38.7478 21.8306 38.7787 21.9052C38.8096 21.9798 38.8549 22.0475 38.912 22.1046C38.969 22.1617 39.0368 22.2069 39.1114 22.2378C39.1859 22.2687 39.2659 22.2846 39.3466 22.2846H56.6793L61.4427 32.2263L62.549 31.8114Z" fill="#F48120" stroke="#F48120" stroke-width="0.4"/>
<path d="M2.62288 32.5797L7.01354 22.2846H22.8096C22.8903 22.2846 22.9703 22.2687 23.0448 22.2378C23.1194 22.2069 23.1872 22.1617 23.2442 22.1046C23.3013 22.0475 23.3466 21.9798 23.3775 21.9052C23.4084 21.8306 23.4243 21.7507 23.4243 21.67C23.4243 21.5893 23.4084 21.5093 23.3775 21.4348C23.3466 21.3602 23.3013 21.2924 23.2442 21.2354C23.1872 21.1783 23.1194 21.133 23.0448 21.1021C22.9703 21.0712 22.8903 21.0553 22.8096 21.0553L6.55256 21.0553C6.43638 21.0559 6.32275 21.0895 6.22484 21.152C6.12694 21.2146 6.04877 21.3036 5.99939 21.4087L1.26953 32.5797H2.62288Z" fill="#F48120" stroke="#F48120" stroke-width="0.4"/>
<path d="M24.9023 25.6651C28.3309 25.6651 32.8926 26.4334 37.195 25.6651" stroke="#F48120" stroke-linecap="round"/>
<path d="M35.199 2.55325C34.9759 2.56281 34.7526 2.5867 34.5347 2.62472C32.6289 2.95727 31.34 4.27181 30.5366 5.4723C29.2425 3.63705 27.5409 2.61019 25.6996 2.5662C25.4133 2.55941 25.1226 2.5812 24.8349 2.6314C22.6949 3.00483 20.6551 5.001 19.9845 7.37814C19.3083 9.77652 20.076 12.1309 22.2673 14.3752C24.4733 16.6351 27.0572 18.4851 29.5561 20.2745L30.0713 20.6436C30.2947 20.9418 30.6472 21.0942 30.9887 21.0349C31.1304 21.0102 31.2643 20.9504 31.3864 20.8573L32.0844 20.3282C34.5077 18.4919 37.0133 16.5936 39.1242 14.2925C41.2205 12.0077 41.8897 9.63992 41.113 7.25501C40.3309 4.85282 37.905 2.4372 35.199 2.55325ZM39.6252 8.92657C39.904 11.0339 37.903 12.9297 36.5793 14.1845C34.7747 15.8942 32.7812 17.4194 30.8436 18.8916C28.8087 17.4311 26.711 15.919 24.807 14.2188C23.4311 12.99 21.3516 11.1333 21.542 9.02126C21.714 7.11368 23.1847 4.84707 25.0993 4.51297C25.2223 4.49151 25.3474 4.47837 25.4712 4.47351C27.7383 4.38699 29.1017 6.50295 29.6146 7.49547C29.6372 7.70928 29.7383 7.90484 29.9058 8.05403C30.128 8.25205 30.4345 8.34012 30.7257 8.28931C31.028 8.23655 31.2755 8.037 31.4051 7.74161C31.7811 6.8844 32.8703 4.85249 34.8635 4.50468C35.0737 4.468 35.2902 4.45143 35.5071 4.45585C37.5305 4.49411 39.35 6.84796 39.6252 8.92657Z" fill="#F48120"/>
</svg>
