<svg width="45" height="45" viewBox="0 0 45 45" fill="none" xmlns="http://www.w3.org/2000/svg">
<g clip-path="url(#clip0_446_4346)">
<path d="M22.5 -0.0621185C37 -1.1362 46.5 9.43791 45 22.4379C43.5 35.4378 34.5 46.4379 22.5 44.9379C10.5 43.4379 0 34.8643 0 22.4379C0 10.0115 8 1.01197 22.5 -0.0621185Z" fill="#0071BC"/>
<path d="M28.7011 8.60618C28.8686 8.64707 29.0099 8.78133 28.9995 9.03827C28.9419 10.3228 28.8791 11.6131 28.5913 12.8626C28.6279 13.2129 28.4343 13.6216 28.0732 13.5691C25.4984 13.1896 24.5617 15.7762 24.2267 18.6896C25.4513 18.7714 26.6654 18.8765 27.8481 18.9932C28.0679 19.0165 28.1883 19.1859 28.2144 19.3727C28.2772 19.4194 28.3347 19.4895 28.3609 19.5946C28.5702 20.3537 28.5754 21.206 28.5912 22.0001C28.6017 22.6248 28.6697 23.3313 28.2928 23.8276C28.34 24.1195 28.1986 24.4581 27.848 24.4699C26.5921 24.4873 25.3204 24.5107 24.0435 24.5225C24.0435 24.6626 24.0435 24.8027 24.0382 24.9311C23.9493 28.7438 24.0958 32.5447 24.0591 36.3515C24.0539 36.6493 23.8393 36.7601 23.6457 36.7194C23.6196 36.7368 23.5934 36.7603 23.562 36.7718C22.9183 36.9996 22.1909 36.9646 21.5211 36.9879C20.8565 37.0053 20.2024 37.0229 19.543 36.8945C19.3807 36.9529 19.1818 36.8945 19.1453 36.6552C18.554 32.8834 18.6534 28.9015 18.6691 25.083C18.6691 24.8436 18.6691 24.6042 18.6691 24.3648C17.6277 24.2888 16.5916 24.172 15.5711 24.0086C15.4141 23.9794 15.3355 23.8626 15.3251 23.7283C14.9484 23.4481 15.0373 22.7125 15.032 22.2512C15.0163 21.2586 14.917 20.1084 15.1733 19.1509C15.1994 19.0517 15.2622 18.9874 15.3408 18.9407C15.3878 18.8824 15.4559 18.8415 15.5501 18.8297C16.5914 18.6896 17.6642 18.6078 18.7475 18.5669C18.7998 17.4693 18.8889 16.3716 19.0406 15.2973C19.7575 10.171 23.6981 7.05896 28.3504 8.25587C28.5441 8.30835 28.654 8.44848 28.7011 8.60618Z" fill="white"/>
</g>
<defs>
<clipPath id="clip0_446_4346">
<rect width="45" height="45" fill="white"/>
</clipPath>
</defs>
</svg>
