<svg width="61" height="56" viewBox="0 0 61 56" fill="none" xmlns="http://www.w3.org/2000/svg">
<path d="M29.7727 54.0892L5.7925 30.2431C3.29321 27.7161 1.6352 24.4865 1.04298 20.9914C0.450767 17.4964 0.95296 13.9048 2.48155 10.703C4.16426 7.11882 7.06158 4.23769 10.6659 2.5644C12.9935 1.47438 15.5335 0.906088 18.1062 0.899683C20.3615 0.889963 22.5965 1.32208 24.6838 2.17136C26.771 3.02065 28.6697 4.27045 30.2713 5.84944C31.8784 4.26293 33.7852 3.00819 35.8818 2.15743C37.9785 1.30668 40.2238 0.876711 42.4883 0.892285C45.0611 0.89869 47.6011 1.46699 49.9285 2.557C53.5329 4.2303 56.4303 7.1114 58.1129 10.6956C59.6401 13.8942 60.1427 17.4819 59.5533 20.9738C58.9638 24.4658 57.3105 27.6934 54.8169 30.2208L54.296 30.7684L30.3307 54.6145L29.7727 54.0892ZM30.3233 44.0565L51.372 22.6001L52.2352 19.5963L51.9896 15.2458L50.3005 11.9904L46.9674 9.50439L42.7709 8.63135L37.3545 10.4366L30.539 16.5998L25.7178 11.7462L20.9559 9.10487L15.1524 9.20105L11.0603 11.576L8.75374 16.1559L8.99928 22.8147L30.3233 44.0565Z" fill="white"/>
<path d="M42.4904 1.63261C44.9659 1.63206 47.4105 2.1779 49.6479 3.23074C53.086 4.83254 55.8486 7.58493 57.4528 11.0068C58.9217 14.0787 59.4027 17.5263 58.8302 20.8798C58.2577 24.2333 56.6597 27.3299 54.2535 29.7477L53.7922 30.2065L30.3404 53.5716L6.85859 30.2361L6.39728 29.7773C3.98436 27.361 2.38012 24.2628 1.80353 20.9061C1.22694 17.5494 1.70611 14.0975 3.17563 11.0216C4.78261 7.59044 7.55394 4.832 11.0029 3.23074C13.2403 2.17766 15.685 1.63181 18.1604 1.63261C20.3332 1.62707 22.4855 2.04842 24.4941 2.87244C26.5025 3.69648 28.3275 4.90696 29.8641 6.43439L30.3254 6.89311L30.7867 6.43439C32.3233 4.90696 34.1483 3.69648 36.1567 2.87244C38.1653 2.04842 40.3177 1.62707 42.4904 1.63261ZM30.5857 15.5718L26.1885 11.1326L21.1589 8.34325L14.9611 8.44684L10.4969 11.029L8.01183 15.9787L8.2797 23.0889L30.3627 45.1001L52.0734 22.9853L52.9886 19.6781L52.7209 15.0465L50.8682 11.5173L47.2669 8.83158L42.7137 7.88453L36.9621 9.77121L30.5561 15.5644L30.5857 15.5718ZM42.4904 0.152862C37.9896 0.13438 33.6466 1.80106 30.3254 4.82146C27.0042 1.80106 22.6612 0.13438 18.1604 0.152862C15.4643 0.154495 12.8017 0.748199 10.363 1.89156C6.60932 3.63682 3.59143 6.63783 1.83636 10.3705C0.298812 13.5953 -0.242629 17.201 0.280492 20.7317C0.803614 24.2624 2.36781 27.5598 4.77529 30.2065L5.8095 31.2646L29.2689 54.5926L30.3104 55.6432L30.3551 55.5988L31.3969 54.5926L54.8561 31.2646L55.9053 30.2212C58.3129 27.5744 59.8769 24.2773 60.4 20.7465C60.9232 17.2158 60.3817 13.6101 58.8442 10.3853C57.0846 6.64208 54.0552 3.63485 50.2879 1.89156C47.849 0.748429 45.1864 0.154738 42.4904 0.152862ZM37.7286 11.0882L42.8177 9.41606L46.6569 10.2151L49.7223 12.5013L51.2701 15.4608L51.5007 19.5227L50.7565 22.238L30.3328 43.0063L9.73055 22.4674L9.4999 16.3191L11.6204 12.1018L15.3406 9.94137L20.7497 9.85259L25.2139 12.346L29.4622 16.6224L30.4667 17.6287L31.5233 16.6742L37.6989 11.0956L37.7286 11.0882Z" fill="#A8A8A7"/>
<path d="M54.0585 12.6854C52.8394 10.0753 50.7308 7.97856 48.1062 6.76637C45.7647 5.65966 43.1365 5.29884 40.5811 5.73319C38.0255 6.16755 35.6673 7.37589 33.8281 9.19315L30.3611 12.641L26.9459 9.23015C25.1055 7.41254 22.7454 6.20462 20.1884 5.77156C17.6313 5.3385 15.0022 5.70144 12.6605 6.81076C10.0358 8.02295 7.92724 10.1197 6.70822 12.7297C5.59529 15.0582 5.23243 17.6716 5.66922 20.2128C6.10602 22.754 7.32117 25.0992 9.14865 26.9279L30.3685 48.0291L48.1212 30.3757L51.5884 26.9279C53.4302 25.0991 54.6567 22.7475 55.099 20.1969C55.5415 17.6463 55.1778 15.022 54.0585 12.6854ZM48.7758 23.9906L42.3475 30.3832L30.4428 42.2212L18.5384 30.3832L12.1099 23.9906C10.8885 22.7661 10.0767 21.1968 9.78512 19.4967C9.49352 17.7966 9.73633 16.0485 10.4805 14.4906C11.2941 12.7527 12.6985 11.3562 14.4462 10.5471C16.0128 9.80714 17.7707 9.56569 19.4804 9.85564C21.1901 10.1456 22.7682 10.9529 23.9996 12.1674L30.4281 18.5599L36.8564 12.1674C38.0878 10.9529 39.6659 10.1456 41.3755 9.85564C43.0852 9.56569 44.8432 9.80714 46.4097 10.5471C48.1575 11.3562 49.562 12.7527 50.3756 14.4906C51.1233 16.0456 51.3712 17.792 51.0849 19.4919C50.7985 21.1919 49.9922 22.7628 48.7758 23.9906Z" fill="#006EB7"/>
<path d="M50.3979 14.4921C49.5842 12.7542 48.1798 11.3576 46.4322 10.5486C44.8655 9.8086 43.1077 9.56713 41.398 9.8571C39.6884 10.1471 38.1101 10.9544 36.8789 12.1689L30.4504 18.5614L24.022 12.1689C22.7906 10.9544 21.2125 10.1471 19.5028 9.8571C17.7932 9.56713 16.0352 9.8086 14.4686 10.5486C12.7209 11.3576 11.3165 12.7542 10.5029 14.4921C9.75874 16.0499 9.51591 17.7981 9.80751 19.4982C10.0991 21.1983 10.9109 22.7676 12.1323 23.9921L18.5608 30.3846L30.4653 42.2225L42.3697 30.3846L48.7983 23.9921C50.0147 22.7642 50.821 21.1933 51.1072 19.4934C51.3934 17.7934 51.1458 16.047 50.3979 14.4921ZM45.8743 21.1509L30.4801 36.4072L15.0861 21.1361C14.4667 20.5089 14.0571 19.7069 13.9133 18.8395C13.7695 17.9721 13.8984 17.0817 14.2826 16.29C14.6977 15.4074 15.4113 14.6977 16.2989 14.2849C17.0971 13.9084 17.9928 13.7858 18.8637 13.9342C19.7345 14.0825 20.5381 14.4943 21.1649 15.1136L30.5025 24.399L39.84 15.1136C40.4668 14.4943 41.2706 14.0825 42.1413 13.9342C43.0121 13.7858 43.9079 13.9084 44.7061 14.2849C45.5936 14.6977 46.3072 15.4074 46.7223 16.29C47.101 17.0861 47.2226 17.9792 47.0708 18.8468C46.919 19.7143 46.501 20.514 45.8743 21.1361V21.1509Z" fill="#E30613"/>
</svg>
