<svg  viewBox="0 0 64 72" fill="none" xmlns="http://www.w3.org/2000/svg">
<path d="M55.566 62.9077V62.8647C55.523 62.8647 55.566 62.8647 55.566 62.9077Z" fill="#679940"/>
<path d="M15.9831 69.6108C15.9406 69.5684 15.8982 69.5259 15.8558 69.5259C15.7285 69.5259 15.6012 69.526 15.5164 69.5684H15.474C15.474 69.526 15.474 69.4835 15.4315 69.4411C15.4315 69.3987 15.3891 69.3563 15.4315 69.3138C15.4315 69.229 15.3891 69.1866 15.3467 69.1441C15.3043 69.1441 15.3043 69.1017 15.2618 68.9744C15.2618 68.932 15.2618 68.8896 15.2194 68.8047C15.177 68.6775 15.1346 68.5078 15.0497 68.3805C14.9649 68.1259 14.8376 67.829 14.7952 67.5744C14.583 66.5986 14.2436 65.6229 13.9467 64.6471C13.8194 64.2653 13.6921 63.8834 13.6073 63.544C13.6073 63.4168 13.5648 63.3319 13.5648 63.2471C13.5224 63.1622 13.5224 63.0774 13.5224 62.9925C13.5224 62.9501 13.5224 62.9077 13.48 62.8652C13.4376 62.8228 13.4376 62.7804 13.4376 62.738C13.3951 62.6531 13.3527 62.4834 13.2679 62.3986L13.2254 62.3561C13.1406 62.3137 13.0557 62.3561 12.9709 62.3986C12.8012 62.5258 12.7163 62.8228 12.6739 63.0774C12.6739 63.1198 12.6739 63.1622 12.6315 63.2046L12.4618 63.9259C12.2921 64.6047 12.1648 65.1986 12.08 65.7926C12.0375 65.9198 12.0375 66.0471 11.9951 66.1744C11.9527 66.4714 11.9103 66.7259 11.8678 66.9805C11.7406 67.2774 11.6981 67.5744 11.6557 67.9138C11.6133 68.0411 11.6133 68.1684 11.5709 68.3381C11.486 68.7623 11.4012 69.1441 11.2739 69.5259C11.2315 69.6108 11.2315 69.6957 11.189 69.7805C11.1042 69.7805 10.9769 69.7805 10.8921 69.8229C10.8072 69.8229 10.7648 69.9078 10.7648 69.9502C10.7224 69.9926 10.6799 70.0775 10.6799 70.2048C10.6799 70.332 10.6799 70.4593 10.6799 70.629C10.6799 70.8836 10.6799 71.0957 10.7224 71.3078C10.7224 71.3502 10.7648 71.3926 10.8072 71.4351C10.8072 71.4351 10.8496 71.4351 10.8921 71.4351C10.9345 71.4351 10.9345 71.4351 10.9769 71.3927C11.0618 71.3502 11.1042 71.3078 11.1042 71.2654C11.189 71.2654 11.2315 71.1805 11.2315 71.0957C11.2315 70.9684 11.2315 70.7987 11.2315 70.6714C11.2315 70.5442 11.189 70.4169 11.2315 70.2896C11.9951 70.2048 12.7588 70.1623 13.48 70.1199C14.1588 70.0775 14.8376 70.0775 15.5588 69.9926C15.5588 70.0775 15.5588 70.1623 15.5588 70.2896C15.5588 70.5017 15.5164 70.6714 15.6437 70.8411C15.6861 70.8836 15.7285 70.926 15.7709 70.8836C15.8982 70.8836 15.9406 70.7987 15.9831 70.7563C16.0255 70.7563 16.0255 70.7563 16.0255 70.7139C16.0679 70.6714 16.1103 70.629 16.0679 70.5442C16.0255 70.4169 16.0255 70.2896 16.0255 70.1623C16.1103 70.035 16.1103 69.7805 15.9831 69.6108ZM13.0557 64.138C13.2254 64.8592 13.4376 65.6229 13.6073 66.3441L13.7345 66.8108C13.777 66.8956 13.777 66.938 13.8194 66.9805C13.8194 67.0229 13.8618 67.0653 13.8618 67.1077C13.8618 67.1502 13.8618 67.1502 13.8618 67.1926C13.8618 67.235 13.8618 67.3199 13.9042 67.3623C14.0315 67.7865 14.2012 68.2108 14.3285 68.635C14.4558 68.9744 14.583 69.3138 14.6679 69.6532C14.4133 69.6957 14.1588 69.6957 13.8618 69.6957C13.5224 69.6957 13.183 69.7381 12.8012 69.7381C12.7163 69.7381 12.5891 69.7381 12.5042 69.7381C12.3769 69.7381 12.2921 69.7381 12.2072 69.7381C12.2072 69.7381 12.1648 69.7381 12.1648 69.7805C12.1224 69.7805 12.08 69.7805 11.9951 69.8229C11.9527 69.8229 11.9103 69.8654 11.9103 69.8654C11.9103 69.8654 11.8678 69.8654 11.8254 69.8654C11.8678 69.6532 11.9103 69.4411 11.9527 69.2714C11.9951 69.0593 12.08 68.8047 12.08 68.635C12.08 68.5926 12.08 68.5502 12.08 68.5502C12.08 68.5078 12.08 68.5078 12.08 68.4653C12.1648 68.2532 12.1648 68.0411 12.2072 67.7865C12.2497 67.6168 12.2497 67.4471 12.2921 67.2774C12.4618 66.7259 12.5466 66.132 12.6315 65.538C12.7163 64.9865 12.8012 64.5198 12.9285 64.0107C12.9709 64.0107 13.0133 64.0531 13.0557 64.138Z" fill="#679940"/>
<path d="M19.7164 66.0041C19.7164 65.8769 19.7164 65.7496 19.7164 65.6647C19.7164 65.6223 19.7164 65.6223 19.7164 65.6223C19.7164 65.5375 19.674 65.4102 19.674 65.3678C19.674 65.3253 19.674 65.3253 19.674 65.2829V65.2405C19.7164 65.1132 19.674 64.9011 19.5892 64.7738C19.5892 64.4768 19.4619 64.095 19.377 63.798L19.3346 63.6283C19.3346 63.5859 19.2922 63.5859 19.2922 63.5435C19.2922 63.5011 19.2922 63.5011 19.2498 63.4586C18.9952 63.1192 18.7407 62.992 18.4437 62.8647C18.4013 62.8647 18.4013 62.8647 18.3588 62.8647C17.9346 62.9071 17.5952 63.0344 17.3406 63.2465L17.2982 63.2889C16.9164 63.9677 16.6194 64.9435 16.5346 65.7496C16.4497 65.8769 16.4497 66.0466 16.4497 66.1738C16.4497 66.2163 16.4497 66.2587 16.4497 66.3011C16.4073 66.3435 16.4073 66.386 16.4073 66.4284C16.4073 66.5981 16.4073 66.7678 16.4073 66.9375C16.4073 67.1496 16.3649 67.3193 16.4073 67.5314C16.4073 67.5739 16.4073 67.5739 16.4073 67.6163C16.4073 67.6163 16.4073 67.6163 16.4073 67.6587C16.4073 67.7011 16.4073 67.7011 16.4073 67.7436V67.786V67.9981C16.4073 68.3375 16.4497 68.7193 16.577 69.0587C16.5346 69.186 16.6194 69.3557 16.6618 69.483C16.6618 69.5254 16.6618 69.5678 16.6618 69.5678C16.6618 69.6103 16.6618 69.6103 16.7043 69.6103C16.7043 69.6527 16.7467 69.6951 16.7891 69.7375C16.7891 69.78 16.7891 69.78 16.8315 69.8224C16.8315 69.8648 16.874 69.9072 16.9164 69.9072C16.9588 70.1194 17.0861 70.2891 17.2134 70.3315C17.2558 70.3739 17.2982 70.4163 17.2982 70.4163C17.3406 70.4588 17.3831 70.5012 17.4255 70.5012C17.4679 70.5012 17.5528 70.5436 17.5952 70.5436C17.68 70.586 17.8073 70.586 17.9346 70.586H17.977C18.0619 70.586 18.1043 70.5436 18.1891 70.5012H18.2316C18.274 70.5012 18.3588 70.5012 18.4013 70.4588C18.6982 70.2042 18.9528 69.9497 19.1225 69.5254C19.2498 69.3557 19.3346 69.1012 19.377 68.889C19.4195 68.7193 19.4619 68.5496 19.5467 68.4224V68.3799C19.5467 68.3799 19.5467 68.3375 19.5467 68.2951L19.5892 68.2527C19.7164 67.786 19.8013 67.3617 19.8437 66.8951V66.7254C19.8861 66.5132 19.8861 66.2587 19.8861 66.089C19.7164 66.089 19.7164 66.0466 19.7164 66.0041ZM19.0376 67.4042C18.9952 67.5314 18.9952 67.6587 18.9528 67.786L18.9104 67.8284C18.8679 67.9981 18.8255 68.2102 18.7831 68.4224C18.7407 68.6769 18.6982 68.9315 18.6134 69.1436C18.5285 69.3557 18.3588 69.483 18.1043 69.483C18.0619 69.483 18.0619 69.483 18.0194 69.483C17.8922 69.4406 17.68 69.2709 17.5952 69.2284C17.5528 69.186 17.5528 69.186 17.5103 69.1436C17.4679 69.1436 17.4255 69.0163 17.4255 68.9739C17.3831 68.889 17.3406 68.8042 17.2982 68.7193V68.6769C17.2982 68.6345 17.2982 68.5921 17.2558 68.5921C17.2558 68.5496 17.2558 68.5072 17.2134 68.4648C17.0861 68.0405 17.0437 67.489 17.0012 66.7678C17.0012 66.7254 17.0012 66.6829 16.9588 66.6829C17.0012 66.5132 17.0012 66.3435 17.0012 66.1314C17.0437 65.792 17.0437 65.4526 17.1285 65.1132C17.1709 64.9859 17.2134 64.8587 17.2558 64.7738C17.3406 64.6465 17.3831 64.5193 17.3831 64.392C17.3831 64.3496 17.3831 64.3496 17.3831 64.3071C17.4255 64.2223 17.4679 64.1374 17.5528 64.0526C17.5952 63.9677 17.68 63.8829 17.7225 63.798C17.7649 63.7556 17.8073 63.7556 17.8497 63.7132L17.8922 63.6708C18.0194 63.6283 18.1043 63.7132 18.274 63.9253C18.3164 64.0102 18.4013 64.0526 18.4437 64.1374C18.4861 64.3071 18.5285 64.4344 18.6134 64.5617C18.7407 64.9011 18.8679 65.2405 18.9104 65.6647C18.9104 65.7072 18.8679 65.7496 18.9104 65.792C19.0801 66.2587 19.0801 66.8951 18.9952 67.3193C18.9952 67.3193 18.9952 67.3617 19.0376 67.4042ZM17.1709 68.6345L17.2134 68.5921C17.2134 68.6345 17.2134 68.6345 17.1709 68.6345Z" fill="#679940"/>
<path d="M24.6799 66.7678C24.6799 66.0041 24.6799 65.2405 24.595 64.5617C24.6375 64.392 24.6375 64.2223 24.595 64.0526C24.6375 63.9253 24.595 63.7556 24.595 63.5859C24.595 63.4586 24.5526 63.2465 24.595 63.2041C24.6799 63.1616 24.6799 63.0768 24.6375 62.9919C24.6375 62.9495 24.595 62.9495 24.5526 62.9071C24.5102 62.8647 24.4678 62.8647 24.4253 62.8647H24.3829C24.3405 62.8647 24.2556 62.8647 24.2132 62.8647C24.1708 62.8647 24.1284 62.9071 24.0859 62.9495C24.0435 62.9495 24.0435 62.9919 24.0435 62.9919C24.0011 63.0344 24.0011 63.0768 24.0011 63.1192C24.0011 63.1616 24.0011 63.2041 23.9587 63.2889C23.9162 63.3738 23.9162 63.4162 23.9162 63.501L23.8738 63.5859C23.789 63.7556 23.7041 63.9253 23.6617 64.095C23.5344 64.2223 23.4496 64.392 23.4071 64.5617C23.3647 64.6041 23.3223 64.6465 23.3223 64.7314L23.2799 64.7738L23.2374 64.8162C23.195 64.8586 23.1526 64.9011 23.1526 64.9859C23.1102 65.0283 23.1102 65.0283 23.1102 65.0708C23.1102 65.1132 23.1102 65.1132 23.1102 65.1556C23.0253 65.2829 22.9405 65.4526 22.8556 65.5799C22.8132 65.6223 22.8132 65.7071 22.7708 65.7496C22.6011 65.4102 22.4738 65.1132 22.3041 64.7738C22.3041 64.7314 22.2617 64.6889 22.2617 64.6465C22.2617 64.6041 22.2192 64.5617 22.2192 64.5192C22.1768 64.4768 22.1768 64.4344 22.1768 64.3495C22.1768 64.2647 22.1344 64.2223 22.0495 64.1798C21.8798 63.6707 21.6677 63.4162 21.4132 63.0768L21.3707 62.9919C21.3707 62.9919 21.3707 62.9919 21.3283 62.9495C21.2859 62.9071 21.2859 62.8647 21.2435 62.8647C21.201 62.7798 21.1162 62.7374 21.0313 62.7374H20.9889C20.9465 62.7374 20.8192 62.7374 20.7344 62.8647C20.7344 62.8647 20.7344 62.9071 20.6919 62.9495C20.6919 63.0768 20.6495 63.5011 20.6919 63.8829C20.6495 63.9677 20.6495 64.095 20.6919 64.2647V64.3071C20.6919 64.3496 20.6919 64.4768 20.6919 64.5617C20.6919 64.6041 20.6919 64.6889 20.6919 64.6889C20.6919 64.9435 20.6919 65.1556 20.6495 65.2829C20.6071 65.4102 20.6495 65.5799 20.6495 65.7071C20.6495 65.792 20.6495 65.8344 20.6495 65.8768V66.0041C20.6495 66.0465 20.6495 66.089 20.6071 66.1314C20.6071 66.2162 20.5647 66.3011 20.6071 66.3435V66.3859C20.5647 66.5132 20.6071 66.6829 20.6071 66.8526C20.6071 66.9375 20.6071 67.0223 20.6071 67.0647V67.1072C20.5647 67.3193 20.5222 67.4041 20.5647 67.6163C20.5222 67.7435 20.4798 67.9981 20.4798 68.1254C20.4798 68.2102 20.4798 68.2951 20.4798 68.3799C20.4798 68.4648 20.4798 68.5072 20.4374 68.592C20.4374 68.7617 20.4374 68.9314 20.395 69.1011C20.395 69.3133 20.395 69.5254 20.3525 69.7375C20.3525 69.7799 20.3525 69.7799 20.395 69.8224C20.3525 69.9496 20.3525 70.1618 20.4798 70.289C20.5222 70.3315 20.6495 70.4163 20.8616 70.3739C20.9041 70.3739 20.9889 70.3315 20.9889 70.2466C20.9889 70.2042 21.0313 70.1618 21.0313 70.0769C21.0313 69.9921 20.9889 69.9496 20.9465 69.9496C20.9465 69.6951 20.9465 69.483 20.9465 69.2708V69.186C20.9889 68.9739 21.0313 68.8466 20.9889 68.7193C20.9889 68.6769 21.0313 68.6345 21.0313 68.592C21.0313 68.4223 21.0738 68.1678 21.0738 67.9557C21.0738 67.6587 21.0738 67.2769 21.1162 67.0223C21.1162 66.9799 21.1162 66.9375 21.1162 66.9375C21.1162 66.8526 21.1586 66.7678 21.1586 66.6829C21.1586 66.5981 21.1586 66.5132 21.1586 66.4284C21.1586 66.3011 21.1586 66.1314 21.1586 66.089C21.201 66.0465 21.201 65.9617 21.1586 65.9193C21.201 65.8344 21.1586 65.792 21.1586 65.7071C21.1586 65.6647 21.1586 65.6647 21.1586 65.6223C21.1586 65.495 21.1586 65.3677 21.1586 65.2405C21.1586 64.9859 21.201 64.8162 21.1586 64.7314C21.1586 64.6889 21.1586 64.6041 21.1586 64.5617C21.201 64.6041 21.201 64.6465 21.2435 64.6465C21.2859 64.8162 21.4132 65.0283 21.498 65.198C21.498 65.2405 21.5404 65.2829 21.5404 65.2829C21.5404 65.3253 21.5404 65.3677 21.5829 65.4102C21.6677 65.5799 21.7526 65.7071 21.8374 65.8344C21.9647 66.0465 22.092 66.3011 22.3465 66.5556C22.3889 66.5981 22.3889 66.5981 22.4314 66.5981L22.4738 66.6405C22.5162 66.6829 22.6011 66.6829 22.6435 66.6405C22.7283 66.6405 22.7708 66.5981 22.8132 66.5556C22.9405 66.2587 23.1102 66.0041 23.2374 65.7071C23.4071 65.4102 23.5768 65.1132 23.7465 64.7738C23.7465 64.9435 23.7465 65.1132 23.789 65.2829C23.789 65.3677 23.8314 65.4526 23.8314 65.5374C23.8314 65.5799 23.8314 65.6223 23.8314 65.6647C23.8314 65.792 23.789 65.9193 23.8738 66.0465C23.8314 66.1738 23.8314 66.3011 23.8738 66.3859C23.8314 66.4284 23.8314 66.4708 23.8314 66.5132V66.5556C23.8738 66.7253 23.8738 66.9375 23.8738 67.1496C23.8738 67.4041 23.8738 67.6587 23.9162 67.9132C23.9162 68.0405 23.9162 68.2102 23.9162 68.3799C23.9162 68.592 23.9162 68.8042 23.8738 69.0163C23.8738 69.0587 23.8738 69.0587 23.8738 69.1011C23.9162 69.186 23.9162 69.3557 23.8738 69.483C23.8738 69.8648 23.8738 70.3739 24.3405 70.4587C24.3405 70.4587 24.3405 70.4587 24.3829 70.4587C24.4253 70.4587 24.4678 70.4587 24.4678 70.4163C24.6799 70.289 24.6799 70.0345 24.6799 69.8648C24.6799 69.7799 24.6799 69.6951 24.7223 69.6102V69.5678C24.7223 69.3981 24.7223 69.186 24.7223 68.9314C24.7223 68.6769 24.7223 68.3799 24.7223 68.1254C24.7647 68.0829 24.7647 68.0405 24.7647 67.9981C24.6799 67.7011 24.6799 67.2769 24.6799 66.7678ZM21.1162 65.9617L20.9465 65.9193L21.1162 65.9617C21.1162 65.9193 21.1162 65.9617 21.1162 65.9617Z" fill="#679940"/>
<path d="M32.4015 69.6103C32.3591 69.5678 32.3167 69.5254 32.2742 69.5254C32.147 69.5254 32.0197 69.5254 31.9348 69.5678H31.8924C31.8924 69.5254 31.8924 69.483 31.85 69.4406C31.85 69.3981 31.8076 69.3557 31.85 69.3133C31.85 69.2284 31.8076 69.186 31.7651 69.1436C31.7227 69.1436 31.7227 69.1012 31.6803 68.9739C31.6803 68.9315 31.6803 68.889 31.6379 68.8042C31.5954 68.6769 31.553 68.5072 31.4682 68.3799C31.3833 68.1254 31.256 67.8284 31.2136 67.5739C31.0015 66.5981 30.6621 65.6223 30.3651 64.6465C30.2378 64.2647 30.1106 63.8829 30.0257 63.5435C30.0257 63.4162 29.9833 63.3314 29.9833 63.2465C29.9409 63.1617 29.9409 63.0768 29.9409 62.992C29.9409 62.9495 29.9409 62.9071 29.8984 62.8647C29.856 62.8223 29.856 62.7798 29.856 62.7374C29.8136 62.6526 29.7712 62.4829 29.6863 62.398L29.6439 62.3556C29.559 62.3132 29.4742 62.3556 29.3893 62.398C29.2196 62.5253 29.1348 62.8223 29.0924 63.0768C29.0924 63.1192 29.0924 63.1617 29.0499 63.2041L28.8802 63.9253C28.7105 64.6041 28.5833 65.1981 28.4984 65.792C28.456 65.9193 28.456 66.0466 28.4136 66.1738C28.3711 66.4708 28.3287 66.7254 28.2863 66.9799C28.159 67.2769 28.1166 67.5739 28.0742 67.9133C28.0317 68.0405 28.0317 68.1678 27.9893 68.3375C27.9045 68.7618 27.8196 69.1436 27.6923 69.5254C27.6499 69.6103 27.6499 69.6951 27.6075 69.78C27.5226 69.78 27.3954 69.78 27.3105 69.8224C27.2257 69.8224 27.1832 69.9072 27.1832 69.9497C27.1408 69.9921 27.0984 70.0769 27.0984 70.2042C27.0984 70.3315 27.0984 70.4588 27.0984 70.6285C27.0984 70.883 27.0984 71.0951 27.1408 71.3073C27.1408 71.3497 27.1832 71.3921 27.2257 71.4345C27.2257 71.4345 27.2681 71.4345 27.3105 71.4345C27.3529 71.4345 27.3529 71.4345 27.3954 71.3921C27.4802 71.3497 27.5226 71.3073 27.5226 71.2648C27.6075 71.2648 27.6499 71.18 27.6499 71.0951C27.6499 70.9679 27.6499 70.7982 27.6499 70.6709C27.6499 70.5436 27.6075 70.4163 27.6499 70.2891C28.4136 70.2042 29.1772 70.1618 29.8984 70.1194C30.5772 70.0769 31.256 70.0769 31.9773 69.9921C31.9773 70.0769 31.9773 70.1618 31.9773 70.2891C31.9773 70.5012 31.9348 70.6709 32.0621 70.8406C32.1045 70.883 32.147 70.9254 32.1894 70.883C32.3167 70.883 32.3591 70.7982 32.4015 70.7557C32.4439 70.7557 32.4439 70.7557 32.4439 70.7133C32.4864 70.6709 32.5288 70.6285 32.4864 70.5436C32.4439 70.4163 32.4439 70.289 32.4439 70.1618C32.5288 70.0345 32.5288 69.78 32.4015 69.6103ZM29.4742 64.1374C29.6439 64.8587 29.856 65.6647 30.0257 66.3435L30.153 66.8102C30.1954 66.8951 30.1954 66.9375 30.2378 66.9799C30.2378 67.0223 30.2803 67.0648 30.2803 67.1072C30.2803 67.1496 30.2803 67.1496 30.2803 67.192C30.2803 67.2345 30.2803 67.3193 30.3227 67.3617C30.45 67.786 30.6197 68.2102 30.7469 68.6345C30.8742 68.9739 31.0015 69.3133 31.0863 69.6527C30.8318 69.6951 30.5772 69.6951 30.2803 69.6951C29.9409 69.6951 29.6015 69.7375 29.2196 69.7375C29.1348 69.7375 29.0075 69.7375 28.9227 69.7375C28.7954 69.7375 28.7105 69.7375 28.6257 69.7375C28.6257 69.7375 28.5833 69.7375 28.5833 69.78C28.5408 69.78 28.4984 69.78 28.4136 69.8224C28.3711 69.8224 28.3287 69.8648 28.3287 69.8648C28.3287 69.8648 28.2863 69.8648 28.2439 69.8648C28.2863 69.6527 28.3287 69.4406 28.3711 69.2709C28.4136 69.0587 28.4984 68.8042 28.4984 68.6345C28.4984 68.5921 28.4984 68.5496 28.4984 68.5496C28.4984 68.5072 28.4984 68.5072 28.4984 68.4648C28.5833 68.2527 28.5833 68.0405 28.6257 67.786C28.6681 67.6163 28.6681 67.4466 28.7105 67.2769C28.8802 66.7254 28.9651 66.1314 29.0499 65.5375C29.1348 64.9859 29.2196 64.5193 29.3469 64.0102C29.3893 64.0102 29.4318 64.0526 29.4742 64.1374Z" fill="#679940"/>
<path d="M37.1107 69.9073C37.1107 69.6951 37.0683 69.5254 36.9835 69.3982C36.941 69.2709 36.8562 69.186 36.8562 69.0163V68.9739C36.5592 68.3375 36.3471 67.6587 36.135 67.0224C36.0501 66.8102 36.0077 66.5981 35.9228 66.386C35.8804 66.2587 35.838 66.1314 35.7956 66.0466C35.7531 65.9617 35.7107 65.8769 35.7107 65.792C35.7107 65.792 35.7107 65.7496 35.7107 65.7072C35.7107 65.6648 35.7107 65.6223 35.7107 65.5375C35.6259 65.2829 35.541 64.986 35.4137 64.7314C35.3289 64.5617 35.244 64.3496 35.2016 64.1799C35.2016 64.0102 35.1168 63.7981 35.0319 63.6284C34.9895 63.5435 34.9471 63.4162 34.9471 63.3314C34.9471 63.289 34.9471 63.2041 34.9046 63.1617C34.9046 63.0344 34.8622 62.8647 34.7349 62.7374C34.6925 62.695 34.6077 62.6526 34.5652 62.6526C34.5228 62.6526 34.5228 62.6102 34.4804 62.6102C34.438 62.6102 34.3955 62.6102 34.3531 62.6526C34.0986 62.8647 34.0986 63.1617 34.0986 63.3738C34.0986 63.4587 34.0986 63.5011 34.0986 63.5435C33.8864 64.3496 33.6743 65.3254 33.547 65.9617L33.4198 66.5133C33.2925 67.1072 33.2076 67.7012 33.0804 68.2951C32.9531 68.9315 32.8682 69.5679 32.741 70.1194C32.741 70.2042 32.7834 70.2891 32.8682 70.2891C32.9107 70.2891 32.9531 70.3315 33.0379 70.3315C33.0804 70.3315 33.1228 70.3315 33.2076 70.2891C33.3349 70.2042 33.3349 70.077 33.3349 69.9497C33.3349 69.9073 33.3349 69.9073 33.3349 69.8648C33.3349 69.6527 33.4198 69.4406 33.4622 69.2285C33.5046 69.0588 33.547 68.8891 33.5895 68.6769C33.6319 68.3375 33.7167 68.0406 33.8016 67.7012C33.8864 67.4042 33.9289 67.1072 33.9713 66.7678C33.9713 66.7254 33.9713 66.683 33.9713 66.683C33.9713 66.5557 34.0137 66.4708 34.0561 66.3436C34.0986 66.2587 34.0986 66.1739 34.141 66.0466C34.141 66.0042 34.141 65.9193 34.141 65.8769C34.141 65.8345 34.141 65.792 34.141 65.7496C34.141 65.7072 34.1834 65.6223 34.2258 65.5799C34.2258 65.5375 34.2683 65.5375 34.2683 65.4951C34.3107 65.4102 34.3107 65.2829 34.3107 65.1557C34.3107 65.1132 34.3107 65.0284 34.3107 65.0284C34.3531 64.986 34.3955 64.9435 34.3955 64.9011C34.438 64.7738 34.438 64.6466 34.438 64.5193C34.4804 64.6041 34.5228 64.7314 34.5652 64.7738C34.5652 64.9011 34.6077 65.1557 34.6925 65.2829L34.7349 65.4951C34.8622 65.9193 34.9471 66.3436 35.1592 66.7678C35.1592 66.9375 35.244 67.1921 35.3289 67.3618V67.4042C35.3289 67.4466 35.3289 67.4466 35.3289 67.489C35.4562 67.7436 35.541 68.0406 35.6683 68.2951C35.9228 68.9739 36.2198 69.6951 36.6865 70.2891C36.6865 70.3315 36.7289 70.3315 36.7713 70.3315C36.8138 70.3315 37.0259 70.3739 37.1532 70.3315C37.1956 70.3315 37.1956 70.2891 37.238 70.2467C37.1532 70.2467 37.1956 70.077 37.1107 69.9073C37.1107 69.9497 37.1107 69.9073 37.1107 69.9073Z" fill="#679940"/>
<path d="M39.8685 67.192C39.8685 67.1496 39.8685 67.1496 39.8685 67.1072C39.8685 67.0648 39.8685 66.9799 39.8685 66.8951C39.8685 66.8526 39.8685 66.7678 39.826 66.7254C39.826 66.5981 39.7836 66.4284 39.7836 66.386C39.826 66.1738 39.7836 66.0041 39.7836 65.8344C39.7836 65.7496 39.7836 65.6647 39.7836 65.5799C39.7836 65.5375 39.7836 65.5375 39.7836 65.495C39.7836 65.3678 39.7836 65.2405 39.7836 65.1556C39.7836 65.0708 39.7836 65.0284 39.7836 64.9435C39.826 64.9011 39.826 64.8587 39.826 64.8162C39.826 64.7314 39.7836 64.689 39.7836 64.6465C39.7836 64.6465 39.7836 64.6041 39.7836 64.6465C39.7836 64.6041 39.7836 64.5193 39.826 64.4768C39.826 64.392 39.8685 64.2647 39.8685 64.1374C39.8685 64.0102 39.8685 63.8829 39.8685 63.7556C39.8685 63.4162 39.8685 63.1192 39.826 62.9071C39.826 62.8647 39.7836 62.8223 39.7412 62.7798C39.2745 62.5253 38.5533 62.8223 38.1715 63.0768C38.129 63.0768 38.129 63.1192 38.129 63.1617C38.0866 63.2041 38.0442 63.2889 38.0018 63.3738C37.8745 63.5435 37.7472 63.798 37.7472 64.0526C37.6624 64.3071 37.5775 64.6465 37.5775 65.0284C37.5775 65.0708 37.5351 65.1132 37.5775 65.1556C37.5775 65.2405 37.6199 65.3253 37.6199 65.4526C37.6199 65.5375 37.6199 65.6223 37.6199 65.7072C37.6199 65.7496 37.6199 65.7496 37.6199 65.792C37.8321 66.7254 38.2563 67.2769 38.9775 67.5314C38.8078 67.8708 38.6381 68.2102 38.4684 68.5072C38.129 69.1436 37.7896 69.78 37.4927 70.4588C37.4502 70.5436 37.4927 70.6285 37.5351 70.6709C37.5351 70.7133 37.5775 70.7982 37.7048 70.8406H37.7472C37.7472 70.8406 37.7472 70.8406 37.7896 70.8406C38.129 70.7982 38.2563 70.5436 38.3412 70.3315C38.3836 70.2891 38.3836 70.2466 38.426 70.2042C38.4684 70.1194 38.5109 70.0345 38.5533 69.9497C38.5957 69.9072 38.6381 69.8648 38.6381 69.8224C38.6806 69.78 38.6806 69.7375 38.6806 69.6951C38.723 69.6527 38.7654 69.6103 38.8078 69.5254C38.8927 69.3133 39.02 69.1012 39.1048 68.8466C39.1048 69.3557 39.1472 69.8224 39.2745 70.2891C39.3169 70.3739 39.3594 70.4163 39.4442 70.4163C39.5715 70.4163 39.7412 70.3739 39.8685 70.3315C39.9109 70.2891 39.9533 70.2466 39.9533 70.2042C40.0382 69.5254 39.9957 68.7618 39.9109 67.9981C39.9109 67.6587 39.8685 67.4042 39.8685 67.192ZM38.4684 64.4768V64.4344C38.4684 64.392 38.4684 64.392 38.4684 64.3496C38.5109 64.3071 38.5109 64.3071 38.5109 64.2647C38.5957 63.9253 38.723 63.6708 38.9351 63.4586C38.9351 64.1799 38.9775 64.9435 39.02 65.6223V65.8769C39.02 66.0466 39.02 66.2163 39.02 66.386C39.02 66.5557 39.02 66.7678 39.02 66.9799C38.9775 66.9799 38.9351 66.9375 38.8927 66.9375C38.8078 66.8951 38.723 66.8102 38.5957 66.7678C38.4684 66.5981 38.3412 66.4284 38.2563 66.3011C38.1715 65.7496 38.2987 65.1132 38.4684 64.4768Z" fill="#679940"/>
<path d="M47.5896 69.8224C47.5896 69.8224 47.5896 69.7799 47.5472 69.7799C47.2502 69.3133 46.9533 68.8042 46.6987 68.3375C46.3593 67.7011 45.9775 67.0647 45.5532 66.4708C45.6381 66.2587 45.7654 66.0465 45.8926 65.8344C46.0623 65.5799 46.232 65.2829 46.3169 64.9859C46.4442 64.8162 46.529 64.6465 46.6139 64.4768C46.6563 64.3495 46.7411 64.2223 46.826 64.1374C46.9957 63.8829 47.123 63.5859 47.2502 63.2889L47.3351 63.1192C47.3775 63.0344 47.3351 62.9919 47.2927 62.9071C47.2078 62.8223 47.0381 62.8223 46.9533 62.9071C46.8684 62.9495 46.826 63.0344 46.826 63.1192C46.7836 63.1616 46.7411 63.2041 46.7411 63.2465C46.7411 63.2889 46.6987 63.3313 46.6987 63.3738C46.6563 63.501 46.6139 63.6283 46.529 63.7132C46.3593 64.0101 46.1896 64.3495 45.9775 64.6889C45.8078 64.9859 45.6805 65.2405 45.5108 65.5374C45.5108 65.3253 45.5108 65.1556 45.4684 65.0283C45.5108 64.6889 45.4684 64.392 45.4684 64.095C45.4684 63.7556 45.426 63.4586 45.4684 63.1192C45.4684 63.0768 45.4684 63.0344 45.4684 63.0344C45.3835 62.8647 45.2563 62.7798 45.0866 62.7374C44.9593 62.7374 44.832 62.7798 44.7472 62.9071C44.7472 62.9495 44.7047 62.9495 44.7047 62.9919C44.7047 63.0344 44.6623 63.1192 44.6623 63.2041C44.6199 63.3738 44.5775 63.5435 44.5775 63.6708C44.5775 63.7556 44.5775 63.798 44.5775 63.8404V63.8829C44.5775 64.095 44.5775 64.3495 44.5775 64.6041C44.5775 64.7314 44.5775 64.8586 44.5775 64.9859C44.5775 65.0708 44.5775 65.1556 44.5775 65.2405C44.535 65.1556 44.4926 65.0708 44.4502 64.9859C44.3229 64.7314 44.1956 64.4344 44.0259 64.1798C43.9411 63.9253 43.7714 63.6708 43.6441 63.4586C43.6017 63.3738 43.5168 63.2465 43.4744 63.1616V63.1192C43.4744 63.0344 43.3896 62.8647 43.135 62.8647C43.0926 62.8647 43.0926 62.8647 43.0502 62.9071C43.0077 62.9071 42.9653 62.9495 42.9653 62.9919C42.8805 63.1616 42.9653 63.2889 43.0502 63.3738C43.0926 63.4162 43.0926 63.4586 43.0926 63.4586C43.0926 63.5011 43.0926 63.501 43.135 63.5435C43.135 63.5859 43.1774 63.5859 43.2199 63.6283C43.2623 63.7556 43.3471 63.8829 43.432 64.0101C43.5593 64.2223 43.6441 64.4344 43.729 64.6041C43.729 64.6465 43.7714 64.6465 43.8138 64.6889C43.8138 64.7314 43.8562 64.7314 43.8562 64.7738C43.8562 64.8586 43.9411 64.9435 43.9835 64.9859C43.9835 64.9859 43.9835 65.0283 44.0259 65.0283C44.1108 65.2829 44.2381 65.5374 44.3653 65.7496C44.4502 65.9193 44.535 66.089 44.6199 66.2587C44.5775 66.3011 44.535 66.3859 44.5775 66.4708C44.4502 66.6405 44.3653 66.8526 44.3653 67.0647C44.2805 67.1496 44.2381 67.2344 44.2381 67.3193C44.2381 67.3617 44.2381 67.3617 44.1956 67.4041L44.0259 67.7011C43.7714 68.1678 43.5593 68.6345 43.432 69.1436C43.3047 69.3133 43.0502 69.6951 43.0077 70.0345C42.9653 70.0769 42.9229 70.1193 42.9229 70.2042C42.8805 70.3739 42.9229 70.5436 43.0502 70.6284C43.0926 70.6709 43.0926 70.6709 43.135 70.6709C43.5593 70.7133 43.6865 70.4163 43.8138 70.1193L43.8562 69.9921C43.8987 69.9072 43.9411 69.8224 43.9835 69.7799C44.0259 69.6951 44.0684 69.6102 44.1108 69.483C44.1532 69.483 44.1532 69.4405 44.1532 69.3981C44.1956 69.3981 44.1956 69.3557 44.1956 69.3133C44.2805 69.0587 44.3653 68.8466 44.4926 68.6345C44.5775 68.4223 44.6623 68.2102 44.7472 67.9981V68.0405C44.7047 68.0829 44.7047 68.1678 44.7472 68.2951V68.3375C44.7472 68.3375 44.7472 68.3799 44.7472 68.4223C44.7472 68.5072 44.7472 68.592 44.7472 68.6345C44.7472 68.7193 44.7472 68.7617 44.7472 68.7617V68.8042C44.7472 68.9314 44.7472 69.1011 44.7472 69.2284C44.7472 69.2708 44.7472 69.2708 44.7472 69.2708V69.3133C44.7472 69.3981 44.7896 69.483 44.7896 69.5678C44.7896 69.6102 44.7896 69.6527 44.7896 69.6951V69.7375C44.7896 69.8224 44.7896 69.9072 44.832 69.9496C44.832 70.1193 44.832 70.289 44.9593 70.4587C45.129 70.6284 45.2563 70.6284 45.3411 70.586C45.6805 70.4587 45.6381 69.6951 45.6381 69.6951C45.6381 69.5254 45.6381 69.3557 45.5957 69.1436C45.5957 69.0163 45.5957 68.889 45.5532 68.7193C45.5532 68.3799 45.5108 67.9981 45.5108 67.6163C46.0199 68.5496 46.529 69.4405 46.9108 70.0769C46.9533 70.2466 46.9957 70.4587 47.2078 70.586C47.2927 70.6284 47.3775 70.6709 47.4624 70.6709C47.5048 70.6709 47.5472 70.6709 47.5896 70.6709C47.6321 70.6709 47.6745 70.6284 47.7169 70.586C47.8866 70.3315 47.7593 70.0769 47.6745 69.9072C47.6321 69.9072 47.5896 69.8648 47.5896 69.8224Z" fill="#679940"/>
<path d="M52.0867 69.8224C52.0867 69.78 52.0867 69.78 52.0867 69.6951C52.0867 69.6103 52.0442 69.483 52.0442 69.3982C52.0442 69.3557 52.0442 69.2709 52.0442 69.2285C52.0442 69.186 52.0867 69.1436 52.0867 69.1012C52.0867 68.7618 52.0867 68.4648 52.0442 68.1254C52.0442 67.8709 52.0018 67.5739 52.0018 67.3618C52.0867 66.2587 52.0867 65.3678 52.0442 64.6466C52.0442 64.5617 52.0018 64.5193 52.0018 64.4344C52.0018 64.392 51.9594 64.3496 51.9594 64.3496V63.0768C51.9594 63.0344 51.9594 63.0344 51.917 62.992C51.8321 62.8223 51.62 62.7374 51.4079 62.8223C51.3654 62.8223 51.3654 62.8647 51.323 62.8647C51.1109 63.1193 50.9836 63.4162 50.9412 63.7132C50.8563 63.7981 50.8563 63.9253 50.8139 64.0102C50.8139 64.0526 50.7715 64.1375 50.7715 64.1375C50.7291 64.1799 50.6866 64.2223 50.6866 64.2647C50.6442 64.5617 50.5169 64.8163 50.3897 65.0708C50.3048 65.2405 50.22 65.4102 50.1775 65.5799C50.0503 65.7496 49.9654 65.9617 49.923 66.1739C49.923 66.2587 49.8806 66.3011 49.8806 66.3436V66.386C49.7957 66.5133 49.7109 66.6405 49.6684 66.7678C49.626 66.8102 49.626 66.8102 49.626 66.8527C49.626 66.8527 49.5836 66.8951 49.5836 66.9375C49.5412 66.9799 49.4987 67.1072 49.4987 67.1921C49.329 67.4466 49.2442 67.6587 49.1593 67.9557V67.9981C49.0745 68.1254 48.9472 68.3375 48.9048 68.5497C48.8624 68.5921 48.8199 68.6345 48.8199 68.6769C48.8199 68.7618 48.7775 68.8466 48.7351 68.8891C48.6927 68.9739 48.6502 69.0588 48.6502 69.1436C48.5654 68.4224 48.523 67.6587 48.4805 67.0648C48.4805 66.7678 48.4805 66.5981 48.4805 66.386C48.4805 66.3011 48.4805 66.1739 48.4805 66.0466V66.0042V65.9617C48.3957 65.2405 48.3957 64.392 48.3957 63.6708C48.3957 63.4587 48.3957 63.2041 48.3957 63.0344C48.3957 62.992 48.3957 62.9496 48.3533 62.9071C48.3108 62.8647 48.2684 62.8647 48.226 62.8647C48.1836 62.8647 48.1411 62.8223 48.0563 62.8223C47.9714 62.8223 47.929 62.9071 47.929 62.9496C47.8442 63.7132 47.8866 64.4769 47.8866 65.2405V65.5799C47.8866 65.8769 47.8866 66.1314 47.8866 66.386C47.8866 67.0224 47.929 67.6587 47.9714 68.2951C47.929 68.6345 47.9714 69.1012 48.0563 69.483C48.0987 69.78 48.1411 70.077 48.1411 70.2467C48.1411 70.2891 48.1411 70.3739 48.1836 70.3739C48.2684 70.4588 48.3533 70.5436 48.4805 70.5436H48.523C48.6927 70.5012 48.7351 70.3739 48.8199 70.2467L48.8624 70.1618C48.9048 70.1194 48.9048 70.077 48.9472 70.0345C48.9896 69.9921 49.0321 69.9073 49.0745 69.8224L49.1169 69.6951C49.2866 69.3557 49.4987 68.9315 49.5836 68.5497C49.7957 68.2527 49.9654 67.8709 50.0927 67.3193C50.22 67.0648 50.3048 66.8102 50.4321 66.5557C50.5594 66.2163 50.7291 65.8769 50.8988 65.5375C51.026 65.3254 51.0685 65.1132 51.1533 64.9011C51.1957 64.8163 51.2382 64.689 51.2806 64.6041C51.323 64.5617 51.3654 64.4769 51.3654 64.4344C51.3654 64.7738 51.4079 65.1132 51.4079 65.4102C51.4079 66.0042 51.4079 66.5557 51.4079 67.1072C51.4079 68.0406 51.3654 68.9315 51.4927 69.8224C51.4503 69.9497 51.4503 70.077 51.4927 70.1618V70.2042C51.4927 70.2467 51.5776 70.3315 51.62 70.3315C51.62 70.3315 51.6624 70.3739 51.7048 70.3739C51.7473 70.3739 51.7897 70.3739 51.8321 70.3739C52.1291 70.2467 52.0442 69.9073 52.0018 69.7376C52.0867 69.9497 52.0867 69.8648 52.0867 69.8224Z" fill="#679940"/>
<path d="M54.5896 67.786C54.5896 67.7436 54.5472 67.7012 54.5048 67.6587C54.5048 67.2345 54.2927 66.7254 53.9957 66.4284C54.123 66.3011 54.2078 66.1739 54.2502 66.0042C54.2927 65.9617 54.3351 65.9193 54.3351 65.8769C54.3351 65.8345 54.3351 65.8345 54.3775 65.792C54.3775 65.7496 54.4199 65.7072 54.4199 65.6648C54.6321 64.9011 54.6321 64.2647 54.4624 63.6284C54.4624 63.5859 54.4199 63.5435 54.4199 63.4587C54.3775 63.3738 54.3351 63.2465 54.3351 63.1617C54.3351 63.1193 54.2927 63.0768 54.2502 63.0344C54.2078 62.992 54.1654 62.9496 54.0805 62.8647C54.0381 62.8223 53.9957 62.7374 53.9533 62.695C53.9108 62.6526 53.8684 62.6102 53.826 62.5677C53.6563 62.398 53.4017 62.0586 53.1048 62.3132C53.0623 62.3556 53.0199 62.398 53.0199 62.4405C53.0199 62.6526 53.1472 62.7374 53.232 62.8223C53.2745 62.8223 53.2745 62.8647 53.2745 62.8647C53.3593 62.9496 53.4017 63.0768 53.4442 63.2041C53.4866 63.289 53.529 63.4162 53.5714 63.5011C53.5714 63.5435 53.5714 63.6284 53.6139 63.6708C53.6139 63.7981 53.6139 63.9253 53.6563 64.0102C53.6987 64.1375 53.6987 64.2223 53.6563 64.3072C53.6563 64.3496 53.6563 64.4344 53.6987 64.4769C53.6987 64.6041 53.6987 64.7314 53.6987 64.8587C53.6563 64.9011 53.6563 64.9435 53.6563 64.986C53.6563 65.0284 53.6563 65.0708 53.6563 65.1132C53.6563 65.1557 53.6563 65.1981 53.6563 65.2405C53.6563 65.2829 53.6139 65.2829 53.6139 65.3254C53.6139 65.5375 53.529 65.6648 53.4866 65.8345C53.4442 65.9193 53.4017 66.0042 53.3593 66.089C53.3593 66.089 53.3169 66.089 53.3169 66.1314C53.232 66.1739 53.1048 66.2587 53.1048 66.4284C53.1048 66.4708 53.1472 66.5557 53.1896 66.5981C53.2745 66.6405 53.4017 66.7678 53.4866 66.8951C53.4866 66.9799 53.529 67.0224 53.5714 67.0648C53.7836 68.083 53.7836 68.8466 53.5714 69.6527C53.4866 69.7376 53.4017 69.8224 53.4017 69.9497C53.4017 69.9497 53.3593 69.9497 53.3593 69.9921C53.232 70.077 53.1896 70.077 53.1048 70.077C53.0199 70.0345 53.0199 69.9921 52.9775 69.8224C52.9351 69.6951 52.8926 69.5679 52.8078 69.4406C52.7654 69.3982 52.7229 69.3982 52.6805 69.3982C52.5108 69.3982 52.426 69.483 52.3835 69.5254C52.2563 69.6951 52.3835 69.9921 52.5108 70.2042C52.6381 70.4588 52.9351 70.6709 53.2745 70.6709C53.3169 70.6709 53.3593 70.6709 53.4442 70.6709C53.6139 70.6285 53.7836 70.5012 53.9533 70.2891C53.9533 70.2466 53.9957 70.2467 54.0381 70.2042C54.0805 70.1618 54.123 70.1194 54.1654 70.077C54.3351 69.9072 54.4624 69.483 54.4624 69.3133C54.5048 69.2709 54.5048 69.2709 54.5048 69.2285C54.5048 69.1436 54.5048 69.0588 54.5472 68.9739C54.5896 68.5921 54.6321 68.2951 54.5472 68.1254C54.6321 67.9981 54.6321 67.8709 54.5896 67.786Z" fill="#679940"/>
<path d="M58.4505 68.2951C58.4081 68.1678 58.4929 67.9132 58.4081 67.8284C58.4505 67.6163 58.4505 67.3617 58.3656 67.1496C58.4505 67.0223 58.4081 66.7253 58.3656 66.6829C58.4081 65.9193 58.3656 65.4102 58.4081 64.6465H58.3656C58.4505 64.6465 58.3656 64.5617 58.4081 64.5617C58.3656 64.095 58.3232 63.4162 58.3656 62.9495C58.3656 62.9071 58.3232 62.9495 58.3232 62.9071C58.4081 62.9495 58.2808 62.7798 58.3232 62.6526C58.2384 62.5253 58.1959 62.4404 58.1535 62.3556V62.3132C57.602 62.1859 57.6444 63.4162 57.6868 63.7556C57.6444 63.8829 57.6444 64.095 57.6444 64.2647C57.6444 64.7738 57.6868 65.3678 57.6444 65.6647C57.0929 65.7496 56.6686 65.8344 56.1595 65.792C56.1595 64.8587 56.0323 63.6283 56.1171 62.695C55.9474 62.5677 56.0747 62.3132 55.8201 62.3556C55.6929 62.3556 55.5232 62.6526 55.5232 62.8223C55.4383 63.2889 55.5656 63.9253 55.608 64.3071C55.608 64.3071 55.608 64.3071 55.6504 64.3071C55.608 64.392 55.5232 64.5193 55.6504 64.6041C55.5656 64.8162 55.608 65.2829 55.6504 65.495C55.608 65.5374 55.608 65.7496 55.6504 65.8769C55.6504 66.2587 55.7353 66.7254 55.7777 67.1496C55.8201 67.8284 55.8201 68.5496 55.8626 69.2284C55.8626 69.483 55.905 69.9921 55.9898 70.1193C55.905 70.3315 56.0323 70.3739 56.0323 70.5436C56.0323 70.586 55.9898 70.5012 55.9898 70.586C55.9474 70.883 56.3292 70.883 56.4565 70.7133C56.4989 70.5436 56.4565 70.4163 56.4565 70.2042C56.4565 69.7375 56.4141 69.186 56.3717 68.6345C56.3717 68.3375 56.2868 67.7435 56.3292 67.5738C56.3292 67.4041 56.3292 67.192 56.3292 67.0223C56.3292 66.9799 56.3292 66.9799 56.3292 66.9799V66.9375C56.3717 66.6829 56.2444 66.2587 56.2868 66.0041C56.7535 65.9193 57.305 65.9193 57.7717 65.8344C57.8565 66.895 57.7717 67.7011 57.7717 68.592C57.7717 68.9314 57.899 69.3133 57.899 69.6951C57.899 69.7799 57.8565 69.9072 57.899 69.9921C57.899 70.0345 57.9414 70.0769 57.9414 70.0769C57.9414 70.1618 57.899 70.2042 57.899 70.289C57.899 70.4163 57.9838 70.4587 58.0262 70.586C58.1535 70.6709 58.2808 70.5436 58.3232 70.5012C58.3656 70.5012 58.3232 70.5436 58.3232 70.5436C58.5778 70.3315 58.4929 69.7375 58.4929 69.5678L58.5353 69.5254C58.5353 69.4405 58.5353 69.3557 58.4929 69.2708C58.5353 69.2708 58.5778 69.2708 58.5353 69.2284C58.4081 68.9739 58.4081 68.6769 58.4505 68.2951C58.3656 68.3375 58.3232 68.2951 58.2808 68.2526C58.3656 68.2526 58.3656 68.2951 58.4505 68.2951Z" fill="#679940"/>
<path d="M63.2868 69.9921C63.2868 69.9072 63.2444 69.8648 63.2444 69.78C63.2444 69.7375 63.2444 69.7375 63.2444 69.6527C63.2444 69.5678 63.2019 69.4406 63.2019 69.3557C63.2019 69.3133 63.2019 69.2284 63.2019 69.186C63.2019 69.1436 63.2444 69.1012 63.2444 69.0587C63.2444 68.7193 63.2444 68.4224 63.2019 68.083C63.2019 67.8284 63.1595 67.5314 63.1595 67.3193C63.2444 66.2163 63.2444 65.3253 63.2019 64.6041C63.2019 64.5193 63.1595 64.4768 63.1595 64.392C63.1595 64.3496 63.1171 64.3071 63.1171 64.3071V63.0344C63.1171 62.992 63.1171 62.992 63.0747 62.9495C62.9898 62.7798 62.7777 62.695 62.5656 62.7798C62.5231 62.7798 62.5231 62.8223 62.4807 62.8223C62.2686 63.0768 62.1413 63.3738 62.0989 63.6708C62.014 63.7556 62.014 63.8829 61.9716 63.9677C61.9716 64.0102 61.9292 64.095 61.9292 64.095C61.8868 64.1374 61.8443 64.1799 61.8443 64.2223C61.8019 64.5193 61.6746 64.7738 61.5474 65.0284C61.4625 65.1981 61.3777 65.3678 61.3352 65.5375C61.208 65.7072 61.1231 65.9193 61.0807 66.1314C61.0807 66.2163 61.0383 66.2587 61.0383 66.3011V66.3435C60.9534 66.4708 60.8686 66.5981 60.8261 66.7254C60.7837 66.7678 60.7837 66.7678 60.7837 66.8102C60.7837 66.8102 60.7413 66.8526 60.7413 66.8951C60.6989 66.9375 60.6564 67.0648 60.6564 67.1496C60.4867 67.4042 60.4019 67.6163 60.317 67.9133V67.9557C60.2322 68.083 60.1049 68.2951 60.0625 68.5072C60.0201 68.5496 59.9776 68.5921 59.9776 68.6345C59.9776 68.7193 59.9352 68.8042 59.8928 68.8466C59.8504 68.9315 59.8079 69.0163 59.8079 69.1012C59.7231 68.3799 59.6807 67.6163 59.6382 67.0223C59.6382 66.7254 59.6382 66.5557 59.6382 66.3435C59.6382 66.2587 59.6382 66.1314 59.6382 66.0041V65.9617V65.9193C59.5534 65.1981 59.5534 64.3496 59.5534 63.6283C59.5534 63.4162 59.5534 63.1617 59.5534 62.992C59.5534 62.9495 59.5534 62.9071 59.511 62.8647C59.4685 62.8223 59.4261 62.8223 59.3837 62.8223C59.3413 62.8223 59.2988 62.7798 59.214 62.7798C59.1291 62.7798 59.0867 62.8647 59.0867 62.9071C59.0019 63.6708 59.0443 64.4344 59.0443 65.1981V65.5375C59.0443 65.8344 59.0443 66.089 59.0443 66.3435C59.0443 66.9799 59.0867 67.6163 59.1291 68.2527C59.0867 68.5921 59.1291 69.0587 59.214 69.4406C59.2564 69.7375 59.2988 70.0345 59.2988 70.2042C59.2988 70.2466 59.2988 70.3315 59.3413 70.3315C59.4261 70.4163 59.511 70.5012 59.6382 70.5012H59.6807C59.8504 70.4588 59.8928 70.3315 59.9776 70.2042L60.0201 70.1194C60.0625 70.0769 60.0625 70.0345 60.1049 69.9921C60.1473 69.9497 60.1898 69.8648 60.2322 69.78L60.2746 69.6527C60.4443 69.3133 60.6564 68.889 60.7413 68.5072C60.9534 68.2102 61.1231 67.8284 61.2504 67.2769C61.3777 67.0223 61.4625 66.7678 61.5898 66.5132C61.7171 66.1738 61.8868 65.8344 62.0565 65.495C62.1837 65.2829 62.2262 65.0708 62.311 64.8587C62.3534 64.7738 62.3959 64.6465 62.4383 64.5617C62.4807 64.5193 62.5231 64.4344 62.5231 64.392C62.5231 64.7314 62.5656 65.0708 62.5656 65.3678C62.5656 65.9617 62.5656 66.5132 62.5656 67.0648C62.5656 67.9981 62.5231 68.889 62.6504 69.78C62.608 69.9072 62.608 70.0345 62.6504 70.1194V70.1618C62.6504 70.2042 62.7353 70.2891 62.7777 70.2891C62.7777 70.2891 62.8201 70.3315 62.8625 70.3315C62.905 70.3315 62.9474 70.3315 62.9898 70.3315C63.4141 70.5012 63.3292 70.2042 63.2868 69.9921Z" fill="#679940"/>
<path d="M15.7708 45.5553H12.8435V48.4827H15.7708V45.5553Z" fill="#F7941D"/>
<path d="M19.7166 45.5553H16.7893V48.4826H19.7166V45.5553Z" fill="#F7941D"/>
<path d="M15.7711 49.5857H12.8438V52.513H15.7711V49.5857Z" fill="#F7941D"/>
<path d="M19.7166 49.5857H16.7893V52.513H19.7166V49.5857Z" fill="#F7941D"/>
<path d="M48.1411 15.5609C40.844 17.0033 35.2864 20.567 31.553 25.8277C31.553 25.658 31.6378 25.4883 31.5954 25.3186C31.0439 21.3731 30.0681 16.4942 29.9408 15.9003C28.8802 11.4881 27.3105 6.73647 23.9165 3.08793C20.5225 -0.560622 15.5163 -0.306072 11.189 0.500002C7.37073 1.22123 5.20705 3.34247 3.84945 6.1001C2.44943 7.54255 1.77063 9.53652 1.30396 11.4032C0.328183 15.2215 0.200908 19.2094 0.328183 23.2398C0.455457 26.6762 0.667582 30.1975 1.09183 33.6763C1.55851 37.5794 2.78883 41.4825 3.80703 45.3856C5.1222 50.4342 8.21923 61.295 9.57682 65.4526V54.3373C9.5344 54.3797 9.5344 54.4646 9.49197 54.507C9.195 52.9373 8.8556 51.3251 8.47377 49.7554C8.5162 49.7978 8.5162 49.8402 8.5162 49.8402C8.55863 49.8827 8.60105 49.9251 8.6859 49.9675C8.89802 51.0281 9.195 52.0888 9.61925 53.107V43.2219H8.77075C8.81318 43.3916 8.81318 43.5613 8.8556 43.731C8.89802 44.1129 8.94045 44.5371 8.94045 44.9189C8.98287 45.5129 9.11015 46.1068 9.15257 46.7008C8.98287 45.5553 8.81318 44.4098 8.6859 43.2219H7.62528C7.75255 44.1977 7.87983 45.2159 8.04953 46.1917C7.8374 45.2159 7.71013 44.1977 7.58285 43.2219H4.99493L7.28588 41.3552C7.20103 40.634 7.07375 39.9128 6.9889 39.1916C6.9889 38.2582 6.86163 37.3673 6.6495 36.4339C6.56465 35.84 6.52223 35.246 6.43738 34.6521C6.35253 34.0581 6.3101 33.4642 6.26768 32.9127C6.43738 33.5915 6.6495 34.2703 6.9889 34.8642C6.8192 36.7309 6.86163 38.5976 7.3283 40.4219C7.3283 40.6764 7.37073 40.931 7.37073 41.228L9.74652 39.2764C9.7041 38.8946 9.66167 38.4703 9.61925 38.0885C9.74652 38.3855 9.8738 38.7249 10.0859 39.0219L10.8071 38.4279C10.5526 38.0037 10.3405 37.4521 10.1283 36.9006C10.5526 36.8582 10.9768 36.7733 11.4011 36.6036C11.3162 37.24 11.1465 37.7915 10.892 38.3006L16.1103 34.0157L17.3406 35.0339C17.4679 34.7794 17.5951 34.5248 17.7224 34.2703C17.68 34.6097 17.6376 34.9491 17.5951 35.2885L18.9527 36.3915C19.2921 35.6703 19.674 34.9491 20.0982 34.2703C20.2255 34.6097 20.2255 35.0339 20.1831 35.4157C20.0134 35.9249 19.8437 36.4339 19.6315 36.943L20.9467 38.0461C21.074 37.4946 21.2013 36.943 21.2437 36.3491C21.4982 35.8824 21.7104 35.4157 22.0073 34.9491C22.4316 34.2279 22.771 33.549 23.1952 32.8278C23.3649 34.143 23.6619 35.4157 24.2983 36.4339C24.0862 36.7309 23.874 37.0703 23.6619 37.3673C23.2377 38.0037 22.8558 38.64 22.474 39.2764L24.0862 40.5916C24.5528 39.4885 25.0195 38.4279 25.4013 37.2824C25.5286 37.3673 25.6559 37.3673 25.8256 37.3249C26.3771 37.1127 26.8862 36.8158 27.3953 36.4764V36.5188C26.4195 37.537 25.4862 38.5552 24.5953 39.6158C24.3831 39.8704 24.5104 40.1249 24.765 40.2946C24.5953 40.4643 24.4256 40.634 24.2559 40.8037L25.0619 41.4401C25.2316 41.2704 25.4438 41.0583 25.6135 40.8886C25.4438 41.1007 25.3165 41.3128 25.1468 41.5249L26.6317 42.7553C26.8862 42.5856 27.1408 42.3734 27.3529 42.2037C27.2256 42.4583 27.0983 42.7128 26.9711 42.9674C26.9711 42.9674 26.9286 42.9674 26.9286 43.0098L27.2256 43.2219H26.6317C26.4195 43.3916 26.2074 43.5189 25.9953 43.6886C25.2741 44.2401 24.5953 44.7917 23.874 45.3432C24.0862 45.0038 24.2983 44.6644 24.5104 44.325C25.0195 43.9856 25.5286 43.6038 25.9953 43.2644H23.4074L23.3649 43.3068C23.2801 43.3916 23.2377 43.4341 23.1528 43.5189C23.2377 43.4341 23.2801 43.3492 23.3649 43.2644H22.6437V48.6523C23.3225 48.1432 24.0013 47.6766 24.6801 47.1675C24.171 47.9735 23.6619 48.7796 23.1104 49.5433C22.9407 49.6705 22.8134 49.7978 22.6437 49.9251V51.7918C22.9831 51.3675 23.3649 50.9857 23.7043 50.519C24.9771 49.5857 26.2498 48.7372 27.5226 47.8463C27.3953 48.3129 27.3105 48.7796 27.268 49.2463C27.268 49.3736 27.3529 49.5008 27.4377 49.6281C25.8256 50.6039 24.2134 51.6221 22.6437 52.6403V58.6646C23.2377 58.198 23.874 57.7313 24.5104 57.307C26.0377 56.2464 27.7347 55.4403 29.0923 54.2524C29.1347 54.21 29.1772 54.21 29.1772 54.1676C29.2196 54.1252 29.262 54.1252 29.262 54.0827C29.3469 53.9979 29.3893 53.913 29.3469 53.7858C29.4741 53.8282 29.6014 53.7858 29.7287 53.7433C31.6802 52.7251 33.2924 51.3251 35.1166 50.2221C35.2439 50.1372 35.3712 50.0524 35.4985 50.0099C36.05 50.0099 36.5591 49.8827 37.0258 49.713C33.0378 52.3857 29.0499 55.0161 24.9771 57.604C24.2134 58.1131 23.4074 58.5374 22.6013 59.004V59.9374C31.4681 54.6343 40.1652 49.0766 48.4805 43.1371C54.8867 38.5552 63.499 31.8521 63.499 23.4519C63.7959 15.5609 54.5049 14.2881 48.1411 15.5609ZM5.92828 47.125C6.52223 49.119 6.73435 51.113 7.07375 53.1494C7.07375 53.1918 7.07375 53.2342 7.11618 53.2767C7.1586 53.4888 7.1586 53.7009 7.20103 53.913C7.11618 53.6161 7.07375 53.3615 6.9889 53.0645C6.35253 50.6887 5.88585 48.4402 5.58888 46.1068C5.71615 46.4462 5.801 46.7856 5.92828 47.125ZM25.1044 13.5669C25.0619 13.0154 25.1044 12.4638 25.1468 11.9123C25.1892 11.9547 25.1892 11.9972 25.2316 11.9972C25.9953 13.2699 26.3347 14.8396 26.5468 16.3669C26.2074 16.2821 25.868 16.4094 25.4438 16.8336C25.4013 16.9185 25.3165 16.9609 25.2741 17.0457C25.1892 15.9003 25.1468 14.7548 25.1044 13.5669ZM25.1892 29.2217C24.8922 29.3914 24.6377 29.6035 24.3407 29.8581C24.3407 29.4338 24.3407 29.0096 24.3407 28.6278C24.3407 27.0156 24.3831 25.4035 24.5528 23.7913C24.7225 25.5732 25.0195 27.3974 25.1892 29.2217ZM26.0801 10.7244C25.7832 10.2153 25.4438 9.79107 25.0619 9.45167C25.0195 9.19712 24.9347 8.94257 24.8498 8.68802C24.6801 8.26377 24.0862 8.3062 23.9165 8.60317C23.1528 8.17892 22.3043 7.83952 21.4134 7.4577C21.3285 7.288 21.2013 7.07587 21.1164 6.90617C21.4134 6.52435 21.4558 6.05767 21.371 5.63342C22.5589 6.14252 23.6619 6.7789 24.5953 7.71225C25.6559 8.77287 26.2074 10.1305 26.5044 11.5305C26.3347 11.2335 26.2074 10.979 26.0801 10.7244ZM21.2861 2.83338C22.8983 3.894 24.171 5.29402 25.1468 6.90617C24.0013 5.80312 22.474 4.99705 20.8619 4.44552C20.48 3.97885 19.9709 3.59702 19.3346 3.3849C18.9952 3.25762 18.6558 3.17278 18.2739 3.13035C17.8921 2.7061 17.5103 2.32428 17.086 1.94245C16.9588 1.8576 16.8739 1.77275 16.7466 1.6879C18.2315 1.60305 19.7588 1.8576 21.2861 2.83338ZM19.5043 6.56677C19.377 6.86375 19.0376 7.07587 18.5285 7.16072C18.4861 7.20315 18.4436 7.20315 18.3588 7.20315C18.6558 6.82132 18.9103 6.4395 19.1649 6.01525C19.2073 6.1001 19.2497 6.14252 19.2921 6.22737C19.377 6.35465 19.4618 6.48192 19.5043 6.56677ZM15.3042 3.34247C15.1345 3.3849 14.9648 3.42733 14.7951 3.46975C13.9042 3.51217 13.0557 3.76672 12.2496 4.10612C12.0799 3.97885 11.8678 3.894 11.6132 3.80915C12.7587 3.34248 14.0314 3.13035 15.3042 3.34247ZM12.9708 1.1788C13.0981 1.1788 13.1829 1.13638 13.3102 1.13638C11.6556 1.43335 10.0435 2.23943 9.195 3.0455L9.15257 3.08793C8.77075 3.34247 8.38893 3.59702 8.04953 3.894C7.20103 4.10612 6.39495 4.4031 5.801 4.65765C7.41315 2.57883 9.8738 1.56063 12.9708 1.1788ZM9.83137 4.95462C9.78895 4.9122 9.74652 4.9122 9.7041 4.86977C9.91622 4.7425 10.0859 4.5728 10.298 4.44552C10.6799 4.44552 10.9768 4.48795 11.2738 4.61522C10.8496 4.86977 10.4253 5.16675 10.0435 5.4213C10.0435 5.29402 10.0011 5.12432 9.83137 4.95462ZM9.57682 5.7607C9.40712 5.88797 9.23742 6.01525 9.11015 6.14252C7.92225 7.16072 6.94648 8.17892 6.18283 9.3244C6.3101 8.98499 6.43738 8.68802 6.56465 8.39105C7.03133 7.66982 7.54043 6.99102 8.04953 6.39707C8.30408 6.05767 8.64348 5.7607 8.94045 5.46372C9.0253 5.50615 9.15258 5.54857 9.23742 5.63342C9.3647 5.7607 9.49197 5.7607 9.57682 5.7607ZM2.36458 17.2579C2.36458 14.2033 3.00096 11.7002 4.31613 9.02742C4.52825 8.56075 5.07978 7.71225 5.801 6.9486C5.54645 7.4577 5.2919 8.00922 5.07978 8.56075C2.91611 12.2517 1.89791 17.0882 3.0858 20.8216C3.0858 20.864 3.12823 20.9064 3.12823 20.9064C3.0858 21.2458 3.04338 21.6276 2.95853 21.967C2.78883 23.1125 2.57671 24.2156 2.53428 25.361C2.49186 25.1065 2.44943 24.8944 2.44943 24.6398C2.40701 24.3004 2.40701 23.9186 2.36458 23.5792C2.36458 21.5004 2.36458 19.3367 2.36458 17.2579ZM3.67975 32.1066C3.4252 30.8763 3.17066 29.6035 2.95853 28.3732C3.00096 28.5005 3.04338 28.6702 3.0858 28.7975C3.12823 28.8399 3.21308 28.9247 3.2555 28.9672C3.34035 29.3914 3.46763 29.8581 3.5949 30.2823C3.63733 30.8763 3.63733 31.4702 3.67975 32.1066ZM1.89791 31.9369C1.81306 31.1733 1.77063 30.4096 1.68578 29.6884C1.94033 32.149 2.40701 34.6097 3.0858 37.1552C3.72218 39.531 4.06158 41.8643 4.31613 44.1977C3.29793 40.1249 2.27973 36.0097 1.89791 31.9369ZM4.4434 27.949C4.9525 26.3368 4.74038 24.3004 4.65553 22.561C4.82523 21.6701 5.03735 20.8216 5.37675 20.0579C5.41918 20.0579 5.41918 20.0579 5.4616 20.0579C4.69795 21.2458 4.9525 22.7307 4.9525 24.1307C4.9525 26.8459 5.07978 29.5611 5.24948 32.2339C5.03735 31.6399 4.82523 31.0036 4.6131 30.4096C4.57068 29.646 4.48583 28.7975 4.4434 27.949ZM5.801 38.6825C5.20705 37.1976 4.99493 35.5854 4.91008 34.0157C5.1222 34.6521 5.33433 35.3309 5.54645 35.9673C5.6313 36.9006 5.75858 37.7915 5.88585 38.7249C5.84343 38.6825 5.84343 38.6825 5.801 38.6825ZM6.1404 17.8094C5.92828 17.6397 5.58888 17.6397 5.41918 17.8094C5.37675 17.8518 5.33433 17.9367 5.2919 17.9791C5.41918 17.3427 5.54645 16.7488 5.75858 16.1124C5.801 15.9427 5.75858 15.8154 5.67373 15.6881C5.801 15.476 5.9707 15.2639 6.09798 15.0518C6.18283 14.9245 6.3101 14.7972 6.43738 14.6699C6.22525 15.7306 6.1404 16.7912 6.1404 17.8094ZM8.0071 20.3125C9.44955 19.2943 10.3829 17.6397 11.3162 16.1972C11.3162 16.3669 11.2738 16.5366 11.2738 16.6639C10.6374 17.5973 10.0435 18.5306 9.40712 19.464C9.0253 20.0579 8.5162 20.864 8.0071 21.7125C8.0071 21.2882 8.0071 20.8216 8.0071 20.3125ZM8.55863 24.3428C9.40712 23.6216 10.0859 22.5186 10.595 21.5428C10.298 22.3064 10.0011 23.0701 9.7041 23.7489C9.44955 24.3853 9.11015 25.0216 8.81318 25.658C8.72833 25.1913 8.64348 24.7671 8.55863 24.3428ZM9.23742 29.9005C9.61925 30.3672 10.3405 29.9005 10.0011 29.349C9.83137 29.052 9.61925 28.755 9.44955 28.5005C9.44955 28.4156 9.49197 28.3732 9.49197 28.2884C9.95865 27.7368 10.3405 27.1429 10.595 26.8035C10.595 27.2702 10.595 27.7793 10.6374 28.2884C10.2556 29.349 9.83137 30.452 9.27985 31.343C9.27985 30.8763 9.27985 30.4096 9.23742 29.9005ZM11.6132 35.543C11.1041 35.7551 10.6374 35.9249 10.2132 36.0097C10.1283 36.0097 10.0435 36.0097 9.95865 36.0097C9.74652 35.0339 9.57683 34.1006 9.40712 33.4218C9.40712 33.2521 9.40712 33.1248 9.40712 32.9551C10.0435 32.2763 10.5102 31.3854 10.892 30.452C11.0617 31.8945 11.3162 33.2945 11.6981 34.7369C11.6556 35.0339 11.6556 35.2885 11.6132 35.543ZM11.7405 11.3184C11.189 11.9547 10.6374 12.6335 10.0859 13.3123C9.3647 14.2033 8.55863 15.0942 7.79498 16.0275C7.71013 15.6033 7.62528 15.1366 7.498 14.7124C7.41315 14.4154 7.11618 14.2457 6.86163 14.2881C7.92225 13.0578 9.195 11.9972 10.5526 11.0638C10.9344 10.7668 11.3587 10.5123 11.8253 10.2577C11.7405 10.5971 11.7405 10.979 11.7405 11.3184ZM13.692 25.1065C13.6496 27.7793 13.6496 30.4945 13.6072 33.1672C13.6072 33.3369 13.6072 33.549 13.6072 33.7612C13.4799 34.0582 13.3526 34.3976 13.1829 34.6945C13.0557 34.7794 12.886 34.8642 12.7587 34.9491C12.6738 34.7369 12.6314 34.4824 12.5466 34.2703C12.7163 31.343 12.589 28.3732 12.8011 25.4459C12.8011 25.361 12.8011 25.3186 12.8011 25.2338C13.0981 24.5125 13.3951 23.8337 13.692 23.1125C13.692 23.7913 13.692 24.4277 13.692 25.1065ZM13.1829 20.5246C13.2254 20.1852 13.2254 19.8458 13.2678 19.5064C13.3951 19.2943 13.4799 19.0397 13.6072 18.8276C13.6072 19.0821 13.6496 19.2943 13.6496 19.5488C13.4799 19.8882 13.3102 20.1852 13.1829 20.5246ZM15.686 21.3731C15.686 23.2398 15.5163 25.1065 15.5587 27.0156C15.5587 27.7793 15.6012 28.5429 15.6436 29.349C15.6012 29.4338 15.5587 29.5187 15.5587 29.5611C15.2193 27.2277 15.0921 24.8944 14.8799 22.6458C14.8375 22.3064 14.7951 21.9246 14.7951 21.5428C14.7951 21.1185 14.7951 20.6943 14.7951 20.2276C14.7951 20.2276 14.7951 20.2276 14.7951 20.1852C15.0921 19.2518 15.4739 18.3185 15.7709 17.3851C15.686 18.7427 15.686 20.0579 15.686 21.3731ZM15.3466 7.54255C15.2193 7.6274 15.1345 7.75467 15.0072 7.83952C14.4557 7.9668 13.9042 8.17892 13.3951 8.39105C13.3951 8.26377 13.3951 8.17892 13.3951 8.05165C13.3526 7.66982 12.6738 7.4577 12.4617 7.75467C12.2072 8.1365 12.0375 8.60317 11.9526 9.06985C9.7041 10.2153 7.71013 11.7002 6.09798 13.5245C7.28588 10.3002 9.0253 7.41527 12.0375 5.67585C12.0375 5.80312 12.0375 5.97282 12.0375 6.14252C11.9526 6.7789 12.9708 6.9486 13.0132 6.35465C13.0557 5.88797 13.0132 5.50615 12.9284 5.20917C13.5648 4.9122 14.2011 4.65765 14.9648 4.48795C15.4739 4.44552 15.983 4.4031 16.5345 4.48795C17.0012 4.53037 17.5103 4.5728 17.977 4.65765C18.1042 4.78492 18.2739 4.9122 18.4012 5.03947C18.1467 5.20917 17.9345 5.37887 17.68 5.54857C16.7466 5.9304 15.983 6.73647 15.3466 7.54255ZM17.2133 30.9611C17.0012 31.3854 16.8315 31.7672 16.6618 32.1915C16.7466 31.5127 16.7891 30.8339 16.7891 30.1126C16.9163 29.8581 17.0012 29.646 17.1285 29.3914C17.4254 29.646 17.977 29.6035 17.977 29.1793C17.977 29.0096 17.977 28.7975 17.977 28.6278V28.6702C18.1891 29.1369 18.8679 29.052 18.9527 28.6278C19.1224 27.5671 19.2073 26.4641 19.2073 25.4035C19.2497 25.7004 19.2921 25.955 19.3346 26.252C19.4194 26.7611 20.3103 26.8459 20.3528 26.2944C20.3528 25.9974 20.3528 25.7429 20.3952 25.4459C20.48 26.0823 20.5225 26.7186 20.5649 27.355C20.3528 27.2277 20.0134 27.2277 19.8437 27.4823C19.1649 28.5853 18.5709 29.7308 18.0618 30.8763C17.8073 30.6217 17.383 30.6217 17.2133 30.9611ZM17.7648 22.3489C17.7224 20.864 17.8497 19.3367 17.9345 17.8094C17.9345 18.1488 17.9345 18.4882 17.9345 18.8276C18.0194 20.567 18.1467 22.3064 18.1891 24.0034C18.1042 24.1731 17.977 24.3004 17.8921 24.4701C17.8921 24.3428 17.8497 24.2156 17.8497 24.0459C17.8497 23.4943 17.8073 22.9428 17.7648 22.3489ZM18.6982 35.0339C18.7406 34.5672 18.8255 34.1006 18.8679 33.6339C19.08 33.6339 19.2497 33.6763 19.4618 33.7188C19.1649 34.143 18.9527 34.5672 18.6982 35.0339ZM19.9709 32.9551C19.6315 32.7854 19.2497 32.6581 18.8679 32.6581C18.8679 32.6157 18.8679 32.5308 18.8679 32.4884C19.5467 31.1308 20.1831 29.7732 20.6497 28.3732C20.6497 28.755 20.6922 29.1369 20.6497 29.5187C20.6073 30.2399 20.6922 31.0036 20.9891 31.7248C20.6073 32.1066 20.2679 32.5308 19.9709 32.9551ZM21.7952 31.046C21.5407 30.0702 22.0073 29.1369 21.7528 28.1187C21.3285 26.252 21.2437 24.3853 21.2013 22.5186C21.074 18.4882 20.9467 14.4578 20.777 10.4274C20.7346 9.83349 19.8437 9.66379 19.7588 10.2577C19.5467 11.8275 19.4618 13.4396 19.4194 15.0093C19.377 13.5245 19.3346 12.0396 19.1224 10.5547C19.0376 10.0456 18.1042 9.96077 18.1042 10.5123C18.1042 11.0638 18.0618 11.5729 18.0618 12.1244C18.0194 11.6578 17.977 11.1911 17.9345 10.7244C17.9345 10.5971 17.8497 10.5123 17.7648 10.4274C18.0194 9.91834 18.2315 9.40924 18.4436 8.90015C18.5285 8.6456 18.3588 8.39105 18.1042 8.26377C18.7406 8.1365 19.3346 7.9668 19.8861 7.71225C19.9709 7.75467 20.0558 7.7971 20.1406 7.83952C20.6497 8.98499 21.1164 10.1729 21.9225 11.1487C22.2195 11.5305 22.9831 11.3608 22.8134 10.8517C22.6437 10.2153 22.3892 9.57895 22.0922 8.94257C22.5164 9.23954 22.9407 9.53652 23.3225 9.87592C20.7346 16.3669 22.8983 24.1307 21.7952 31.046ZM23.3649 27.0156C23.3225 28.2035 23.1952 29.646 23.2377 31.1733C23.0255 31.4702 22.8558 31.7248 22.6861 31.9369C24.0013 25.0641 21.7528 17.2154 24.1286 10.6396C24.171 10.682 24.2134 10.7244 24.2134 10.7668C24.2983 12.2093 24.0862 13.7366 24.1286 15.1366C24.171 16.3669 24.2134 17.5548 24.2559 18.7852C23.3225 21.2458 23.4498 24.6398 23.3649 27.0156ZM24.9771 35.4157C24.468 34.2279 24.3407 32.8278 24.3407 31.4702C24.4256 31.343 24.5104 31.2157 24.6377 31.0884C24.8498 30.8339 25.1044 30.5793 25.3165 30.4096C25.4013 32.149 25.3589 33.846 24.9771 35.4157ZM26.1226 26.6762C26.165 27.4399 26.1226 28.2035 26.1226 28.9247C25.868 26.5914 25.5286 24.3004 25.4438 22.1367C25.4013 21.2034 25.3589 20.3125 25.3165 19.3791C25.4862 18.8276 26.0377 16.9185 26.6741 17.7245C26.7165 18.1064 26.7589 18.4458 26.8014 18.7852C26.8014 18.87 26.8014 18.9124 26.8014 18.9973C25.2741 21.0761 26.0377 24.258 26.1226 26.6762ZM60.8262 24.258C60.6141 24.8519 60.3595 25.4459 60.0625 25.9974C60.1474 25.4459 60.2322 24.8944 60.2322 24.3428C60.6141 22.858 60.9535 21.3731 61.2504 19.8882C61.7171 21.2882 61.2929 22.9428 60.8262 24.258ZM59.2565 17.8942C59.8504 18.1912 60.3171 18.5306 60.6141 18.9124C60.5292 18.9124 60.4444 18.9549 60.3595 19.0397C60.0201 19.464 59.6383 19.9306 59.2989 20.3549C58.6625 18.5306 57.3898 17.0457 54.9291 16.4942C54.9291 16.4942 54.9291 16.4942 54.8867 16.4942C56.3716 16.4094 58.0261 17.3003 59.2565 17.8942ZM42.6683 42.7128C42.2016 43.0522 41.7349 43.3916 41.2683 43.731C40.5046 43.8583 39.7834 43.9007 39.1046 43.7735C40.2076 42.331 42.1168 41.3128 43.5592 40.1673C44.4926 39.4037 45.5108 38.6825 46.4865 37.9612C46.4865 38.0037 46.529 38.0461 46.529 38.0885C45.0441 39.3613 43.5592 40.634 42.1168 41.9068C41.7349 42.2462 42.2865 42.7977 42.6683 42.7128ZM30.5772 44.5795C31.1711 43.6462 31.8075 42.7553 32.4015 41.9492C33.4197 41.2704 34.4803 40.634 35.5409 39.9976C34.8621 40.8886 34.1409 41.7795 33.4197 42.628C33.4197 42.6704 33.3772 42.6704 33.3772 42.7128C32.6984 43.1795 32.0196 43.6462 31.3833 44.1129C31.0863 44.2826 30.8317 44.4098 30.5772 44.5795ZM31.2984 45.3856C30.5348 46.4038 29.7287 47.3796 28.7529 48.1857C28.8802 47.719 29.0499 47.2947 29.262 46.8281C29.9408 46.3614 30.6196 45.8947 31.2984 45.3856ZM29.1772 41.5249C29.3044 41.228 29.4741 40.9734 29.6014 40.6764C29.6863 40.5916 29.7711 40.5492 29.856 40.4643C31.6378 39.0219 33.5045 37.6643 35.3712 36.3067C34.8621 36.9006 34.3954 37.4946 33.9288 38.0885C33.5469 38.3431 33.1227 38.64 32.7409 38.8946C31.5105 39.7855 30.3651 40.6764 29.1772 41.5249ZM33.8863 39.8704C34.1409 39.4885 34.4379 39.1491 34.7348 38.7673C35.4136 38.3006 36.1348 37.834 36.8561 37.3673C36.7712 37.6218 36.7288 37.8764 36.7712 38.1309C35.7954 38.7249 34.8621 39.2764 33.8863 39.8704ZM39.5713 28.6702C40.0379 28.3732 40.547 28.0762 41.0137 27.7793C41.5228 27.4823 42.1592 27.1005 42.6259 27.0156C42.1592 27.2702 41.7349 27.5247 41.2683 27.7793C40.5046 28.2035 39.741 28.6702 39.0197 29.1369C39.1894 28.9672 39.3591 28.7975 39.5713 28.6702ZM37.8318 24.2156C37.8743 24.1731 37.9167 24.1731 37.9167 24.1307C38.5531 23.664 39.147 23.2398 39.8258 22.7731C39.6561 22.9428 39.444 23.1549 39.2743 23.3671C38.7652 23.664 38.2985 23.961 37.8318 24.2156ZM39.9955 35.6279C41.0137 35.1188 42.0319 34.6097 43.135 34.2278C42.8804 34.4824 42.6259 34.7794 42.3713 35.0339L42.3289 35.0763C42.2865 35.1188 42.244 35.1188 42.2016 35.1612C41.2258 35.7127 40.2076 36.2642 39.1894 36.8158C39.444 36.3915 39.6985 36.0097 39.9955 35.6279ZM37.7894 35.6703C37.4924 35.84 37.1955 36.0097 36.8985 36.2218C37.6621 35.3733 38.3834 34.5248 39.147 33.7188C39.5288 33.4642 39.9107 33.2096 40.2925 32.9551C40.2076 33.04 40.0804 33.1248 39.9955 33.2521C39.6561 33.549 38.6379 34.5672 37.7894 35.6703ZM40.5046 41.1855C40.9713 40.6764 41.438 40.1673 41.9046 39.6158C43.5168 38.3855 45.0865 37.0703 46.6562 35.7976C46.529 36.137 46.4441 36.4764 46.4017 36.7733C44.7047 38.0885 43.0077 39.4037 41.3107 40.6764C40.9713 40.931 40.6319 41.1431 40.3349 41.3977C40.3773 41.3128 40.4198 41.2704 40.5046 41.1855ZM44.535 32.6581C43.3471 32.9975 42.2016 33.4642 41.0986 33.9733C41.3531 33.5915 41.6925 33.1248 42.0319 32.6581C42.9653 31.8945 43.941 31.1733 44.9168 30.4945C46.3593 29.4763 47.8866 28.5005 49.4987 27.6096C48.6078 28.5005 47.6744 29.3914 46.8259 30.2823C46.0623 31.046 45.2986 31.8521 44.535 32.6581ZM50.4745 27.9914C51.0684 27.4399 51.7048 26.7186 52.3836 26.0398C52.426 26.0398 52.4685 25.9974 52.5109 25.9974C52.2988 26.252 52.0866 26.4641 51.9169 26.6762C51.2806 27.4823 50.6018 28.2459 49.923 29.0096C49.1169 29.7308 48.2684 30.4096 47.5472 31.046C47.4623 31.1308 47.335 31.2157 47.2502 31.3005C48.3108 30.1975 49.3714 29.0944 50.4745 27.9914ZM52.2139 25.0641C51.8321 25.2762 51.4503 25.4883 51.1533 25.7004C50.1775 26.252 49.2017 26.8035 48.226 27.355C48.0987 27.1429 47.7593 26.9732 47.4623 27.1429C46.3168 27.8641 45.1289 28.5853 43.9835 29.2641C43.9835 29.2217 44.0259 29.2217 44.0259 29.1793C45.2986 28.1611 46.5714 27.1429 47.8866 26.1671C48.0987 25.9974 48.3108 25.8701 48.5229 25.7004C49.1169 25.3186 49.7108 24.9792 50.3048 24.5974C50.4321 24.5125 50.5169 24.3853 50.4745 24.2156C51.9169 23.2398 53.5291 22.3489 55.0988 22.1792C55.0988 22.4337 55.014 22.6883 54.9291 22.9004C54.1655 23.3246 53.5291 23.8337 52.8503 24.4277C52.6382 24.6398 52.426 24.8519 52.2139 25.0641ZM47.0381 22.5186C47.632 21.967 48.1835 21.3307 48.7775 20.7367C48.9896 20.9064 49.032 21.2034 49.032 21.5428C48.3532 21.8398 47.6744 22.1792 47.0381 22.5186ZM49.5836 23.7489C49.4987 23.7489 49.4563 23.7489 49.3714 23.7913C49.7533 23.1974 50.0927 22.6458 50.2199 22.0943C50.3048 22.0519 50.3472 22.0095 50.4321 21.967C50.6866 21.8822 50.8987 21.7549 51.1533 21.6701C52.0442 21.3731 55.2261 20.0155 55.6503 21.2882C55.6079 21.2882 55.5655 21.2458 55.4806 21.2458C53.1897 21.161 51.3654 22.561 49.5836 23.7489ZM48.4381 19.6337C47.929 19.5488 47.4199 19.6337 46.8684 19.7609C47.8441 19.0821 48.9472 18.5306 50.1351 18.0639C49.5411 18.573 48.9896 19.0821 48.4381 19.6337ZM48.4381 23.0701L48.3957 23.1125C48.0138 23.664 47.5472 24.1731 47.1229 24.6822C46.9532 24.7671 46.7835 24.8519 46.6138 24.9368C45.8077 25.2762 45.0017 25.7004 44.1956 26.1247C44.1532 25.9974 44.0683 25.8701 43.941 25.7429C45.4259 24.8519 46.9108 23.961 48.4381 23.0701ZM41.9046 24.258C42.3289 23.8337 42.7531 23.4095 43.135 22.9852C43.2198 22.9004 43.2622 22.858 43.3471 22.7731C44.1956 22.2216 45.0865 21.7125 46.0623 21.3731C44.7471 22.3913 43.3471 23.3246 41.9046 24.258ZM42.7956 20.1003C41.8198 20.4397 40.9289 20.9064 40.0804 21.4579C41.0561 20.7367 42.0743 19.9306 43.2622 19.5064C43.135 19.7185 42.9653 19.9306 42.7956 20.1003ZM41.3531 29.9005C41.0561 30.1551 40.7167 30.3672 40.4198 30.5793C39.4016 31.3005 37.5773 33.2945 35.8803 33.4218C35.9227 33.3369 35.9227 33.2945 35.9651 33.2097C37.7046 32.0642 39.5288 30.9611 41.3531 29.9005ZM37.5773 38.9794C38.044 39.1067 38.5955 39.0219 39.147 38.8097C38.8925 39.1067 38.6379 39.4037 38.3834 39.7431C37.5773 40.1249 36.7712 40.5916 36.0076 41.0158C36.5591 40.337 37.0682 39.6582 37.5773 38.9794ZM44.7895 42.4159C46.4865 41.1431 48.1411 39.9128 49.7957 38.5976C49.5411 38.8946 49.2442 39.1916 48.9896 39.4461C48.1835 40.2946 47.335 41.1007 46.4865 41.8643C45.8077 42.1613 45.0441 42.5431 44.1956 42.8825C44.3653 42.7128 44.5774 42.5856 44.7895 42.4159ZM48.1411 35.4157C48.4805 34.7794 48.8623 34.1854 49.2866 33.5915C49.4987 33.4218 49.7108 33.2521 49.923 33.0824C51.1957 32.0642 52.8079 31.0036 54.3352 29.8581C52.3412 31.8096 50.3472 33.6763 48.1411 35.4157ZM54.3352 34.9491C54.5473 34.6945 54.7594 34.3975 54.9715 34.143C55.0564 34.1006 55.0988 34.0157 55.1837 33.9309C54.7594 34.6521 54.2927 35.3733 53.7836 36.0521C52.8503 37.2824 51.7897 38.3855 50.5593 39.3613C51.9169 37.9188 53.1473 36.3915 54.3352 34.9491ZM53.6139 33.4642C54.0382 33.1248 54.5049 32.7854 54.9291 32.4036C54.717 32.743 54.4624 33.04 54.2503 33.3369C54.123 33.4642 53.9958 33.5915 53.8261 33.6763C53.7836 33.6339 53.7836 33.5915 53.7836 33.5066C53.7412 33.549 53.6988 33.5066 53.6139 33.4642ZM53.3594 32.3612C54.717 31.0884 56.0322 29.7732 57.3898 28.5005C57.2201 28.8399 57.0504 29.1793 56.8382 29.5187C55.7352 30.4945 54.5049 31.4278 53.3594 32.3612ZM56.2443 26.6338C55.7352 27.1853 55.1412 27.7368 54.5897 28.2459C54.0806 28.5429 53.5715 28.8823 53.0624 29.1793C54.42 27.6096 55.82 26.0398 57.2201 24.4701C57.9837 24.7247 56.6261 26.2095 56.2443 26.6338ZM57.0079 22.2216C56.9231 22.2216 56.7958 22.264 56.711 22.264C57.0079 21.2034 56.7958 20.2276 55.3958 19.8034C54.1655 19.464 52.5957 20.1428 51.5775 20.4822C51.1533 20.6094 50.729 20.7791 50.3472 20.9488H50.3048C50.2199 20.6519 50.0502 20.3973 49.7533 20.1428C49.6684 20.1003 49.5836 20.0155 49.5411 19.9731C50.3472 19.167 51.1533 18.4033 52.0442 17.7245C55.3109 17.5973 57.4322 19.2094 58.4504 21.4579C58.1534 21.7973 57.8564 22.1367 57.6019 22.4761C57.4322 22.3064 57.2625 22.1792 57.0079 22.2216ZM58.4928 24.1307C58.2807 23.961 58.0261 23.8337 57.814 23.7489C58.1534 23.3671 58.4504 23.0277 58.7898 22.6458C58.7898 22.7307 58.8322 22.7731 58.8322 22.858C58.9171 23.6216 58.8746 24.4277 58.8322 25.1913C58.7474 25.4459 58.6625 25.7429 58.5777 25.9974C58.5352 26.0398 58.4928 26.0398 58.408 26.0823C58.2383 26.2095 58.111 26.3368 57.9837 26.4641C57.8989 26.5065 57.814 26.5065 57.7292 26.5489C58.1534 25.955 58.4504 25.3186 58.6625 24.6398C58.7474 24.4701 58.7049 24.258 58.4928 24.1307ZM43.135 17.9367C46.0623 16.8336 49.7533 15.8578 53.3594 15.9427C53.1897 16.0275 53.02 16.07 52.8503 16.1548C52.723 16.2397 52.5957 16.3245 52.426 16.4094C51.4503 16.5366 50.4745 16.7912 49.5411 17.173C49.0745 17.2579 48.6502 17.3427 48.226 17.47C47.2926 17.7245 46.3593 18.1064 45.5108 18.5306C45.3835 18.2761 45.1289 18.0639 44.7471 17.8518C43.8138 17.3003 41.7774 18.7003 41.0986 19.0397C39.3591 19.9731 37.5773 20.9064 36.1773 22.2216C35.7106 22.6458 35.1591 23.1125 34.6076 23.664C36.8985 21.2034 39.6985 19.2094 43.135 17.9367ZM34.353 30.3248C34.65 30.0702 34.947 29.8581 35.2439 29.6884C36.3046 28.9672 37.4076 28.2459 38.4682 27.4823C38.5106 27.4823 38.5107 27.5247 38.5531 27.5247C37.1106 28.5005 35.7106 29.5187 34.353 30.5793C34.353 30.4945 34.353 30.4096 34.353 30.3248ZM34.7348 34.0157C34.8197 34.143 34.9469 34.2279 35.1166 34.2703C35.3288 34.3127 35.4985 34.3551 35.6682 34.3551C34.353 35.2036 33.0378 36.0521 31.7227 36.943C32.0196 36.4764 32.3166 35.9673 32.5712 35.4582C33.2924 34.9915 34.0136 34.4824 34.7348 34.0157ZM30.4923 24.5974C30.5772 24.0034 30.6196 23.3671 30.6196 22.7731C30.6196 23.7913 30.5772 24.7671 30.4499 25.7429C30.4499 25.9126 30.4075 26.0823 30.3651 26.2944C30.3651 26.0398 30.3651 25.7853 30.3226 25.5307C30.4499 25.1913 30.4923 24.8944 30.4923 24.5974ZM33.1651 31.2581C33.1227 31.3854 33.1227 31.5127 33.0803 31.5975C32.7833 31.8096 32.4863 32.0218 32.1469 32.2339C31.256 32.8278 30.3651 33.549 29.4317 34.2278C29.4317 34.143 29.4317 34.1006 29.4317 34.0157C29.559 33.8036 29.6438 33.6339 29.7287 33.4218C30.959 32.8278 32.1045 32.0218 33.1651 31.2581ZM29.0923 17.5973C29.1772 17.6821 29.2196 17.8094 29.3044 17.8942C29.4317 18.7852 29.5166 19.6337 29.559 20.5246C29.4317 19.9306 29.262 19.3367 29.0923 18.7427C29.0923 18.3609 29.0923 17.9791 29.0923 17.5973ZM28.6256 38.937C28.9226 38.5128 29.262 38.0885 29.6014 37.7067C29.856 37.4946 30.1105 37.2824 30.4075 37.0703C30.3226 37.1976 30.2378 37.3673 30.1529 37.4946C29.9832 37.7915 29.8135 38.0885 29.6438 38.3855C29.1772 38.7249 28.7529 39.0219 28.3287 39.3613C28.4135 39.234 28.5408 39.1067 28.6256 38.937ZM28.159 43.6038C29.4317 42.628 30.7045 41.6946 31.9772 40.7613C31.8075 40.9734 31.6802 41.1855 31.5105 41.3977C30.3651 42.1613 29.2196 42.925 28.1165 43.6886C28.1165 43.6886 28.1165 43.6462 28.159 43.6038ZM25.9953 47.5493C26.3771 46.9129 26.7165 46.2765 27.0983 45.6402C28.0317 44.9614 28.965 44.325 29.8984 43.6462C29.4317 44.325 29.0075 45.0038 28.6681 45.725C28.5408 45.8099 28.4135 45.8947 28.2862 45.9796C27.4802 46.4887 26.7165 46.9978 25.9953 47.5493ZM29.262 53.107C29.1772 53.1918 29.1772 53.2767 29.1772 53.3615C29.0499 53.3191 28.9226 53.3191 28.7953 53.4464C27.7347 54.2524 26.6317 54.9737 25.4862 55.6949C25.6559 55.5676 25.7832 55.4403 25.9529 55.3131C27.2256 54.3373 28.4984 53.4039 29.856 52.4706C29.6438 52.6827 29.4317 52.8948 29.262 53.107ZM34.5651 48.016C31.8499 49.6281 29.0499 51.113 26.5044 52.8948C26.0377 53.107 25.5286 53.3191 25.0619 53.5312C28.1165 51.1978 31.4257 49.1614 34.8197 47.1675C34.6924 47.4644 34.6076 47.719 34.5651 48.016ZM34.3106 45.9796C32.9954 46.7432 31.5954 47.4644 30.2378 48.1857C31.4681 46.9129 32.4863 45.428 33.5469 44.0704C34.0136 43.8159 34.4803 43.5613 34.9894 43.3068C34.8197 43.4765 34.6076 43.6462 34.3954 43.8583C34.0136 44.1977 34.7348 44.8765 35.1166 44.5371C35.1591 44.4947 35.1591 44.4947 35.2015 44.4523C35.2439 44.4098 35.2439 44.4098 35.2864 44.3674C35.9651 43.7735 36.6015 43.1795 37.2379 42.5431C37.45 42.3734 37.6621 42.1613 37.8318 41.9916C37.9591 42.0765 38.0864 42.1613 38.2561 42.1189C37.8318 42.628 37.4076 43.1371 36.9833 43.6462C36.6439 44.0704 36.3046 44.4947 35.9651 44.9614C35.4561 45.3008 34.9045 45.6826 34.3106 45.9796ZM36.6864 47.125C36.5167 46.9978 36.3046 46.9553 36.0924 47.0826C35.9651 47.1675 35.8379 47.2523 35.6682 47.3372C35.753 47.0402 35.9227 46.7008 36.0924 46.4038C36.9833 45.8947 37.9167 45.3856 38.8076 44.8765C38.8925 44.8341 38.9349 44.7492 38.9773 44.7068C39.2743 44.7492 39.5713 44.7917 39.9107 44.7917C38.85 45.5553 37.7894 46.319 36.6864 47.125ZM39.444 47.422C39.5713 47.2947 39.6985 47.2099 39.8258 47.0826C40.1228 46.7856 39.7834 46.4038 39.444 46.319C40.2925 45.725 41.0986 45.0886 41.9471 44.4947C42.7956 44.325 43.5592 44.028 44.3229 43.6886C43.5168 44.3674 42.7107 45.0038 41.9046 45.6402C41.0986 46.319 40.2501 46.8705 39.444 47.422ZM43.6441 45.5129C44.9592 44.4523 46.232 43.3492 47.5047 42.2886C48.6926 41.7371 49.8381 41.1007 50.8987 40.3795C48.5654 42.1613 46.1047 43.8583 43.6441 45.5129ZM58.5352 33.04C56.6685 35.3733 54.5049 37.4097 52.2139 39.3188C52.3412 39.1916 52.4685 39.1067 52.5957 38.9794C54.8867 36.7733 56.5837 34.143 57.8564 31.2581C59.6383 29.1369 61.0807 26.5914 62.0141 24.0883C62.2686 23.3671 62.4808 22.561 62.5232 21.7125C62.7777 22.858 62.8202 24.0034 62.6929 25.0641C62.2686 28.0762 60.3595 30.749 58.5352 33.04Z" fill="#F7941D"/>
</svg>
