<svg width="46" height="47" viewBox="0 0 46 47" fill="none" xmlns="http://www.w3.org/2000/svg">
<path d="M22.6553 0.937901C8.15527 -0.136185 -1.34473 10.4379 0.155273 23.4379C1.65527 36.4379 10.6553 47.4379 22.6553 45.9379C34.6553 44.4379 45.1553 35.8643 45.1553 23.4379C45.1553 11.0115 37.1553 2.01199 22.6553 0.937901Z" fill="#FF0076"/>
<path d="M26.972 36.1918L18.4846 36.2804C13.4487 36.3329 9.31186 32.3992 9.25786 27.5109L9.16655 19.2662C9.11254 14.3792 13.1621 10.3605 18.1979 10.308L26.6852 10.2193C31.7159 10.1669 35.8541 14.1006 35.9082 18.9876L35.9994 27.2323C36.0521 32.1206 32.0013 36.1393 26.972 36.1918ZM18.3457 12.1219C14.2731 12.1644 10.9926 15.4185 11.0363 19.3698L11.1238 27.366C11.1675 31.3223 14.5187 34.5041 18.5914 34.4616L26.8228 34.3767C30.8915 34.3342 34.1695 31.0837 34.1257 27.1274L34.0384 19.1312C33.9946 15.1787 30.6447 11.9945 26.5772 12.0369L18.3457 12.1219Z" fill="white"/>
<path d="M22.5858 29.2848C19.1601 29.2848 16.3721 26.5775 16.3721 23.2494C16.3721 19.9213 19.1588 17.2129 22.5858 17.2129C26.0142 17.2129 28.7984 19.92 28.7984 23.2494C28.7984 26.5775 26.0142 29.2848 22.5858 29.2848ZM22.5858 18.9619C20.1541 18.9619 18.1725 20.8857 18.1725 23.2494C18.1725 25.6105 20.1541 27.5357 22.5858 27.5357C25.0176 27.5357 26.9993 25.6105 26.9993 23.2494C26.9993 20.8857 25.0176 18.9619 22.5858 18.9619Z" fill="white"/>
<path d="M27.9277 17.0319C27.9277 16.2848 28.5488 15.6813 29.3178 15.6813C30.0869 15.6813 30.708 16.2848 30.708 17.0319C30.708 17.779 30.0869 18.3812 29.3178 18.3812C28.5488 18.38 27.9277 17.7777 27.9277 17.0319Z" fill="white"/>
</svg>
