<svg width="196" height="56" viewBox="0 0 196 56" fill="none" xmlns="http://www.w3.org/2000/svg">
<path d="M72.2058 44.063V50.9129C72.2058 51.3797 72.231 51.9726 72.2562 52.351H71.3858L71.3227 51.4427H71.2849C71.02 52.0104 70.4018 52.4645 69.5819 52.4645C68.3204 52.4645 67.3743 51.3418 67.3743 49.5757C67.3743 47.6456 68.4465 46.5608 69.6702 46.5608C70.4145 46.5608 70.9443 46.9014 71.184 47.3555H71.2092V44.063H72.2058ZM71.2092 48.9324C71.2092 48.8062 71.1966 48.6422 71.1714 48.5161C71.0452 47.8853 70.5532 47.3555 69.872 47.3555C68.9007 47.3555 68.3708 48.3142 68.3708 49.5379C68.3708 50.6985 68.8628 51.6572 69.8468 51.6572C70.4145 51.6572 70.9569 51.2914 71.1587 50.5092C71.1966 50.3831 71.2092 50.2443 71.2092 50.0803V48.9324Z" fill="#F48120"/>
<path d="M78.425 49.4622C78.425 51.5941 77.1005 52.4519 75.8768 52.4519C74.4892 52.4519 73.4043 51.3796 73.4043 49.5253C73.4043 47.5699 74.5523 46.5355 75.9525 46.5355C77.4032 46.5481 78.425 47.6709 78.425 49.4622ZM74.4261 49.5126C74.4261 50.6606 74.9812 51.695 75.9273 51.695C76.8608 51.695 77.4158 50.648 77.4158 49.4874C77.4158 48.5539 77.0248 47.3176 75.9273 47.3176C74.8298 47.3176 74.4261 48.5034 74.4261 49.5126Z" fill="#F48120"/>
<path d="M79.6362 48.3395C79.6362 47.734 79.6109 47.1537 79.5857 46.6617H80.4561L80.5066 47.7214H80.5444C80.7841 47.0275 81.3644 46.5608 81.9951 46.5608C82.0961 46.5608 82.1718 46.5608 82.2474 46.586V47.5448C82.1591 47.5195 82.0708 47.5195 81.9573 47.5195C81.2761 47.5195 80.7841 48.062 80.658 48.7936C80.6327 48.945 80.6201 49.109 80.6201 49.2856V52.351H79.6362V48.3395Z" fill="#F48120"/>
<path d="M87.7226 49.4622C87.7226 51.5941 86.3981 52.4519 85.1744 52.4519C83.7868 52.4519 82.7019 51.3796 82.7019 49.5253C82.7019 47.5699 83.8499 46.5355 85.2501 46.5355C86.7008 46.5481 87.7226 47.6709 87.7226 49.4622ZM83.7111 49.5126C83.7111 50.6606 84.2661 51.695 85.2123 51.695C86.1458 51.695 86.7008 50.648 86.7008 49.4874C86.7008 48.5539 86.3098 47.3176 85.2123 47.3176C84.1274 47.3176 83.7111 48.5034 83.7111 49.5126Z" fill="#F48120"/>
<path d="M93.3486 51.5437C93.3486 52.9187 93.0963 53.6377 92.6169 54.1045C92.1249 54.5712 91.4059 54.7604 90.7121 54.7604C90.0939 54.7604 89.4254 54.6091 89.0091 54.3442L89.2614 53.5746C89.5893 53.7765 90.1192 53.9657 90.7373 53.9657C91.696 53.9657 92.3646 53.4485 92.3646 52.0609V51.4427H92.3394C92.0745 51.9473 91.5068 52.3258 90.7499 52.3258C89.4632 52.3258 88.5549 51.14 88.5549 49.5379C88.5549 47.57 89.7155 46.5482 90.8761 46.5482C91.7465 46.5482 92.2006 47.0149 92.4403 47.4438H92.4655L92.516 46.6617H93.3864C93.3612 47.0654 93.336 47.5447 93.336 48.289V51.5437H93.3486ZM92.3646 48.8188C92.3646 48.6548 92.352 48.5035 92.3142 48.3773C92.1502 47.8349 91.7339 47.3555 91.0401 47.3555C90.157 47.3555 89.5641 48.2007 89.5641 49.5C89.5641 50.7237 90.1066 51.5689 91.0401 51.5689C91.5699 51.5689 92.0745 51.2535 92.2889 50.5849C92.352 50.4083 92.3646 50.2191 92.3646 50.0425V48.8188Z" fill="#F48120"/>
<path d="M98.6344 51.0012C98.6344 51.468 98.647 51.9474 98.7227 52.3384H97.8271L97.7388 51.6572H97.7009C97.4108 52.0861 96.8683 52.4519 96.1367 52.4519C95.1149 52.4519 94.522 51.6824 94.522 50.8246C94.522 49.437 95.7078 48.7179 97.6379 48.7306V48.5918C97.6379 48.0367 97.4865 47.2925 96.4647 47.3051C95.9853 47.3051 95.5059 47.4438 95.1527 47.6835L94.9256 47.0149C95.3293 46.7626 95.9601 46.5608 96.6287 46.5608C98.1803 46.5608 98.6218 47.6204 98.6218 48.7936V51.0012H98.6344ZM97.6631 49.4244C96.7296 49.4118 95.5186 49.5758 95.5186 50.7111C95.5186 51.4049 95.9348 51.6951 96.4016 51.6951C97.0449 51.6951 97.4865 51.2788 97.6252 50.7742C97.6631 50.6732 97.6757 50.5471 97.6757 50.4462V49.4244H97.6631Z" fill="#F48120"/>
<path d="M102.545 48.8315V49.5757H99.7444V48.8315H102.545Z" fill="#F48120"/>
<path d="M103.1 51.7581L105.434 48.3647C105.661 48.0619 105.863 47.7718 106.09 47.4816V47.4564H103.315V46.6617H107.263V47.2924L104.954 50.6354C104.74 50.9381 104.526 51.2409 104.311 51.5184V51.5436H107.301V52.3384H103.1V51.7581Z" fill="#F48120"/>
<path d="M108.31 44.063H109.294V47.469H109.319C109.47 47.2167 109.71 46.9771 109.975 46.8131C110.253 46.6617 110.58 46.5608 110.946 46.5608C111.691 46.5608 112.725 47.0527 112.725 48.8567V52.351H111.741V48.9702C111.741 48.1124 111.451 47.3807 110.593 47.3807C110 47.3807 109.533 47.8096 109.357 48.3773C109.306 48.5035 109.294 48.6675 109.294 48.8441V52.3384H108.31V44.063Z" fill="#F48120"/>
<path d="M115.387 45.0974C115.387 45.4506 115.147 45.7156 114.768 45.7156C114.415 45.7156 114.176 45.4506 114.176 45.0974C114.176 44.7316 114.428 44.4667 114.781 44.4667C115.147 44.4667 115.387 44.7316 115.387 45.0974ZM114.302 52.3384V46.649H115.286V52.3384H114.302Z" fill="#F48120"/>
<path d="M116.282 51.7581L118.616 48.3647C118.843 48.0619 119.045 47.7718 119.272 47.4816V47.4564H116.497V46.6617H120.445V47.2924L118.137 50.6354C117.922 50.9381 117.708 51.2409 117.493 51.5184V51.5436H120.483V52.3384H116.282V51.7581Z" fill="#F48120"/>
<path d="M121.48 48.1755C121.48 47.57 121.455 47.1285 121.429 46.6617H122.3L122.363 47.5321H122.388C122.653 47.0275 123.259 46.5608 124.091 46.5608C124.861 46.5608 125.895 47.0654 125.895 48.8441V52.351H124.911V48.9702C124.911 48.125 124.634 47.3808 123.763 47.3808C123.17 47.3808 122.691 47.8097 122.527 48.4026C122.489 48.5287 122.464 48.7053 122.464 48.8819V52.351H121.48V48.1755Z" fill="#F48120"/>
<path d="M128.569 45.0974C128.569 45.4506 128.33 45.7156 127.951 45.7156C127.598 45.7156 127.358 45.4506 127.358 45.0974C127.358 44.7316 127.611 44.4667 127.964 44.4667C128.317 44.4667 128.569 44.7316 128.569 45.0974ZM127.472 52.3384V46.649H128.456V52.3384H127.472Z" fill="#F48120"/>
<path d="M129.843 51.7455C129.843 51.3166 130.121 51.0138 130.512 51.0138C130.916 51.0138 131.18 51.304 131.18 51.7455C131.18 52.1618 130.928 52.4645 130.499 52.4645C130.133 52.4645 129.843 52.1492 129.843 51.7455Z" fill="#F48120"/>
<path d="M137.072 49.4622C137.072 51.5941 135.747 52.4519 134.524 52.4519C133.136 52.4519 132.051 51.3796 132.051 49.5253C132.051 47.5699 133.199 46.5355 134.599 46.5355C136.05 46.5481 137.072 47.6709 137.072 49.4622ZM133.06 49.5126C133.06 50.6606 133.615 51.695 134.561 51.695C135.495 51.695 136.05 50.648 136.05 49.4874C136.05 48.5539 135.659 47.3176 134.561 47.3176C133.477 47.3176 133.06 48.5034 133.06 49.5126Z" fill="#F48120"/>
<path d="M138.283 48.3395C138.283 47.734 138.257 47.1537 138.232 46.6617H139.103L139.153 47.7214H139.191C139.431 47.0275 140.011 46.5608 140.642 46.5608C140.743 46.5608 140.818 46.5608 140.894 46.586V47.5448C140.806 47.5195 140.717 47.5195 140.604 47.5195C139.923 47.5195 139.431 48.062 139.304 48.7936C139.279 48.945 139.267 49.109 139.267 49.2856V52.351H138.283V48.3395Z" fill="#F48120"/>
<path d="M146.154 51.5437C146.154 52.9187 145.902 53.6377 145.423 54.1045C144.931 54.5712 144.212 54.7604 143.518 54.7604C142.9 54.7604 142.231 54.6091 141.815 54.3442L142.067 53.5746C142.395 53.7765 142.925 53.9657 143.543 53.9657C144.502 53.9657 145.171 53.4485 145.171 52.0609V51.4427H145.145C144.88 51.9473 144.313 52.3258 143.556 52.3258C142.269 52.3258 141.361 51.14 141.361 49.5379C141.361 47.57 142.521 46.5482 143.682 46.5482C144.552 46.5482 145.007 47.0149 145.246 47.4438H145.271L145.322 46.6617H146.192C146.167 47.0654 146.142 47.5447 146.142 48.289V51.5437H146.154ZM145.158 48.8188C145.158 48.6548 145.145 48.5035 145.107 48.3773C144.943 47.8349 144.527 47.3555 143.833 47.3555C142.95 47.3555 142.357 48.2007 142.357 49.5C142.357 50.7237 142.9 51.5689 143.833 51.5689C144.363 51.5689 144.868 51.2535 145.082 50.5849C145.145 50.4083 145.158 50.2191 145.158 50.0425V48.8188Z" fill="#F48120"/>
<path d="M77.832 35.2957V40.2407H75.4604V37.5411H69.0142V40.2407H66.6426V35.2957H67.8158C68.3708 34.0721 68.8123 32.7223 69.0899 31.1202C69.5188 28.7233 69.6197 24.3838 69.6197 21.331V20.0569H76.4065V35.2831H77.832V35.2957ZM71.9534 22.3024V23.6774C71.9534 27.9286 71.6759 30.3507 71.3984 31.8897C71.1966 33.0881 70.919 34.1351 70.3514 35.4092H73.8961V22.3024H71.9534Z" fill="#5F913F"/>
<path d="M79.1943 24.6487C79.1943 23.3242 79.2953 22.05 80.4937 20.9273C81.2379 20.2335 82.2724 19.8046 83.5591 19.8046C84.8584 19.8046 85.8802 20.2335 86.6245 20.9273C87.8229 22.05 87.9238 23.3242 87.9238 24.6487V32.9367C87.9238 34.2613 87.8229 35.5354 86.6245 36.6581C85.8802 37.3519 84.8458 37.7808 83.5591 37.7808C82.2597 37.7808 81.2379 37.3519 80.4937 36.6581C79.2953 35.5354 79.1943 34.2613 79.1943 32.9367V24.6487ZM85.4387 24.2829C85.4387 23.7531 85.3883 23.2358 84.9089 22.7565C84.6314 22.479 84.1898 22.2519 83.5591 22.2519C82.941 22.2519 82.4868 22.479 82.2093 22.7565C81.7299 23.2358 81.6795 23.7531 81.6795 24.2829V33.3278C81.6795 33.8576 81.7299 34.3748 82.2093 34.8542C82.4868 35.1317 82.9283 35.3588 83.5591 35.3588C84.1772 35.3588 84.6314 35.1317 84.9089 34.8542C85.3883 34.3748 85.4387 33.8576 85.4387 33.3278V24.2829Z" fill="#5F913F"/>
<path d="M90.6865 20.0569H94.4079C95.4802 20.0569 96.8047 20.1074 97.9022 21.2049C99.0502 22.3781 99.1763 23.9045 99.1763 25.2038V25.7084C99.1763 26.6797 99.0754 28.1304 98.1041 29.2532C97.0823 30.4264 95.7325 30.6282 94.6602 30.6282H93.1843V37.5412H90.6865V20.0569ZM93.1843 28.3701H94.5341C95.0134 28.3701 95.682 28.2944 96.2119 27.7268C96.7417 27.1465 96.6912 26.5536 96.6912 25.9228V24.7749C96.6912 24.182 96.7164 23.3242 96.0226 22.7565C95.4423 22.2771 94.7485 22.3024 94.0799 22.3024H93.2095V28.3701H93.1843Z" fill="#5F913F"/>
<path d="M101.17 24.6487C101.17 23.3242 101.271 22.05 102.469 20.9273C103.213 20.2335 104.248 19.8046 105.534 19.8046C106.821 19.8046 107.856 20.2335 108.6 20.9273C109.798 22.05 109.899 23.3242 109.899 24.6487V32.9367C109.899 34.2613 109.798 35.5354 108.6 36.6581C107.856 37.3519 106.821 37.7808 105.534 37.7808C104.248 37.7808 103.213 37.3519 102.469 36.6581C101.271 35.5354 101.17 34.2613 101.17 32.9367V24.6487ZM107.414 24.2829C107.414 23.7531 107.364 23.2358 106.884 22.7565C106.607 22.479 106.165 22.2519 105.534 22.2519C104.916 22.2519 104.462 22.479 104.185 22.7565C103.705 23.2358 103.655 23.7531 103.655 24.2829V33.3278C103.655 33.8576 103.705 34.3748 104.185 34.8542C104.462 35.1317 104.904 35.3588 105.534 35.3588C106.153 35.3588 106.607 35.1317 106.884 34.8542C107.364 34.3748 107.414 33.8576 107.414 33.3278V24.2829Z" fill="#5F913F"/>
<path d="M112.662 20.0569H120.256V22.4285H115.16V37.5412H112.662V20.0569Z" fill="#5F913F"/>
<path d="M125.768 37.5412L124.948 33.7945H121.757L120.937 37.5412H118.439L122.262 20.0569H124.457L128.279 37.5412H125.768ZM123.296 24.9263L121.997 31.5743H124.646L123.296 24.9263Z" fill="#5F913F"/>
<path d="M144.59 27.5502C144.943 27.5502 145.259 27.3988 145.511 27.0203C145.839 26.5662 145.94 25.9481 146.066 24.7244L146.242 23.1476C146.343 22.2014 146.495 21.1544 147.239 20.4984C147.958 19.8803 148.917 19.8551 149.56 19.8551H150.014V22.1005H149.611C149.409 22.1005 149.131 22.2267 148.967 22.3781C148.69 22.6303 148.589 23.0971 148.463 24.2198L148.286 25.8976C148.21 26.5662 148.16 27.1969 147.933 27.7646C147.782 28.1178 147.63 28.3197 147.378 28.4837L149.976 37.5285H147.252L145.132 29.6821H143.656V37.5285H141.159V29.6821H139.683L137.563 37.5285H134.839L137.437 28.4837C137.185 28.307 137.034 28.1052 136.882 27.7646C136.655 27.1843 136.605 26.5662 136.529 25.8976L136.352 24.2198C136.226 23.0971 136.125 22.6177 135.848 22.3781C135.671 22.2267 135.394 22.1005 135.204 22.1005H134.801V19.8551H135.255C135.898 19.8551 136.857 19.8803 137.576 20.4984C138.32 21.1418 138.472 22.2014 138.573 23.1476L138.749 24.7244C138.875 25.9481 138.976 26.5662 139.304 27.0203C139.557 27.3988 139.885 27.5502 140.225 27.5502H141.146V20.0569H143.644V27.5502H144.59Z" fill="#5F913F"/>
<path d="M154.581 20.0569V30.7922L158.706 22.0501V20.0569H161.204V37.5412H158.706V26.8059L154.581 35.548V37.5412H152.083V20.0569H154.581Z" fill="#5F913F"/>
<path d="M163.449 23.4503C163.449 22.7565 163.601 21.5581 164.774 20.6498C165.354 20.1957 166.25 19.8046 167.549 19.8046C168.546 19.8046 169.643 20.0317 170.425 20.5993C170.879 20.9273 171.8 21.7725 171.8 23.4503V24.9262C171.8 25.8471 171.75 26.8185 171.056 27.6511C170.778 27.9538 170.413 28.2566 170.059 28.4458C170.778 28.8242 171.132 29.2405 171.308 29.5433C171.762 30.2876 171.813 31.0445 171.813 31.7887V33.8324C171.813 34.8037 171.687 35.8507 170.715 36.759C169.795 37.6042 168.647 37.7808 167.524 37.7808C166.603 37.7808 165.455 37.6547 164.547 36.8347C164.37 36.6833 163.474 35.8129 163.474 34.3117V32.6844H165.972V33.681C165.972 34.0594 166.124 34.6019 166.376 34.8794C166.679 35.2074 167.272 35.3335 167.675 35.3335C168.293 35.3335 168.672 35.1569 168.874 34.9551C169.328 34.5262 169.328 34.009 169.328 33.4539V31.9023C169.328 31.4229 169.277 30.4011 168.659 29.9091C168.483 29.7577 168.079 29.5307 167.335 29.5307H166.59V27.2852H167.259C167.902 27.2852 168.508 27.0582 168.861 26.6797C169.315 26.1751 169.34 25.4561 169.34 25.1281V24.0054C169.34 23.6269 169.34 23.034 168.836 22.6051C168.558 22.378 168.142 22.2267 167.612 22.2267C167.133 22.2267 166.742 22.4033 166.464 22.6808C166.035 23.0845 165.985 23.5764 165.985 23.9549V25.0019H163.487V23.4503H163.449Z" fill="#5F913F"/>
<path d="M177.035 20.0569V27.5754H180.404V20.0569H182.901V37.5412H180.404V29.8208H177.035V37.5412H174.538V20.0569H177.035Z" fill="#5F913F"/>
<path d="M188.389 20.0569V30.7922L192.514 22.0501V20.0569H195.012V37.5412H192.514V26.8059L188.389 35.548V37.5412H185.891V20.0569H188.389Z" fill="#5F913F"/>
<path d="M72.7857 3.83411V5.08298H70.0861V7.56811H70.7295C71.2467 7.56811 71.9657 7.54288 72.5713 8.09794C73.1389 8.62776 73.1389 9.28374 73.1389 9.62434V10.7092C73.1389 11.1634 73.1137 11.668 72.7605 12.1978C72.5082 12.5636 71.991 13.0682 70.7799 13.0682H68.7742V3.83411H72.7857ZM70.0861 11.895H70.679C70.8682 11.895 71.2971 11.8698 71.5747 11.4913C71.7513 11.2517 71.8144 10.848 71.8144 10.5326V10.028C71.8144 9.57388 71.7513 9.25851 71.4611 9.00621C71.2467 8.8296 71.0575 8.76653 70.7547 8.76653H70.0861V11.895Z" fill="#5F913F"/>
<path d="M78.8154 13.0808H77.4909V5.01991H76.4438L76.406 6.31924C76.3555 7.93395 76.3429 8.67822 76.2924 9.40989C76.2294 10.3812 76.1411 10.8732 76.0906 11.1255C76.0023 11.5796 75.8635 12.0086 75.4599 12.4627C74.9679 12.9925 74.4507 13.0808 73.9082 13.0808H73.6055V11.8193H73.7568C73.883 11.8193 74.0722 11.8067 74.2741 11.6932C74.5894 11.504 74.7156 11.176 74.7408 11.0877C74.8922 10.6209 74.9805 9.28374 75.0057 8.81699C75.0436 8.08532 75.0814 7.50504 75.094 6.31924L75.1319 3.83411H78.828V13.0808H78.8154Z" fill="#5F913F"/>
<path d="M83.6216 13.0808L83.1801 11.1003H81.4897L81.0482 13.0808H79.7236L81.742 3.83411H82.9026L84.921 13.0808H83.6216ZM82.3223 6.40754L81.6411 9.9271H83.0413L82.3223 6.40754Z" fill="#5F913F"/>
<path d="M85.8293 3.83411H89.8408V5.08298H87.1412V13.0682H85.8167V3.83411H85.8293Z" fill="#5F913F"/>
<path d="M90.1941 6.25617C90.1941 5.56235 90.2446 4.88114 90.8753 4.28824C91.2664 3.92241 91.8088 3.69534 92.5026 3.69534C93.1838 3.69534 93.7263 3.92241 94.1299 4.28824C94.7607 4.88114 94.8111 5.56235 94.8111 6.25617V10.6461C94.8111 11.34 94.7607 12.0212 94.1299 12.6141C93.7389 12.9799 93.1964 13.207 92.5026 13.207C91.8214 13.207 91.279 12.9799 90.8753 12.6141C90.2446 12.0212 90.1941 11.34 90.1941 10.6461V6.25617ZM93.4866 6.06694C93.4866 5.78941 93.4613 5.51189 93.209 5.25959C93.0577 5.10821 92.8306 4.99468 92.49 4.99468C92.162 4.99468 91.9223 5.10821 91.771 5.25959C91.5187 5.51189 91.4934 5.78941 91.4934 6.06694V10.848C91.4934 11.1255 91.5187 11.403 91.771 11.6553C91.9223 11.8067 92.1494 11.9203 92.49 11.9203C92.818 11.9203 93.0577 11.8067 93.209 11.6553C93.4613 11.403 93.4866 11.1255 93.4866 10.848V6.06694Z" fill="#5F913F"/>
<path d="M99.8195 3.83411V5.08298H98.1796V13.0682H96.855V5.08298H95.2151V3.83411H99.8195Z" fill="#5F913F"/>
<path d="M102.431 3.83411C102.822 3.83411 103.591 3.87195 104.172 4.28824C105.004 4.88114 105.017 5.87772 105.017 6.42016C105.017 7.02567 104.966 7.45458 104.626 7.85826C104.449 8.07271 104.26 8.19886 104.121 8.28716C104.474 8.45116 104.638 8.66561 104.752 8.86745C105.017 9.3342 105.017 9.5865 105.017 10.028V10.7218C105.017 11.1003 105.017 12.059 104.222 12.6519C103.932 12.879 103.44 13.0934 102.645 13.0934H100.639V3.83411H102.431ZM101.977 7.65642H102.607C103.061 7.65642 103.326 7.46719 103.453 7.31582C103.617 7.12659 103.705 6.81122 103.705 6.52108V5.95341C103.705 5.71373 103.604 5.47404 103.453 5.32266C103.289 5.15867 103.024 5.01991 102.595 5.01991H101.977V7.65642ZM101.977 11.895H102.569C102.771 11.895 103.188 11.8698 103.465 11.4913C103.692 11.1886 103.705 10.7092 103.705 10.5578V10.1037C103.705 9.64957 103.642 9.3342 103.352 9.0819C103.137 8.90529 102.948 8.84222 102.645 8.84222H101.977V11.895Z" fill="#5F913F"/>
<path d="M106.341 6.25617C106.341 5.56235 106.392 4.88114 107.023 4.28824C107.414 3.92241 107.956 3.69534 108.65 3.69534C109.331 3.69534 109.873 3.92241 110.277 4.28824C110.908 4.88114 110.958 5.56235 110.958 6.25617V10.6461C110.958 11.34 110.908 12.0212 110.277 12.6141C109.886 12.9799 109.344 13.207 108.65 13.207C107.969 13.207 107.426 12.9799 107.023 12.6141C106.392 12.0212 106.341 11.34 106.341 10.6461V6.25617ZM109.646 6.06694C109.646 5.78941 109.621 5.51189 109.369 5.25959C109.218 5.10821 108.99 4.99468 108.65 4.99468C108.322 4.99468 108.082 5.10821 107.931 5.25959C107.678 5.51189 107.653 5.78941 107.653 6.06694V10.848C107.653 11.1255 107.678 11.403 107.931 11.6553C108.082 11.8067 108.309 11.9203 108.65 11.9203C108.978 11.9203 109.218 11.8067 109.369 11.6553C109.621 11.403 109.646 11.1255 109.646 10.848V6.06694Z" fill="#5F913F"/>
<path d="M112.422 3.83411H114.389C114.957 3.83411 115.664 3.85934 116.244 4.43962C116.849 5.05775 116.912 5.8651 116.912 6.55892V6.82384C116.912 7.34105 116.862 8.11055 116.345 8.70345C115.802 9.32158 115.096 9.43512 114.516 9.43512H113.734V13.0934H112.409V3.83411H112.422ZM113.734 8.22409H114.453C114.705 8.22409 115.058 8.18624 115.336 7.88349C115.613 7.58073 115.588 7.26536 115.588 6.93737V6.33185C115.588 6.01648 115.6 5.56235 115.235 5.25959C114.932 5.00729 114.566 5.01991 114.2 5.01991H113.734V8.22409Z" fill="#5F913F"/>
<path d="M119.423 3.83411V9.51081L121.605 4.89376V3.83411H122.93V13.0808H121.605V7.40412L119.423 12.0212V13.0808H118.098V3.83411H119.423Z" fill="#5F913F"/>
<path d="M128.342 3.83411V5.08298H126.702V13.0682H125.39V5.08298H123.75V3.83411H128.342Z" fill="#5F913F"/>
<path d="M129.174 3.83411H133.098V5.08298H130.499V7.8078H132.795V8.9936H130.499V11.8193H133.135V13.0682H129.174V3.83411Z" fill="#5F913F"/>
<path d="M138.762 13.0808H137.437V5.01991H136.377L136.34 6.31924C136.289 7.93395 136.276 8.67822 136.226 9.40989C136.163 10.3812 136.075 10.8732 136.024 11.1255C135.936 11.5796 135.797 12.0086 135.393 12.4627C134.901 12.9925 134.384 13.0808 133.842 13.0808H133.539V11.8193H133.69C133.817 11.8193 134.006 11.8067 134.208 11.6932C134.523 11.504 134.649 11.176 134.674 11.0877C134.826 10.6209 134.914 9.28374 134.939 8.81699C134.977 8.08532 135.015 7.50504 135.028 6.31924L135.065 3.83411H138.762V13.0808Z" fill="#5F913F"/>
<path d="M141.663 3.83411V7.56811H142.307C142.824 7.56811 143.543 7.54288 144.148 8.09794C144.716 8.62776 144.716 9.28374 144.716 9.62434V10.7092C144.716 11.1634 144.691 11.668 144.338 12.1978C144.085 12.5636 143.568 13.0682 142.357 13.0682H140.351V3.83411H141.663ZM141.663 11.895H142.256C142.597 11.895 143.392 11.8193 143.392 10.52V10.0154C143.392 9.56127 143.328 9.24589 143.038 8.9936C142.824 8.81699 142.635 8.75391 142.332 8.75391H141.663V11.895Z" fill="#5F913F"/>
<path d="M147.352 3.83411V7.8078H149.131V3.83411H150.455V13.0808H149.131V8.9936H147.352V13.0808H146.028V3.83411H147.352Z" fill="#5F913F"/>
<path d="M153.357 3.83411V7.56811H154C154.517 7.56811 155.236 7.54288 155.842 8.09794C156.41 8.62776 156.41 9.28374 156.41 9.62434V10.7092C156.41 11.1634 156.384 11.668 156.031 12.1978C155.779 12.5636 155.262 13.0682 154.051 13.0682H152.045V3.83411H153.357ZM153.357 11.895H153.95C154.29 11.895 155.085 11.8193 155.085 10.52V10.0154C155.085 9.56127 155.022 9.24589 154.732 8.9936C154.517 8.81699 154.328 8.75391 154.025 8.75391H153.357V11.895ZM158.807 3.83411V13.0808H157.482V3.83411H158.807Z" fill="#5F913F"/>
<path d="M161.708 3.83411V9.51081L163.89 4.89376V3.83411H165.215V13.0808H163.89V7.40413L161.708 12.0212V13.0808H160.383V3.83411H161.708ZM164.42 1.76527C164.42 2.2951 164.218 2.6357 164.029 2.82492C163.764 3.07722 163.323 3.19075 162.818 3.19075C162.301 3.19075 161.872 3.07722 161.607 2.82492C161.405 2.6357 161.216 2.2951 161.216 1.76527V1.61389H162.276V1.72743C162.276 1.82834 162.288 1.97972 162.44 2.09326C162.553 2.19418 162.692 2.20679 162.831 2.20679C162.969 2.20679 163.108 2.19418 163.222 2.09326C163.373 1.97972 163.386 1.82834 163.386 1.72743V1.61389H164.445V1.76527H164.42Z" fill="#5F913F"/>
<path d="M173.768 4.89376H174.083C174.651 4.89376 175.357 4.91899 175.938 5.49927C176.543 6.1174 176.606 6.92475 176.606 7.61857V9.22066C176.606 9.73788 176.556 10.52 176.038 11.1003C175.446 11.7815 174.6 11.8446 174.209 11.8446H173.755V13.0934H172.431V11.8193H171.976C171.598 11.8193 170.753 11.7689 170.147 11.0751C169.63 10.4948 169.58 9.71265 169.58 9.19543V7.60596C169.58 6.92476 169.643 6.1174 170.248 5.48666C170.828 4.90637 171.535 4.88114 172.103 4.88114H172.418V3.69534H173.743V4.89376H173.768ZM172.317 6.09217C171.964 6.09217 171.585 6.07956 171.283 6.33186C170.917 6.63461 170.929 7.08875 170.929 7.40412V9.3342C170.929 9.66219 170.904 9.96494 171.182 10.2803C171.472 10.5957 171.8 10.6083 172.065 10.6083H172.443V6.09217H172.317ZM173.768 10.6083H174.146C174.411 10.6083 174.739 10.5957 175.029 10.2803C175.307 9.96494 175.282 9.66219 175.282 9.3342V7.40412C175.282 7.08875 175.294 6.63461 174.928 6.33186C174.626 6.07956 174.26 6.09217 173.894 6.09217H173.768V10.6083Z" fill="#5F913F"/>
<path d="M177.792 6.25617C177.792 5.56235 177.842 4.88114 178.473 4.28824C178.864 3.92241 179.407 3.69534 180.101 3.69534C180.782 3.69534 181.324 3.92241 181.728 4.28824C182.359 4.88114 182.409 5.56235 182.409 6.25617V10.6461C182.409 11.34 182.359 12.0212 181.728 12.6141C181.337 12.9799 180.794 13.207 180.101 13.207C179.419 13.207 178.877 12.9799 178.473 12.6141C177.842 12.0212 177.792 11.34 177.792 10.6461V6.25617ZM181.097 6.06694C181.097 5.78941 181.072 5.51189 180.82 5.25959C180.668 5.10821 180.441 4.99468 180.101 4.99468C179.773 4.99468 179.533 5.10821 179.381 5.25959C179.129 5.51189 179.104 5.78941 179.104 6.06694V10.848C179.104 11.1255 179.129 11.403 179.381 11.6553C179.533 11.8067 179.76 11.9203 180.101 11.9203C180.429 11.9203 180.668 11.8067 180.82 11.6553C181.072 11.403 181.097 11.1255 181.097 10.848V6.06694Z" fill="#5F913F"/>
<path d="M185.197 3.83411V7.8078H186.976V3.83411H188.3V13.0808H186.976V8.9936H185.197V13.0808H183.873V3.83411H185.197Z" fill="#5F913F"/>
<path d="M194.936 11.895V14.5063H193.687V13.0808H190.281V14.5063H189.032V11.895H189.65C189.94 11.2517 190.18 10.5326 190.318 9.68742C190.546 8.41331 190.596 6.1174 190.596 4.51531V3.83411H194.191V11.895H194.936ZM191.832 5.01991V5.75157C191.832 7.99702 191.681 9.28374 191.542 10.0911C191.441 10.7218 191.29 11.2769 190.987 11.9581H192.867V5.01991H191.832Z" fill="#5F913F"/>
<path d="M36.5559 37.0744C35.9504 37.0744 35.4079 37.3519 35.0673 37.7934C34.7267 37.3519 34.1843 37.0744 33.5788 37.0744C32.3425 37.0744 31.6235 38.134 31.7496 39.2063C31.901 40.5182 33.0111 40.9976 33.7806 41.704C34.4492 42.3222 35.0673 43.1926 35.0673 43.1926C35.0673 43.1926 35.6855 42.3222 36.354 41.704C37.1109 40.9976 38.2337 40.5182 38.385 39.2063C38.5112 38.134 37.7921 37.0744 36.5559 37.0744Z" fill="#F48120"/>
<path d="M34.8528 33.9963C34.4996 33.9963 34.159 34.0342 33.8184 34.0972C34.159 34.0342 34.4996 34.0089 34.8528 33.9963Z" fill="#5F913F"/>
<path d="M33.4021 34.1856V34.2234C33.5409 34.1856 33.667 34.1225 33.8058 34.0973C33.7932 34.0973 33.7805 34.0973 33.7679 34.0973L33.4021 34.1856Z" fill="#5F913F"/>
<path d="M29.4918 38.0962C29.4792 38.1466 29.4792 38.1845 29.4666 38.2349C29.5044 38.1214 29.5296 37.9952 29.5801 37.8817H29.5675C29.5296 37.9448 29.5044 38.0205 29.4918 38.0962Z" fill="#5F913F"/>
<path d="M35.042 33.9963C35.3574 33.9963 35.6727 34.0342 35.9755 34.0846C35.6601 34.0342 35.3447 33.9963 35.042 33.9963Z" fill="#5F913F"/>
<path d="M36.5433 34.2108C36.4802 34.1982 36.4298 34.1856 36.3667 34.1729C36.4928 34.2108 36.619 34.2486 36.7578 34.2991V34.2865C36.6821 34.2612 36.6064 34.236 36.5433 34.2108Z" fill="#5F913F"/>
<path d="M29.3277 38.8657C29.3151 38.954 29.3151 39.0297 29.3025 39.118C29.3025 39.0297 29.3151 38.954 29.3277 38.8657Z" fill="#5F913F"/>
<path d="M39.5328 23.8413C39.3436 23.2232 39.0156 23.0466 38.0947 22.9709C37.7163 22.9457 37.3126 23.1223 36.9089 23.2989L37.1738 23.3367C37.956 23.4503 38.7507 23.6269 39.5328 23.8413Z" fill="#5F913F"/>
<path d="M39.7097 24.7874C39.571 24.7496 39.4448 24.6991 39.3061 24.6487C38.6879 24.4721 38.0824 24.3333 37.4643 24.2324L37.3381 25.1911C37.9058 25.2794 38.4735 25.4182 39.0411 25.5822C39.3944 25.6831 39.7476 25.8093 40.0882 25.9354C39.9368 25.7083 39.798 25.456 39.7476 25.0271C39.735 24.9388 39.7223 24.8631 39.7097 24.7874Z" fill="#5F913F"/>
<path d="M27.511 27.0208C27.5238 27.0208 27.5366 27.008 27.5494 27.008L27.5366 26.9825C27.5238 26.9952 27.5238 27.008 27.511 27.0208Z" fill="#5F913F"/>
<path d="M32.4056 54.1423L32.2668 54.8235C34.8024 55.2651 36.5559 54.9497 38.1454 54.6343C38.322 54.5965 39.9998 54.0414 40.1638 53.9657C40.9585 53.6125 41.2613 53.4107 42.1191 52.8682C42.2831 52.7673 43.1157 51.9852 43.2796 51.8843C42.384 52.4015 40.4539 53.335 39.4573 53.6504C37.2371 54.3694 34.8151 54.5712 32.4056 54.1423Z" fill="#5F913F"/>
<path d="M36.5183 25.0776L36.758 23.3872C36.6697 23.4251 36.5814 23.4629 36.4931 23.5008C36.1146 23.6522 35.7866 24.0054 35.4082 24.0684C34.563 24.1946 33.9196 24.5352 33.3394 25.0902C34.3738 24.9641 35.446 24.9641 36.5183 25.0776Z" fill="#5F913F"/>
<path d="M40.0881 25.9228C40.2647 26.1751 40.454 26.3643 40.5801 26.6671L40.782 26.2003C40.5549 26.112 40.3278 26.0111 40.0881 25.9228Z" fill="#5F913F"/>
<path d="M36.7578 23.2863L36.7451 23.375C36.7958 23.3497 36.8592 23.3243 36.9099 23.299L36.7578 23.2863Z" fill="#5F913F"/>
<path d="M38.5744 35.2957L39.1421 34.5135C38.4735 33.9711 37.6914 33.5422 36.8084 33.2899C35.4838 32.8988 34.134 32.9493 32.9104 33.353C31.9264 33.6683 31.0307 34.2108 30.2991 34.9298L30.955 35.6363C33.8691 33.1764 36.7327 33.8449 38.5744 35.2957Z" fill="#5F913F"/>
<path d="M39.7726 35.0686L39.1923 35.8633C40.1258 36.8851 40.7061 38.2223 40.7061 39.7235C40.7061 42.7637 38.3345 45.2236 35.3447 45.4254L35.3573 46.3211C35.9124 46.2832 36.4548 46.1823 36.9847 46.0183C39.0157 45.3623 40.6934 43.7476 41.3368 41.54C41.7152 40.2154 41.6774 38.8657 41.2737 37.642C41.135 37.2257 40.9584 36.822 40.7439 36.431L41.4756 36.0147C41.7152 36.4436 41.9171 36.8977 42.0685 37.3771C42.4721 38.626 42.5478 40.001 42.2325 41.3634L43.9733 41.868L43.8598 42.2717C43.7715 42.5618 43.6706 42.852 43.5696 43.1295C43.2543 43.9242 42.838 44.6559 42.3334 45.3119L43.065 45.93C43.8219 44.946 44.4148 43.8107 44.7807 42.5366C45.2979 40.7705 45.3105 38.9792 44.9068 37.3014L44.8059 36.8977L46.5341 36.4562C46.4963 36.2922 46.4458 36.1408 46.3954 35.9768C46.3449 35.8381 46.3071 35.7119 46.2566 35.5858C45.5249 35.775 44.705 35.7876 43.8724 35.939L43.5066 36.103C43.6075 36.3427 43.6958 36.5824 43.7715 36.822C44.1373 37.9322 44.2887 39.1306 44.2004 40.329L43.3678 40.2659C43.4435 39.1684 43.3047 38.0835 42.9767 37.0743C42.5604 35.7876 41.8288 34.6271 40.87 33.6683C40.8448 33.6431 40.8196 33.6052 40.7944 33.58L40.7817 33.5926L39.7726 35.0686Z" fill="#5F913F"/>
<path d="M29.2394 39.7235C29.2394 39.5216 29.2773 39.3198 29.3025 39.118C29.3151 39.0423 29.3151 38.954 29.3277 38.8657C29.3656 38.6512 29.4034 38.4368 29.4665 38.2223C29.4791 38.1718 29.4791 38.134 29.4917 38.0835C29.517 38.0078 29.5422 37.9322 29.5548 37.8691H29.5674C29.7693 37.2888 30.0468 36.7464 30.4126 36.267L29.7314 35.5479C29.2142 36.2039 28.8105 36.9608 28.5708 37.8186C28.1924 39.1432 28.2302 40.493 28.6339 41.7166C29.2899 43.7476 30.9046 45.4254 33.1122 46.0688C33.5916 46.2075 34.0709 46.2958 34.5377 46.3211L34.5251 45.4128C31.5606 45.1731 29.2394 42.7258 29.2394 39.7235Z" fill="#5F913F"/>
<path d="M46.4334 48.8315L46.1685 49.1721L44.7809 48.0115C43.4689 49.5631 41.8037 50.7742 39.9494 51.5563L39.6214 50.7868C40.5296 50.4083 41.3874 49.9163 42.1822 49.3234L41.5388 48.6044C40.5801 49.3108 39.5078 49.8659 38.3599 50.2317C36.3163 50.8877 34.0708 50.9634 31.8632 50.32C30.2485 49.8533 28.8356 49.0459 27.6498 48.0115L27.0317 48.7432C28.0283 49.6136 29.1762 50.3326 30.4503 50.8372L30.135 51.6194C28.6338 51.0138 27.2966 50.1434 26.1613 49.0838L25.8711 48.8062L27.0443 47.4312C25.8459 46.2076 24.9376 44.7064 24.4078 43.0791C24.2312 42.5492 24.105 42.0068 24.0167 41.4517L22.2254 41.6914L22.175 41.2751C22.0993 40.6444 22.0614 40.0137 22.0741 39.3577L22.9066 39.3829C22.894 39.837 22.9066 40.2912 22.9571 40.7453L23.9158 40.6192C23.8023 39.2946 23.9284 37.9322 24.3195 36.5824C25.0386 34.0973 26.565 32.041 28.5329 30.6408L28.0157 29.8334C26.5523 30.8679 25.3161 32.2303 24.4204 33.8576L23.6888 33.4539C24.206 32.5204 24.8241 31.6626 25.5431 30.8931L25.0133 30.1362C24.6853 30.2245 24.5087 30.6029 24.3447 30.8552C23.9915 30.8805 23.6635 30.83 23.4238 30.8931L23.9411 31.2968C22.9445 32.6087 22.1624 34.1351 21.6704 35.8255C21.5947 36.0652 21.5316 36.3175 21.4812 36.5572L22.4147 36.7716C22.4651 36.5446 22.5282 36.3175 22.5913 36.0904C22.667 35.8381 22.7426 35.5984 22.8309 35.3588L23.6257 35.6363C23.5374 35.8634 23.4743 36.0904 23.3986 36.3175C23.2977 36.6581 23.222 36.9987 23.1463 37.3519L23.058 37.7808L21.3045 37.3898C20.9513 39.4838 21.0901 41.5779 21.6578 43.5206L23.3986 43.0791L23.5248 43.4449C23.9411 44.7064 24.5592 45.9048 25.3665 46.9645L24.698 47.4691C23.9158 46.4346 23.2977 45.2867 22.8562 44.0756L21.9227 44.3153C23.3734 48.3647 26.6659 51.6824 31.1063 52.9818C33.2761 53.6125 35.4711 53.6882 37.5525 53.2845L37.3128 52.351C35.6981 52.6538 33.9951 52.6412 32.3047 52.2879C32.2164 52.2753 32.1281 52.2501 32.0398 52.2249L32.229 51.4175C32.3047 51.4301 32.393 51.4554 32.4687 51.468C34.1843 51.8338 35.9 51.8086 37.5147 51.4554L37.9057 51.3671L38.3473 53.0953C38.6374 53.0196 38.9149 52.9439 39.1925 52.8556C41.1352 52.2249 42.9138 51.1778 44.4024 49.7902L44.9701 50.4083C44.2006 51.1274 43.3554 51.7581 42.4597 52.2879C43.7338 51.5689 43.7338 51.7707 45.0332 50.9129C45.5882 50.5471 46.3451 49.664 46.3829 49.6262C46.938 48.8945 46.938 48.7053 47.2029 48.1376L47.0389 48.0115C46.8497 48.289 46.6479 48.5665 46.4334 48.8315Z" fill="#5F913F"/>
<path d="M28.7348 27.2978L28.3437 27.5123C27.9148 27.752 27.4985 28.0169 27.0822 28.2944C27.0191 28.5088 26.9308 28.7107 26.8173 28.8999C26.5776 29.291 26.2496 29.6442 25.9216 30.01L26.1235 30.3002C27.5111 28.9882 29.1763 28.0043 30.9928 27.424C33.3644 26.6545 35.9757 26.5662 38.5491 27.3104C39.2808 27.5249 39.9746 27.815 40.6432 28.143C40.6558 27.7015 40.6811 27.3357 40.7189 27.3609C40.7063 27.0708 40.6558 26.8689 40.5927 26.6923L40.4666 26.9824C39.9368 26.7554 39.3943 26.5535 38.8267 26.3895C36.064 25.5948 33.2635 25.6831 30.7153 26.5031C30.6018 26.5409 30.5008 26.5788 30.3873 26.6166L30.1728 26.0111C29.9962 25.9733 29.807 25.9354 29.6304 25.948C28.7726 25.9606 28.3311 25.9859 28.0409 26.2003L28.7348 27.2978Z" fill="#5F913F"/>
<path d="M48.3889 43.0664C48.3889 43.0286 48.4015 42.9908 48.4015 42.9529C48.4142 42.8898 48.4268 42.8394 48.4394 42.7763L48.5025 42.4862C48.9818 40.1524 48.8431 37.806 48.1745 35.6489C48.0231 35.5732 47.8465 35.5101 47.6068 35.4975C47.468 35.4975 47.2914 35.4975 47.1148 35.5101C47.1401 35.5858 47.1779 35.6615 47.1905 35.7246C47.405 36.4058 47.569 37.087 47.6825 37.806L46.8625 37.9322C46.8247 37.7177 46.7868 37.4907 46.749 37.2762L45.8155 37.5159C46.1561 39.2063 46.1056 41.0102 45.5884 42.7763C45.1469 44.3027 44.4026 45.6525 43.4439 46.8005L43.179 47.1158L41.7913 45.9553C40.7065 47.1411 39.3188 48.0367 37.7924 48.5287C37.6284 48.5792 37.4644 48.6296 37.3004 48.6675L37.086 47.8601C37.2374 47.8223 37.3887 47.7718 37.5401 47.734C39.8739 46.9771 41.8418 45.2236 42.8005 42.8268C42.851 42.7006 42.9015 42.5745 42.9393 42.4483L42.0184 42.1834C41.2237 44.4541 39.4197 46.1193 37.2626 46.8257C35.8876 47.2672 34.3612 47.3303 32.8726 46.8888C32.0905 46.6617 31.3714 46.3085 30.7281 45.8796L29.5801 47.2798L29.2648 47.0275C28.0537 46.0814 27.1076 44.8578 26.4895 43.4827L27.259 43.1421C27.7636 44.2775 28.5079 45.2867 29.4666 46.1066L30.0721 45.3624C29.0377 44.4667 28.2556 43.2935 27.8393 41.9942C27.3978 40.6192 27.3347 39.1054 27.7762 37.6042C28.4953 35.1317 30.3875 33.3025 32.6708 32.5582C34.0458 32.1167 35.5596 32.0663 37.0608 32.4952C38.0321 32.7727 38.9025 33.2394 39.6468 33.8323L40.1893 33.0376C39.5207 32.5078 38.7638 32.0915 37.9312 31.7761C37.9186 31.7635 37.8933 31.7635 37.8807 31.7635C37.7041 31.7004 37.5149 31.6247 37.3257 31.5743C35.6479 31.0823 33.9323 31.1454 32.3806 31.65C31.0435 32.0789 29.8324 32.8484 28.8485 33.8702L28.243 33.2899C29.3152 32.1672 30.6524 31.3346 32.1157 30.8552C32.9357 30.5903 33.7935 30.4389 34.6639 30.4137L34.6261 29.455C33.6674 29.4928 32.7212 29.6568 31.8256 29.947C31.5985 30.0227 31.3841 30.0983 31.157 30.1866L30.8416 29.4045C31.0813 29.3162 31.321 29.2279 31.5607 29.1522C32.6708 28.799 33.8314 28.6098 35.0298 28.6098H35.4334L35.5091 30.4263C36.1903 30.4642 36.8842 30.5777 37.5654 30.7795C37.8807 30.8679 38.1709 30.9688 38.461 31.0949C38.5619 31.0697 38.6502 31.0192 38.7133 30.9183C38.8521 30.7165 39.0665 30.5651 39.3062 30.4263C38.8395 30.1993 38.3475 30.01 37.8303 29.8587C37.578 29.783 37.3257 29.7199 37.0734 29.6694L37.25 28.8495C37.5149 28.9125 37.7924 28.9756 38.0573 29.0513C38.8142 29.2658 39.5333 29.5811 40.2145 29.9343C40.3406 29.8587 40.4542 29.783 40.5551 29.6947C40.5929 29.7073 40.6182 29.4298 40.6308 29.0639C39.9117 28.6855 39.1422 28.3701 38.3349 28.1304C35.938 27.4366 33.4907 27.5123 31.2831 28.2313C30.3875 28.5215 29.5297 28.9125 28.7349 29.4045L29.6937 30.9183L29.3531 31.1454C28.1547 31.9275 27.1202 32.9745 26.3381 34.2108L27.8014 35.2326L27.6248 35.5606C27.3095 36.1156 27.0572 36.7085 26.8805 37.3519C26.5021 38.6386 26.4516 39.9506 26.6787 41.1868L25.8587 41.3382C25.6191 39.9758 25.6821 38.5377 26.0858 37.1248C26.2498 36.5572 26.4643 36.0021 26.7292 35.4975L25.9344 34.9425C25.6191 35.5354 25.3541 36.1787 25.1649 36.8599C24.572 38.9035 24.6477 40.985 25.2532 42.8646C26.2624 45.9931 28.7602 48.5792 32.1536 49.5631C33.0114 49.8154 33.8818 49.9416 34.7396 49.9668V49.0081C33.9701 48.9828 33.188 48.8693 32.4185 48.6422C31.9643 48.5035 31.5354 48.3521 31.1191 48.1629L31.4724 47.406C31.8508 47.5826 32.2419 47.734 32.6582 47.8475C33.4907 48.0872 34.3359 48.2007 35.1559 48.1881L35.5848 48.1755L35.5722 49.9668C36.4552 49.9163 37.3257 49.7523 38.1583 49.4874C39.3314 49.109 40.4163 48.5287 41.3877 47.7592L41.6904 47.5195L42.8888 48.8441C44.5918 47.3807 45.9038 45.4128 46.585 43.0917C46.8751 42.0951 47.0265 41.0859 47.0644 40.1019L47.897 40.1272C47.8717 41.1868 47.6951 42.2591 47.3924 43.3314C46.9508 44.8451 46.257 46.2202 45.374 47.4186L46.1183 48.0367C46.8121 47.1032 47.405 46.0688 47.8591 44.9461L48.616 45.2488C48.6791 44.9965 48.7548 44.7442 48.8431 44.4919C48.9692 44.1639 49.0954 43.8486 49.2341 43.5206L48.4142 43.3566L48.3889 43.0664Z" fill="#5F913F"/>
<path d="M21.8724 46.3463L21.5444 46.5103C21.7337 47.2294 23.0582 49.4496 23.0834 49.5C23.4997 50.1056 26.3886 53.4106 31.4471 54.4198L31.5733 53.9657C31.3336 53.9152 31.0939 53.8522 30.8542 53.7765C26.8048 52.6033 23.6511 49.828 21.8724 46.3463Z" fill="#5F913F"/>
<path d="M37.464 31.4734C37.4766 31.4734 37.4766 31.4734 37.464 31.4734C37.4766 31.4608 37.4766 31.4608 37.4766 31.4608C37.464 31.4608 37.464 31.4608 37.464 31.4734C37.3883 31.5238 37.4009 31.5238 37.464 31.4734Z" fill="#5F913F"/>
<path d="M48.5146 45.2745C48.5273 45.2491 48.54 45.2238 48.5527 45.1858H48.54C48.54 45.2111 48.5273 45.2365 48.5146 45.2745C48.5273 45.2618 48.5146 45.2745 48.5146 45.2745Z" fill="#5F913F"/>
<path d="M23.02 31.1328C23.0957 31.0697 23.1714 31.0192 23.2471 30.9562C23.2849 30.9183 23.348 30.9057 23.4111 30.8931L23.2723 30.7922C23.1714 30.8931 23.1083 31.0192 23.02 31.1328Z" fill="#5F913F"/>
<path d="M61.4703 22.7186C61.4072 22.6555 61.4198 22.5168 61.4072 22.4159C61.1423 20.7381 59.7168 20.2461 58.3544 21.0787C57.7111 21.4697 57.0551 21.9743 56.3486 22.0626C55.4908 22.1762 55.0745 22.5546 54.6961 23.2737C54.3429 23.9549 53.9014 24.6865 53.2958 25.1028C52.5768 25.6074 52.2993 25.9606 52.766 26.6923C52.8922 26.8941 52.9805 27.0581 52.9174 27.2095C52.8795 27.2852 52.8039 27.3735 52.6525 27.4492C52.5263 27.5123 52.4128 27.6889 52.3623 27.8655C52.3371 27.9286 52.3245 28.0043 52.3119 28.0547C52.2488 28.5341 52.3497 29.0387 52.2362 29.4928C52.2362 29.5054 52.2362 29.5307 52.2236 29.5433C52.0974 29.9974 52.0848 30.4768 52.0974 30.9435C52.0974 31.5869 52.1227 32.2429 51.9082 32.861C51.8577 33.0124 51.7947 33.1511 51.719 33.2899C51.6433 33.4413 51.7316 33.681 51.7568 34.0594C51.9208 33.9459 52.0722 33.8323 52.2236 33.7188C52.5011 33.5043 52.7786 33.3151 53.0309 33.1259C53.2706 32.9493 53.4977 32.7853 53.7374 32.6339L53.75 32.6213C54.0149 32.4447 54.2798 32.2555 54.5447 32.0663C54.7844 31.9023 55.0115 31.7383 55.2512 31.5869C55.7053 31.2841 56.1594 31.0192 56.6514 30.8426C57.711 30.4642 58.2535 29.6694 58.8212 28.8999C59.5781 27.8781 60.2845 26.7932 60.89 25.6705C61.3694 24.737 62.5047 23.917 61.4703 22.7186Z" fill="#5F913F"/>
<path d="M50.4325 37.2383C50.4199 37.2257 50.4072 37.2131 50.3946 37.1879C50.382 37.15 50.382 37.1122 50.382 37.0743C50.6091 36.3931 50.4955 35.9895 50.1297 35.8507C49.9153 35.775 49.6125 35.7876 49.2341 35.8759C49.1962 35.8885 49.171 35.8885 49.1458 35.9012C49.7134 38.0457 49.8143 40.3416 49.335 42.6375L49.4737 42.6627C49.6503 42.2338 49.8143 41.8049 49.9909 41.376C50.1928 40.8588 50.4703 40.3542 50.5334 39.8244C50.546 39.7235 50.5712 39.6225 50.6091 39.5216C50.8488 38.7521 51.5678 37.9574 50.4325 37.2383Z" fill="#5F913F"/>
<path d="M35.2819 7.26539C35.5342 7.6943 35.9253 8.09797 35.9757 8.55211C36.0893 9.57392 36.5434 10.5705 36.2028 11.6175C36.1397 11.7941 36.3163 12.0338 36.2911 12.2357C36.2533 12.7781 36.6695 13.4719 35.7991 13.7873C35.6982 13.8251 35.6982 14.1405 35.6604 14.2667C36.001 14.3423 36.4551 14.3676 36.4677 14.4685C36.556 14.9352 36.6948 15.5281 36.4803 15.8687C36.1019 16.4616 36.3794 16.9158 36.5182 17.4204C36.5686 17.5844 36.72 17.7105 36.7579 17.8745C36.8209 18.152 36.8714 18.4296 36.9218 18.7071C37.1237 19.6406 37.4012 20.5236 38.3978 21.0535C38.6501 21.1922 38.9276 21.2931 39.2051 21.4193C39.2556 21.2553 39.3061 21.1039 39.3565 20.9399C39.407 20.7633 39.4574 20.5993 39.4827 20.4227C39.4953 20.3218 39.4448 20.2083 39.3944 20.0947C39.3691 20.0317 39.3439 19.9812 39.3187 19.9181C39.4196 19.9181 39.5205 19.9307 39.6214 19.9434C39.6593 19.6911 39.6971 19.4388 39.7476 19.1865C39.798 18.9089 39.8485 18.6314 39.8737 18.3665C39.9116 17.9754 39.899 17.597 39.7728 17.2185C40.0377 16.8906 40.4288 16.6004 40.3783 16.4112C40.3153 16.0958 39.9873 15.8183 39.735 15.5534C39.4827 15.2758 39.1925 15.0362 38.8898 14.7586C39.1925 14.5694 39.407 14.4306 39.4574 14.4054C39.4322 12.8916 39.407 11.5166 39.3818 10.129C39.1925 10.0911 38.9907 10.0533 38.7762 10.0154C38.7636 9.95236 38.7636 9.88929 38.751 9.82621C39.0033 9.75052 39.2556 9.66222 39.407 9.61176C39.4322 9.28377 39.4448 9.00624 39.4448 8.95578C39.1673 8.41335 38.9276 8.09797 38.8645 7.74476C38.8393 7.59338 39.1799 7.37892 39.3061 7.17709C39.4196 6.98786 39.5457 6.78602 39.571 6.57157C39.8359 4.76764 39.2178 3.11509 38.4987 1.53823C37.9184 0.289357 36.6065 -0.152164 35.509 0.365046C35.2315 0.491195 35.0422 0.844412 34.8782 1.12194C34.7773 1.28593 34.8278 1.52562 34.7773 1.71484C34.5502 2.56004 34.1087 3.41785 34.1466 4.26305C34.1718 5.12086 34.6512 5.96606 34.9539 6.81125C35.0422 6.98786 35.1936 7.11401 35.2819 7.26539Z" fill="#5F913F"/>
<path d="M23.6764 16.0706C23.7142 16.1841 23.7647 16.2598 23.7521 16.3355C23.5502 17.8241 23.7899 19.1991 24.3954 20.5363C24.4964 20.7633 24.6099 20.9904 24.736 21.2175C24.7486 21.2427 24.7613 21.2553 24.7739 21.2805C24.9631 21.5959 25.2028 21.823 25.4551 22.0122C25.72 22.2014 26.0228 22.3528 26.3003 22.5294C26.4012 22.5925 26.5147 22.6556 26.6157 22.7186C26.7166 22.7943 27.0446 22.6808 27.1707 22.5673C27.423 22.3276 27.6753 22.0627 27.915 21.8104C28.1294 21.5833 28.3313 21.3562 28.5457 21.1292C28.4574 21.003 28.3691 20.8895 28.2934 20.776C28.1799 20.6246 28.079 20.4732 27.9528 20.3092C28.306 20.2335 28.571 20.1704 28.8359 20.12C28.8863 19.9308 28.9116 19.7541 28.9242 19.5649C28.9494 19.2748 28.9368 18.9846 28.8737 18.7071C28.798 18.3413 28.6593 17.9754 28.4448 17.6222C28.306 17.3952 28.1799 17.1429 28.1421 16.8906C28.0411 16.1967 27.5365 15.9571 26.9689 15.7678C26.7166 15.6795 26.4012 15.6795 26.2372 15.5155C26.1111 15.402 26.0984 15.0614 26.1615 14.8596C26.212 14.683 26.4264 14.5568 26.5778 14.4054C26.376 14.2541 26.1615 14.0901 25.9218 13.9135C25.9218 13.8125 25.9344 13.6485 25.9218 13.4972C25.8083 11.832 25.9471 10.0659 24.1431 9.24594C24.2188 8.71612 24.408 8.21152 24.3197 7.77C24.1936 7.18972 23.853 6.65989 23.5755 6.10484C23.197 5.34794 23.0456 4.55321 23.2601 3.73324C23.0204 3.54401 22.7933 3.36741 22.5663 3.1908C21.8094 2.62313 21.4435 2.67359 20.6867 3.26649C20.51 3.40525 20.1568 3.39264 19.8919 3.35479C18.807 3.21603 17.8105 3.75847 17.7852 4.64151C17.7726 5.28487 17.8231 5.9913 18.0628 6.57159C18.5169 7.64385 19.1224 8.64043 19.6775 9.66224C19.7405 9.77577 19.9424 9.78838 20.0685 9.87669C20.1821 9.95238 20.3208 10.0281 20.3587 10.1416C20.6236 10.8102 20.8254 11.4914 21.1029 12.1474C21.5697 13.2575 22.0995 14.3424 22.5537 15.4651C22.7807 16.0075 23.0961 16.2472 23.6764 16.0706Z" fill="#5F913F"/>
<path d="M9.85031 19.7163C10.0143 20.3722 10.9857 20.8264 11.5786 21.3814C12.1336 21.886 12.8148 22.3149 13.1933 22.9331C14.0385 24.3207 15.1107 25.4687 16.3091 26.5283C16.5488 26.7428 16.7885 26.932 17.0408 27.1338C17.2553 27.3104 17.4697 27.487 17.6842 27.6636C17.886 27.8276 18.1004 27.9916 18.3023 28.1682C18.3527 28.2061 18.3906 28.2439 18.4411 28.2944C18.6429 28.471 18.8573 28.6602 19.0592 28.8621C19.2484 29.0387 19.4376 29.2279 19.6395 29.4171C19.6521 29.3919 19.6647 29.3793 19.6773 29.354C19.8665 29.0891 20.0305 28.8747 20.1693 28.6728C20.2828 28.5088 20.3964 28.3701 20.4973 28.2187C19.7656 27.7015 19.7656 27.5249 20.245 26.5157C20.2576 26.4778 20.2702 26.44 20.2954 26.4022C20.3837 26.2003 20.4594 25.9733 20.4973 25.7588C20.5351 25.5696 20.5351 25.393 20.4594 25.2794C20.3459 25.1154 20.2198 24.9388 20.1062 24.7748C19.9422 24.5478 19.7782 24.3207 19.6016 24.0936C19.0087 23.3367 18.3023 22.706 17.2553 22.542C16.9903 22.0879 16.6624 21.7094 16.2965 21.3562C15.6027 20.6876 14.9341 19.9812 14.1646 19.4135C13.7735 19.1234 13.6222 18.9215 13.7735 18.48C13.8366 18.3286 13.824 18.1394 13.8618 17.9376C12.8274 17.824 11.5912 18.2277 11.2758 16.7518C11.7299 16.3481 11.9822 16.6635 12.2724 16.9536C12.5121 17.1933 12.8148 17.3951 13.0923 17.6096C13.1176 16.9788 13.1428 16.4869 13.1806 15.9444C12.9662 15.6543 12.676 15.2758 12.2471 14.6955C12.3228 13.0051 12.3607 13.2953 10.8721 12.5889C10.7334 12.5636 10.6072 12.5384 10.5441 12.4753C9.93862 11.8824 9.27003 12.0464 8.51313 12.2104C8.61405 12.5889 8.68974 12.9168 8.80328 13.2448C8.86635 13.4341 8.9925 13.6107 9.09342 13.7999C8.89158 13.8503 8.67713 13.9386 8.47529 13.9513C7.13811 14.0396 7.17596 14.1153 7.61748 15.2884C8.18515 16.8401 9.43402 18.0385 9.85031 19.7163Z" fill="#5F913F"/>
<path d="M20.7747 35.876C20.6359 35.8886 20.4971 35.8886 20.3331 35.9012C20.3079 36.3553 20.043 36.6202 19.5889 36.7085C19.551 36.7085 19.5132 36.7212 19.4753 36.7212C19.3996 36.7338 19.3492 36.7464 19.2609 36.7464C19.1095 36.7464 18.9455 36.9987 18.7815 37.1375C18.5797 37.3267 18.3778 37.5159 18.1381 37.7304C17.9741 37.5411 17.8354 37.3519 17.6966 37.1753C17.5326 36.9735 17.3813 36.7969 17.192 36.6329C17.1416 36.5824 17.0406 36.5698 16.9271 36.5698C16.7884 36.5698 16.637 36.595 16.5361 36.6455C16.3216 36.759 16.1828 36.9987 16.0062 37.1879C15.9558 37.1753 15.9053 37.1627 15.8422 37.1501C15.817 37.1375 15.7792 37.1375 15.7539 37.1248C15.8044 36.8095 15.8675 36.4815 15.9305 36.0652C15.7918 35.9517 15.6026 35.712 15.3503 35.5858C15.325 35.5732 15.2998 35.5606 15.2746 35.548C14.9718 35.3966 14.6817 35.2578 14.3789 35.1065C14.1266 34.9803 13.8743 34.8542 13.6094 34.7406C13.1679 34.5262 12.7137 34.3243 12.2596 34.1225C11.3135 33.6936 10.3421 33.3404 9.38341 32.9241C9.05542 32.7853 8.71482 32.4069 8.43729 32.4573C7.70563 32.5835 7.15057 32.6466 6.64598 31.9023C6.25492 31.322 5.54848 30.9688 5.09435 30.4263C4.74113 29.9344 4.287 29.7451 3.68148 29.7451C3.5301 29.7451 3.37872 29.6316 3.22734 29.5811C3.35349 29.4676 3.46703 29.3541 3.51749 29.3162C3.07597 29.0135 2.63444 28.7107 2.19292 28.4206C2.12985 28.3827 2.01632 28.3701 1.96586 28.408C1.53695 28.7233 1.03235 28.9756 0.742211 29.3919C0.414224 29.8587 0.37638 30.4263 0.89359 30.8931C1.92801 31.8392 2.92459 32.8232 3.98424 33.7441C4.26177 33.9963 4.65283 34.1225 5.01866 34.2613C5.46018 34.4253 6.14138 34.4 6.30538 34.7028C6.97397 35.8381 8.14715 36.0147 9.18157 36.4184C9.95108 36.7212 10.8089 36.7842 11.591 37.0492C12.1335 37.2258 12.6381 37.5033 13.1553 37.743C13.3571 37.8313 13.5589 37.9196 13.7734 37.9953C13.8365 38.0205 13.8995 38.0331 13.95 38.0583C14.442 38.235 14.8457 38.462 15.0349 39.0297C15.1106 39.2441 15.489 39.3451 15.7287 39.5091C15.7539 39.4586 15.7918 39.4208 15.817 39.3829C15.7539 39.2315 15.6782 39.0801 15.5647 38.8405C15.9558 38.8909 16.3216 38.9414 16.6874 38.9918C16.9019 39.0297 17.1163 39.0549 17.3434 39.0801C17.5074 40.0263 17.0154 41.3004 18.2769 41.9311C18.3148 41.9563 18.3526 41.969 18.4031 41.9942C18.4157 42.0068 18.4157 42.0446 18.4283 42.0699C18.5292 42.2339 18.6175 42.4105 18.7184 42.5745C19.1473 43.344 19.5762 44.1135 20.0304 44.8578C20.043 44.883 20.1061 44.8704 20.1691 44.8704C20.3331 44.8452 20.5854 44.7568 20.7494 44.6938C20.8251 44.6685 20.863 44.5802 20.8882 44.4541C20.9387 44.4541 20.9513 44.3279 20.9891 44.3279C20.9765 44.2901 20.9639 44.2523 20.9513 44.2144C20.1313 41.5779 20.0178 38.7017 20.7747 35.876Z" fill="#5F913F"/>
<path d="M29.4537 38.235C29.3906 38.4494 29.3528 38.6639 29.3149 38.8783C29.3528 38.6639 29.4032 38.4494 29.4537 38.235Z" fill="#5F913F"/>
</svg>
