<svg width="58" height="54" viewBox="0 0 58 54" fill="none" xmlns="http://www.w3.org/2000/svg">
<path d="M33.7677 19.9817H46.9254C47.1903 19.9817 47.3669 19.8051 47.3669 19.5402C47.3669 19.2753 47.1903 19.0987 46.9254 19.0987H33.7677C33.5028 19.0987 33.3262 19.2753 33.3262 19.5402C33.3262 19.8051 33.5911 19.9817 33.7677 19.9817Z" fill="#BFD6AD"/>
<path d="M33.7677 24.5736H46.9254C47.1903 24.5736 47.3669 24.397 47.3669 24.1321C47.3669 23.8672 47.1903 23.6906 46.9254 23.6906H33.7677C33.5028 23.6906 33.3262 23.8672 33.3262 24.1321C33.3262 24.397 33.5911 24.5736 33.7677 24.5736Z" fill="#BFD6AD"/>
<path d="M33.7677 29.2539H46.9254C47.1903 29.2539 47.3669 29.0773 47.3669 28.8124C47.3669 28.5475 47.1903 28.3709 46.9254 28.3709H33.7677C33.5028 28.3709 33.3262 28.5475 33.3262 28.8124C33.3262 29.0773 33.5911 29.2539 33.7677 29.2539Z" fill="#BFD6AD"/>
<path d="M33.7677 33.8458H46.9254C47.1903 33.8458 47.3669 33.6692 47.3669 33.4043C47.3669 33.1394 47.1903 32.9627 46.9254 32.9627H33.7677C33.5028 32.9627 33.3262 33.1394 33.3262 33.4043C33.3262 33.6692 33.5911 33.8458 33.7677 33.8458Z" fill="#BFD6AD"/>
<path d="M33.7677 38.3495H46.9254C47.1903 38.3495 47.3669 38.1728 47.3669 37.9079C47.3669 37.643 47.1903 37.4664 46.9254 37.4664H33.7677C33.5028 37.4664 33.3262 37.643 33.3262 37.9079C33.3262 38.1728 33.5911 38.3495 33.7677 38.3495Z" fill="#BFD6AD"/>
<path d="M56.9043 19.7168C55.7563 18.7454 54.1668 18.8338 53.9902 18.8338C53.5486 18.9221 53.1954 19.2753 53.1954 19.8051C53.1954 20.335 53.6369 20.6882 54.1668 20.5999C54.4317 20.5999 55.2264 20.5999 55.668 21.0414C55.9329 21.3063 56.1095 21.6596 56.1095 22.2777V49.2112C56.1095 50.7124 55.4914 51.3305 54.0785 51.3305H30.0591C30.324 49.9176 31.472 48.8579 32.9732 48.8579H51.5176C52.0474 48.8579 52.4006 48.5047 52.4006 47.9749V15.4781C52.4006 14.9483 52.0474 14.595 51.5176 14.595H32.9732C31.3837 14.595 30.0591 15.3898 29.1761 16.5378C28.293 15.3898 26.9684 14.595 25.3789 14.595H19.1091V16.3612H25.3789C26.9684 16.3612 28.293 17.6858 28.293 19.187C28.293 19.187 28.293 19.187 28.293 19.2753V48.1515C27.4982 47.5333 26.4386 47.0918 25.3789 47.0918H7.71759V16.3612H10.9849V14.595H6.83453C6.30469 14.595 5.95146 14.9483 5.95146 15.4781V47.9749C5.95146 48.5047 6.30469 48.8579 6.83453 48.8579H25.3789C26.7918 48.8579 28.0281 49.9176 28.293 51.3305H4.45025C3.03735 51.3305 2.4192 50.7124 2.4192 49.2112V22.2777C2.4192 21.7479 2.59582 21.3063 2.86074 21.0414C3.30227 20.5999 4.09703 20.5999 4.36195 20.5999C4.80348 20.5999 5.24501 20.335 5.33332 19.8051C5.42162 19.3636 5.0684 18.9221 4.53856 18.8338C4.36195 18.8338 2.77243 18.6571 1.62445 19.7168C1.18291 20.1583 0.653076 20.9531 0.653076 22.2777V49.2112C0.653076 51.6837 2.06598 53.0966 4.45025 53.0966H29.1761H29.441H54.1668C56.551 53.0966 57.9639 51.6837 57.9639 49.2112V22.2777C57.8756 20.9531 57.3458 20.1583 56.9043 19.7168ZM30.0591 48.1515V19.2753C30.0591 19.2753 30.0591 19.2753 30.0591 19.187C30.0591 17.5975 31.3837 16.3612 32.9732 16.3612H50.6345V47.0918H32.9732C31.9135 47.0918 30.8539 47.445 30.0591 48.1515Z" fill="#BFD6AD"/>
<path d="M10.9841 32.1681C10.9841 32.2564 10.9841 32.433 11.0724 32.5213L14.2515 40.4689C14.4281 40.8221 14.693 40.9987 15.0462 40.9987C15.3995 40.9987 15.7527 40.8221 15.841 40.4689L19.02 32.5213C19.02 32.433 19.1083 32.3447 19.1083 32.1681V6.55923C19.1083 6.11769 18.7551 5.76447 18.3136 5.67616V4.17495C18.3136 2.40882 16.8124 0.907616 15.0462 0.907616C13.2801 0.907616 11.7789 2.40882 11.7789 4.17495V5.67616C11.3374 5.76447 10.9841 6.11769 10.9841 6.55923V32.1681ZM15.0462 37.6431L12.8386 32.1681H17.2539L15.0462 37.6431ZM17.3422 14.5951V15.4782V16.3612V31.285H15.4878V16.3612V15.4782V14.5951V7.44229H17.3422V14.5951ZM13.545 4.17495C13.545 3.3802 14.2515 2.67374 15.0462 2.67374C15.9293 2.67374 16.5474 3.3802 16.5474 4.17495V5.67616H13.545V4.17495ZM12.7503 16.3612V15.4782V14.5951V7.44229H14.6047V14.5951V15.4782V16.3612V31.285H12.7503V16.3612Z" fill="#BFD6AD"/>
</svg>
