<svg width="57" height="62" viewBox="0 0 57 62" fill="none" xmlns="http://www.w3.org/2000/svg">
<path d="M56.5315 27.5708L46.7453 17.6905V4.04616C46.7453 3.76386 46.6512 3.57567 46.463 3.38747C46.2748 3.19927 46.0866 3.10517 45.8043 3.10517H39.782C39.2174 3.10517 38.841 3.48157 38.841 4.04616V9.78617L29.4311 0.282216C29.0547 -0.0941787 28.4901 -0.0941787 28.1138 0.282216L0.919259 27.5708C0.542864 27.9472 0.542864 28.5118 0.919259 28.8882L3.83631 31.8052C4.02451 31.9934 4.30681 32.0875 4.495 32.0875C4.7773 32.0875 4.9655 31.9934 5.1537 31.8052L8.63534 28.3236V52.0364C8.63534 52.601 9.01174 52.9774 9.57633 52.9774H21.6209C22.1855 52.9774 22.5619 52.601 22.5619 52.0364V30.1115H34.7948V41.0269C34.7948 41.5915 35.1711 41.9679 35.7357 41.9679C36.3003 41.9679 36.6767 41.5915 36.6767 41.0269V29.1705C36.6767 28.6059 36.3003 28.2295 35.7357 28.2295H21.6209C21.0564 28.2295 20.68 28.6059 20.68 29.1705V51.1895H10.5173V26.4416L28.6783 8.2806L46.8394 26.4416V35.0046C46.8394 35.5692 47.2158 35.9456 47.7804 35.9456C48.3449 35.9456 48.7213 35.5692 48.7213 35.0046V28.3236L52.203 31.8052C52.3912 31.9934 52.5794 32.0875 52.8617 32.0875C53.144 32.0875 53.3322 31.9934 53.5204 31.8052L56.4374 28.8882C56.9079 28.5118 56.9079 27.9472 56.5315 27.5708ZM40.723 13.0796V7.52781H44.8633V17.22L40.723 13.0796ZM44.8633 4.98714V6.58682H40.723V4.98714H44.8633ZM52.8617 29.8292L29.337 6.30452C29.1488 6.11633 28.9606 6.02223 28.6783 6.02223C28.396 6.02223 28.2078 6.11633 28.0197 6.30452L4.495 29.8292L2.89533 28.2295L28.6783 2.35238L37.0531 10.7272C37.0531 10.7272 37.0531 10.8213 37.1472 10.8213L46.5571 20.3252L46.6512 20.4193L54.4614 28.2295L52.8617 29.8292Z" fill="#BFD6AD"/>
<path d="M47.5919 36.9807C43.3574 36.9807 38.7466 38.2039 38.7466 40.7446V43.3794C38.7466 43.944 39.123 44.3203 39.6876 44.3203C40.2522 44.3203 40.6286 43.944 40.6286 43.3794V43.1912C42.3223 44.1322 45.0512 44.5085 47.5919 44.5085C50.1325 44.5085 52.8614 44.0381 54.5551 43.1912V45.4495C54.5551 46.0141 52.1086 47.3315 47.5919 47.3315C46.745 47.3315 45.9922 47.3315 45.1453 47.2374C44.5807 47.1433 44.2043 47.5197 44.1102 48.0843C44.0161 48.5548 44.3925 49.0253 44.9571 49.1194C45.804 49.2135 46.6509 49.3076 47.5919 49.3076C50.1325 49.3076 52.8614 48.8371 54.5551 47.9902V50.2486C54.5551 50.8132 52.1086 52.1305 47.5919 52.1305C47.4037 52.1305 47.2155 52.1305 47.0273 52.1305C46.5568 52.1305 46.0863 52.5069 46.0863 53.0715C46.0863 53.6361 46.4627 54.0125 47.0273 54.0125C47.2155 54.0125 47.4978 54.0125 47.6859 54.0125C50.0384 54.0125 52.485 53.6361 54.2728 52.8833C54.2728 52.9774 54.3669 52.9774 54.3669 53.0715C54.6492 53.2597 54.6492 53.4479 54.6492 53.4479V54.9535C54.6492 55.5181 52.2027 56.8355 47.6859 56.8355C46.9332 56.8355 46.0863 56.8355 45.3335 56.7414C44.7689 56.6473 44.3925 57.0237 44.2984 57.5882C44.2043 58.0587 44.5807 58.5292 45.1453 58.6233C45.9922 58.7174 46.8391 58.7174 47.6859 58.7174C51.9204 58.7174 56.5312 57.4942 56.5312 54.9535V53.4479C56.5312 53.0715 56.4371 52.4128 55.7784 51.8482C56.2489 51.3777 56.5312 50.8132 56.5312 50.2486V47.802C56.5312 47.5197 56.4371 47.0492 56.1548 46.6728C56.343 46.2964 56.5312 45.92 56.5312 45.5436V40.8387C56.4371 38.2039 51.8263 36.9807 47.5919 36.9807ZM47.5919 42.6266C43.0751 42.6266 40.6286 41.3092 40.6286 40.7446C40.6286 40.18 43.0751 38.8626 47.5919 38.8626C52.1086 38.8626 54.5551 40.18 54.5551 40.7446C54.5551 41.3092 52.1086 42.6266 47.5919 42.6266Z" fill="#BFD6AD"/>
<path d="M35.4532 44.1321C30.5601 44.1321 26.6079 48.0843 26.6079 52.9774C26.6079 57.8705 30.5601 61.8227 35.4532 61.8227C40.3463 61.8227 44.2984 57.8705 44.2984 52.9774C44.2984 48.0843 40.3463 44.1321 35.4532 44.1321ZM35.4532 60.0348C31.5951 60.0348 28.4899 56.9295 28.4899 53.0715C28.4899 49.2134 31.5951 46.1082 35.4532 46.1082C39.3112 46.1082 42.4165 49.2134 42.4165 53.0715C42.4165 56.9295 39.3112 60.0348 35.4532 60.0348Z" fill="#BFD6AD"/>
</svg>
