<svg width="55" height="47" viewBox="0 0 55 47" fill="none" xmlns="http://www.w3.org/2000/svg">
<g clip-path="url(#clip0_384_1757)">
<path d="M42.6685 25.9767H13.0008H10.6784H8.8054C4.7598 25.9767 1.46339 29.2156 1.46339 33.1906C1.46339 35.5462 2.66209 37.6809 4.46013 39.0059C2.43733 39.3004 0.938965 40.9198 0.938965 42.9809C0.938965 45.1893 2.73701 46.956 4.98456 46.956H44.092C49.9356 46.956 54.7304 42.2448 54.7304 36.5032C54.7304 30.9823 50.3851 26.492 44.9161 26.0504C44.9161 26.0504 44.9161 26.0504 44.991 25.9767H42.6685ZM53.232 36.4295C53.232 41.3615 49.1115 45.4101 44.092 45.4101H4.98456C3.56111 45.4101 2.43733 44.306 2.43733 42.9073C2.43733 41.5087 3.56111 40.4046 4.98456 40.4046H44.092C46.3395 40.4046 48.1376 38.6379 48.1376 36.4295C48.1376 34.2212 46.3395 32.4545 44.092 32.4545H14.4243L12.3266 30.3934C12.0269 30.099 11.5774 30.099 11.2777 30.3934C10.978 30.6879 10.978 31.1295 11.2777 31.424L13.0758 33.1906L11.2777 34.9573C10.978 35.2518 10.978 35.6934 11.2777 35.9879C11.4275 36.1351 11.6523 36.2087 11.8021 36.2087C11.952 36.2087 12.1767 36.1351 12.3266 35.9879L14.4243 33.9268H44.092C45.5154 33.9268 46.6392 35.0309 46.6392 36.4295C46.6392 37.8282 45.5154 38.9323 44.092 38.9323H8.8054C5.58391 38.9323 2.96176 36.3559 2.96176 33.1906C2.96176 30.0254 5.58391 27.449 8.8054 27.449H44.092C49.1864 27.449 53.232 31.4976 53.232 36.4295Z" fill="#BFD6AD"/>
<path d="M20.2684 19.3518C20.4931 19.3518 21.3172 19.499 23.7146 20.3087C23.9394 20.3823 24.0892 20.3087 24.1641 20.0879C24.239 19.867 24.1641 19.7198 23.9394 19.6462C21.0175 18.6893 20.4182 18.6893 20.2684 18.6893C18.77 18.6893 17.5713 19.867 17.5713 21.3393C17.5713 22.8115 18.77 23.9893 20.2684 23.9893C20.7928 23.9893 21.9915 23.6948 23.9394 23.0323C24.1641 22.9587 24.239 22.7379 24.1641 22.5907C24.0892 22.3698 23.8644 22.2962 23.7146 22.3698C21.3172 23.1795 20.4931 23.3268 20.2684 23.3268C19.2195 23.3268 18.3205 22.4434 18.3205 21.4129C18.3205 20.2351 19.1446 19.3518 20.2684 19.3518Z" fill="#BFD6AD"/>
<path d="M27.8357 11.1809C26.3374 11.1809 25.1387 12.3586 25.1387 13.8309C25.1387 14.0517 25.1387 14.6406 26.1126 17.4378C26.1875 17.585 26.3374 17.6586 26.4872 17.6586C26.5621 17.6586 26.5621 17.6586 26.637 17.6586C26.8618 17.585 26.9367 17.3642 26.8618 17.217C26.0377 14.8614 25.8879 14.0517 25.8879 13.8309C25.8879 12.8003 26.7869 11.917 27.8357 11.917C28.8846 11.917 29.7836 12.8003 29.7836 13.8309C29.7836 14.0517 29.6338 14.8614 28.8097 17.217C28.7348 17.4378 28.8097 17.585 29.0344 17.6586C29.2592 17.7323 29.409 17.6586 29.4839 17.4378C30.1582 15.5239 30.4579 14.3461 30.4579 13.8309C30.5328 12.3586 29.3341 11.1809 27.8357 11.1809Z" fill="#BFD6AD"/>
<path d="M35.4771 18.6156C35.2523 18.6156 34.653 18.6156 31.8061 19.5726C31.5813 19.6462 31.5064 19.867 31.5813 20.0143C31.6562 20.2351 31.881 20.3087 32.0308 20.2351C34.4282 19.4254 35.2523 19.2781 35.4771 19.2781C36.5259 19.2781 37.4249 20.1615 37.4249 21.192C37.4249 22.2226 36.5259 23.1059 35.4771 23.1059C35.2523 23.1059 34.4282 22.9587 32.0308 22.149C31.8061 22.0754 31.6562 22.149 31.5813 22.3698C31.5064 22.5907 31.5813 22.7379 31.8061 22.8115C33.7539 23.474 34.9526 23.7684 35.4771 23.7684C36.9754 23.7684 38.1741 22.5907 38.1741 21.1184C38.1741 19.6462 36.9754 18.6156 35.4771 18.6156Z" fill="#BFD6AD"/>
<path d="M49.5619 21.7073C49.5619 20.7503 49.0374 19.9406 48.1384 19.5726C44.3925 17.8795 31.7313 5.4392 30.0081 1.83225C29.6335 0.948911 28.8094 0.433632 27.8355 0.433632C26.8616 0.433632 26.0375 0.948911 25.6629 1.83225C23.9397 5.4392 11.2785 17.8795 7.60753 19.5726C6.70851 20.0142 6.18408 20.8239 6.18408 21.7073C6.18408 22.6642 6.70851 23.474 7.60753 23.842C8.2818 24.1365 9.33066 24.8726 10.6792 25.9767H13.0017C10.9039 24.1365 9.25574 23.0323 8.20688 22.517C7.83229 22.3698 7.68245 22.0753 7.68245 21.7073C7.68245 21.3392 7.90721 21.0448 8.20688 20.8976C12.3274 19.0573 25.1384 6.39614 27.0114 2.42114C27.1612 2.12669 27.4609 1.90586 27.8355 1.90586C28.2101 1.90586 28.5098 2.12669 28.6596 2.42114C30.5326 6.46975 43.4185 19.0573 47.4641 20.8976C47.7638 21.0448 47.9886 21.3392 47.9886 21.7073C47.9886 22.0753 47.7638 22.3698 47.4641 22.517C46.4153 22.9587 44.7671 24.1365 42.6694 25.9767H44.9918C46.3404 24.9462 47.3892 24.2101 48.0635 23.842C48.9625 23.474 49.5619 22.6642 49.5619 21.7073Z" fill="#BFD6AD"/>
</g>
<defs>
<clipPath id="clip0_384_1757">
<rect width="53.7914" height="46.5223" fill="white" transform="translate(0.938965 0.433693)"/>
</clipPath>
</defs>
</svg>
