<svg width="46" height="46" viewBox="0 0 46 46" fill="none" xmlns="http://www.w3.org/2000/svg">
<path d="M25.4535 43.9346H20.5049C19.4052 43.9346 18.5411 43.0705 18.5411 41.9708V38.6717H21.8402C22.0759 38.6717 22.233 38.5146 22.233 38.279C22.233 38.0433 22.0759 37.8862 21.8402 37.8862H18.6197V21.3122H29.8523V23.6687C29.8523 24.14 30.1665 24.4542 30.6378 24.4542C31.1091 24.4542 31.4233 24.14 31.4233 23.6687V15.4209C31.4233 15.2638 31.4233 15.1067 31.3448 15.0282L25.9248 6.07351V1.75327C25.9248 0.810666 25.1393 0.0251675 24.1967 0.0251675H7.70126C6.83721 0.0251675 6.05172 0.810666 6.05172 1.75327V6.07351L0.631773 15.0282V15.1067C0.631773 15.1067 0.631773 15.1067 0.631773 15.1853C0.553223 15.2638 0.553223 15.3424 0.553223 15.4209V41.9708C0.553223 43.9346 2.12422 45.5056 4.08797 45.5056H20.5834H25.5321C26.0034 45.5056 26.3176 45.1914 26.3176 44.7201C26.3176 44.2488 25.9248 43.9346 25.4535 43.9346ZM17.0487 16.2064V20.5267H2.12422V16.2064H17.0487ZM2.12422 21.3122H17.0487V37.8862H2.12422V21.3122ZM24.4324 6.70191L29.7738 15.6566V20.5267H18.6197V15.6566L23.9611 6.70191C23.9611 6.70191 23.9611 6.70191 23.9611 6.62336V6.54481C23.9611 6.46626 24.0396 6.38771 24.0396 6.30916V1.75327C24.0396 1.59617 24.2753 1.59617 24.2753 1.75327V6.30916C24.3538 6.46626 24.3538 6.54481 24.4324 6.70191ZM7.70126 1.59617H22.5472C22.5472 1.67472 22.5472 1.67472 22.5472 1.75327V5.52366H7.62271V1.75327C7.62271 1.67472 7.70126 1.59617 7.70126 1.59617ZM7.30851 7.09466H21.9188L17.3629 14.6354H2.75262L7.30851 7.09466ZM2.12422 41.9708V38.6717H17.0487V41.9708C17.0487 42.6778 17.2843 43.3847 17.6771 43.9346H4.08797C2.98827 43.9346 2.12422 43.0705 2.12422 41.9708Z" fill="#BFD6AD"/>
<path d="M44.6985 29.717C43.3632 27.2034 40.771 25.6324 37.9432 25.6324C37.2363 25.6324 36.5293 25.711 35.8224 25.8681C35.0369 26.0252 34.2514 26.0252 33.5444 25.8681C33.5444 25.8681 33.5444 25.8681 33.4659 25.8681C32.7589 25.711 32.052 25.6324 31.345 25.6324C28.5172 25.6324 25.9251 27.2034 24.5897 29.717C23.7257 31.3666 23.2544 33.1732 23.2544 35.0584C23.2544 38.4361 24.7468 41.6566 27.339 43.856C29.1456 45.3485 31.6592 45.8983 33.8586 45.0343C34.3299 44.8772 34.8798 44.8772 35.3511 45.0343C36.058 45.2699 36.765 45.427 37.5505 45.427C39.1215 45.427 40.6925 44.8772 41.8707 43.856C44.4629 41.6566 45.9553 38.4361 45.9553 35.0584C46.0339 33.1732 45.5626 31.3666 44.6985 29.717ZM40.9281 42.6778C39.5928 43.856 37.629 44.2488 35.9795 43.6204C35.5867 43.4633 35.1154 43.3847 34.7227 43.3847C34.2514 43.3847 33.8586 43.4633 33.4659 43.6204C31.8163 44.2488 29.8526 43.856 28.5172 42.6778C26.3178 40.7926 24.9825 38.0433 24.9825 35.0584C24.9825 33.4089 25.3752 31.8379 26.0822 30.424C27.1033 28.3817 29.1456 27.2034 31.4236 27.2034C31.9734 27.2034 32.6018 27.282 33.1517 27.3605C33.1517 27.3605 33.1517 27.3605 33.2302 27.3605C34.1728 27.5962 35.194 27.5962 36.2151 27.3605C36.8435 27.2034 37.3934 27.2034 38.0218 27.2034C40.2212 27.2034 42.2635 28.4602 43.3632 30.424C44.1487 31.8379 44.4629 33.4089 44.4629 35.0584C44.4629 38.0433 43.1275 40.7926 40.9281 42.6778Z" fill="#BFD6AD"/>
<path d="M31.4238 29.6385C30.0884 29.6385 28.9102 30.3454 28.2818 31.5237C27.7319 32.6234 27.4177 33.8016 27.4177 34.9799C27.4177 35.2155 27.5748 35.3726 27.8105 35.3726C28.0461 35.3726 28.2032 35.2155 28.2032 34.9799C28.2032 33.8802 28.4389 32.859 28.9887 31.8379C29.46 30.8953 30.4026 30.3454 31.4238 30.3454C31.6594 30.3454 31.8165 30.1883 31.8165 29.9527C31.8165 29.7171 31.6594 29.6385 31.4238 29.6385Z" fill="#BFD6AD"/>
<path d="M34.486 23.6687C35.1144 23.8258 35.7427 23.9044 36.4497 23.9044C38.0207 23.9044 39.5917 23.5116 40.927 22.6476C42.8908 21.4693 44.2261 19.5841 44.776 17.3847C44.8545 17.1491 44.776 16.992 44.6974 16.7563C44.6189 16.5992 44.3832 16.4421 44.2261 16.3636C42.0267 15.8923 39.7488 16.2065 37.785 17.3847C35.8213 18.563 34.486 20.4482 33.9361 22.6476C33.8576 22.8832 33.9361 23.0403 34.0146 23.276C34.0932 23.4331 34.2503 23.5902 34.486 23.6687ZM38.5705 18.7986C39.9059 18.0131 41.3983 17.6204 42.9693 17.7775C42.4195 19.1914 41.3983 20.4482 40.063 21.2337C38.7276 22.0192 37.2352 22.4119 35.6642 22.2548C36.214 20.8409 37.2352 19.5841 38.5705 18.7986Z" fill="#BFD6AD"/>
</svg>
