<svg width="40" height="58" viewBox="0 0 40 58" fill="none" xmlns="http://www.w3.org/2000/svg">
<path d="M4.74916 56.2063C3.9739 56.2063 3.27616 55.7412 3.12111 55.0435C1.41554 48.7639 3.04358 35.2743 3.58627 31.243C3.66379 30.6228 4.05142 30.0801 4.67163 29.6925L8.62545 27.5217C11.8815 25.7386 13.4321 22.4826 13.4321 17.5984V14.5749H18.0836C18.4713 14.5749 18.7814 14.8075 18.8589 15.0401C19.8667 17.3658 20.8746 21.4747 21.4948 24.9634L22.8902 24.0331C22.27 20.6995 21.2622 16.7456 20.2544 14.4199C20.1768 14.2648 20.0993 14.0322 19.9442 13.8772C19.9442 13.7996 19.9442 13.7996 19.9442 13.7996L20.0218 10.5436L23.588 10.466C23.8981 10.466 24.1306 10.311 24.2857 10.0009C25.6036 7.28746 21.2622 3.56622 17.3084 0.852809C16.3781 0.310127 15.2927 2.28882e-05 14.1298 2.28882e-05H8.08277C8.08277 2.28882e-05 8.08277 2.28882e-05 8.00525 2.28882e-05H3.81884C3.35369 2.28882e-05 3.04358 0.310127 3.04358 0.775283V4.96168C3.04358 5.42684 3.35369 5.73694 3.81884 5.73694H7.8502C8.08277 5.892 8.31535 6.12457 8.54793 6.27963C7.77267 7.20994 6.29967 9.14809 5.36936 11.2413C4.05142 14.0322 3.43121 16.7456 3.35369 16.9007C3.27616 17.2883 3.43121 17.5984 3.74132 17.7535C3.81884 17.831 3.9739 17.831 4.05142 17.831C4.284 17.831 4.51658 17.7535 4.67163 17.5209C4.67163 17.4434 7.77267 13.7996 11.4164 11.2413C11.804 12.4817 11.8815 13.412 11.8815 13.7996V13.8772V17.6759C11.8815 22.0174 10.5636 24.7308 7.8502 26.2813L3.89637 28.3745C2.88853 28.9172 2.1908 29.925 2.03575 31.0104C1.33801 36.2822 -0.134981 49.074 1.57059 55.4311C1.95822 56.8266 3.19864 57.7569 4.74916 57.7569H21.7273L20.4869 56.2063H4.74916ZM7.30751 4.18643H4.5941V1.55054H7.30751V4.18643ZM5.83452 13.9547C6.0671 13.3345 6.3772 12.5592 6.6873 11.8615C7.54009 10.0784 8.85803 8.2953 9.55577 7.44252C9.55577 7.44252 9.55577 7.52004 9.63329 7.52004C9.86587 7.83015 10.0209 8.14025 10.2535 8.45035L10.331 8.52788C10.4861 8.83798 10.7187 9.22561 10.8737 9.61324C10.8737 9.61324 10.8737 9.69077 10.9512 9.69077C8.93556 11.0087 7.15246 12.6368 5.83452 13.9547ZM8.85803 4.57406V1.55054H14.1298C14.9826 1.55054 15.7578 1.78312 16.4556 2.24828C20.4869 5.03921 22.9678 7.67509 22.9678 8.99304L19.2465 9.07056C18.8589 9.07056 18.4713 9.38066 18.4713 9.84582L18.3937 13.1019H18.0061H13.277C13.122 11.3188 12.1916 7.05489 8.85803 4.57406Z" fill="#BFD6AD"/>
<path d="M29.4804 35.1193C29.3253 34.8867 28.9377 34.8867 28.7826 35.1193C28.7051 35.3519 25.9917 40.1585 25.6816 41.9416C25.5265 42.8719 25.8366 43.8797 26.6119 44.7325C27.3096 45.5853 28.3175 46.128 29.1703 46.128C30.023 46.128 31.0309 45.5853 31.7286 44.7325C32.4263 43.8797 32.814 42.7943 32.6589 41.9416C32.2713 40.1585 29.6354 35.2743 29.4804 35.1193ZM31.1084 44.1898C30.5657 44.8875 29.7905 45.2752 29.1703 45.2752C28.55 45.2752 27.7748 44.8875 27.1546 44.1898C26.6119 43.4921 26.3018 42.6393 26.3793 42.0191C26.6119 40.7787 28.3175 37.4451 29.0927 36.0496C29.868 37.4451 31.5736 40.7011 31.8061 42.0191C31.9612 42.7168 31.7286 43.5696 31.1084 44.1898Z" fill="#BFD6AD"/>
<path d="M21.263 57.6793C21.4955 57.7568 21.7281 57.7568 21.8832 57.7568H36.3805C37.2333 57.7568 38.0086 57.3692 38.4737 56.6715C41.2647 52.33 39.1715 41.709 37.621 35.7395C37.3884 34.8092 37.4659 33.8013 37.8535 32.871C39.8692 28.3745 39.1715 27.1341 38.9389 26.7465C38.1636 25.4285 35.8379 23.878 34.2873 22.9477V22.8702V22.0949C34.2873 20.3893 33.357 18.9939 32.0391 18.2186V14.7299C32.0391 14.2648 31.729 13.9547 31.2638 13.9547H26.9999C26.5347 13.9547 26.2246 14.2648 26.2246 14.7299V18.2186C24.8292 18.9939 23.9764 20.4668 23.9764 22.0949V22.8702V22.9477C23.6663 23.1803 23.2786 23.4128 22.891 23.6454L21.4955 24.6533C18.2471 26.8189 18.8015 29.3975 20.4102 32.7935C20.7978 33.6463 20.8753 34.6541 20.6428 35.6619C20.5652 36.0496 20.4877 36.4372 20.3327 36.8248C20.3327 36.9799 20.2551 37.1349 20.2551 37.29C20.1776 37.5226 20.1776 37.7551 20.1001 38.0652C20.0226 38.2203 20.0226 38.4529 19.945 38.6079C19.8675 38.8405 19.8675 39.0731 19.79 39.3832C19.7125 39.5382 19.7124 39.7708 19.6349 40.0034C19.5574 40.236 19.5574 40.5461 19.4799 40.7787C19.4023 41.0112 19.4023 41.1663 19.4023 41.3989C19.3248 41.6314 19.3248 41.9415 19.2473 42.1741C19.2473 42.4067 19.1698 42.6393 19.1698 42.8719C19.0922 43.1044 19.0922 43.4145 19.0147 43.6471C19.0147 43.8797 18.9372 44.1123 18.9372 44.3449C18.9372 44.5774 18.8597 44.8875 18.8597 45.1201C18.8597 45.3527 18.7821 45.5853 18.7821 45.8178C18.7821 46.0504 18.7046 46.3605 18.7046 46.5931C18.7046 46.8257 18.6271 47.0583 18.6271 47.2908C18.6271 47.5234 18.5496 47.8335 18.5496 48.0661C18.5496 48.2987 18.5496 48.5313 18.5496 48.7638C18.5496 48.9964 18.5496 49.229 18.5496 49.5391C18.5496 49.7717 18.5496 50.0042 18.5496 50.1593C18.5496 50.3919 18.5496 50.6245 18.5496 50.857C18.5496 51.0896 18.5496 51.2447 18.5496 51.4772C18.5496 51.7098 18.5496 51.9424 18.5496 52.175C18.5496 52.4076 18.6271 52.5626 18.6271 52.7952C18.6271 53.0278 18.7046 53.2603 18.7046 53.4154C18.7046 53.5704 18.7821 53.803 18.7821 53.9581C18.7821 54.1906 18.8597 54.3457 18.9372 54.5783C19.0147 54.7333 19.0147 54.8884 19.0922 55.0434C19.1698 55.1985 19.1698 55.4311 19.2473 55.5861C19.3248 55.7412 19.4023 55.8962 19.4023 56.0513C19.4799 56.1288 19.4799 56.2838 19.5574 56.3614C19.5574 56.2063 19.945 56.9816 21.263 57.6793ZM27.7752 15.4277H30.4886V17.5209H29.7908H28.4729H27.7752V15.4277ZM28.4729 19.1489H29.7908C31.4189 19.1489 32.7368 20.4668 32.7368 22.0949H32.5818H25.6819H25.5269C25.5269 20.4668 26.8448 19.1489 28.4729 19.1489ZM22.1158 36.1271C22.4259 34.8092 22.3483 33.4912 21.8057 32.2508C20.5652 29.4599 20.4102 27.9869 20.6428 27.5217C20.6428 27.0003 22.2145 25.95 22.5809 25.5836C23.6663 24.8083 24.9067 24.033 25.9145 23.4904H32.4267C34.2098 24.4982 37.0007 26.2813 37.621 27.3667C37.8535 27.8318 37.776 29.3048 36.4581 32.0957C35.9154 33.2586 35.7603 34.6541 36.148 35.972C37.0783 39.5382 39.7917 51.5548 37.1558 55.6636C37.0007 55.8962 36.6906 56.0513 36.3805 56.0513H21.9607C21.8832 56.0513 21.7281 56.0513 21.6506 55.9737C21.5731 55.9737 21.4955 55.8962 21.418 55.8187C21.418 55.8187 21.418 55.8187 21.3405 55.8187L21.263 55.7412C21.1854 55.6636 21.1854 55.5861 21.1079 55.5861C18.5496 51.4772 21.263 39.6158 22.1158 36.1271Z" fill="#BFD6AD"/>
</svg>
