<svg width="48" height="48" viewBox="0 0 48 48" fill="none" xmlns="http://www.w3.org/2000/svg">
<path d="M34.7017 25.4636H27.7941V18.556C27.7941 18.3257 27.6406 18.1722 27.4103 18.1722H20.119C19.8887 18.1722 19.7352 18.3257 19.7352 18.556V25.4636H12.8276C12.5973 25.4636 12.4438 25.6171 12.4438 25.8473V33.1387C12.4438 33.3689 12.5973 33.5224 12.8276 33.5224H19.7352V40.4301C19.7352 40.6603 19.8887 40.8138 20.119 40.8138H27.4103C27.6406 40.8138 27.7941 40.6603 27.7941 40.4301V33.5224H34.7017C34.9319 33.5224 35.0855 33.3689 35.0855 33.1387V25.8473C35.0855 25.6171 34.9319 25.4636 34.7017 25.4636ZM34.3179 32.7549H27.4103C27.1801 32.7549 27.0266 32.9084 27.0266 33.1387V40.0463H20.5027V33.1387C20.5027 32.9084 20.3492 32.7549 20.119 32.7549H13.2114V26.2311H20.119C20.3492 26.2311 20.5027 26.0776 20.5027 25.8473V18.9397H27.0266V25.8473C27.0266 26.0776 27.1801 26.2311 27.4103 26.2311H34.3179V32.7549Z" fill="#BFD6AD"/>
<path d="M41.763 11.1878H5.68997C2.69667 11.1878 0.317383 13.5671 0.317383 16.5604V42.4255C0.317383 45.4188 2.69667 47.7981 5.68997 47.7981H41.763C44.7563 47.7981 47.1356 45.4188 47.1356 42.4255V16.5604C47.1356 13.6438 44.7563 11.1878 41.763 11.1878ZM45.6006 42.4255C45.6006 44.5746 43.9121 46.2631 41.763 46.2631H5.68997C3.54093 46.2631 1.85241 44.5746 1.85241 42.4255V16.5604C1.85241 14.4113 3.54093 12.7228 5.68997 12.7228H41.763C43.9121 12.7228 45.6006 14.4113 45.6006 16.5604V42.4255Z" fill="#BFD6AD"/>
<path d="M13.5191 9.80627C13.9796 9.80627 14.2866 9.49927 14.2866 9.03876V6.88972C14.2866 4.51044 16.2054 2.51491 18.6614 2.51491H28.8693C31.2486 2.51491 33.2441 4.43369 33.2441 6.88972V9.11551C33.2441 9.57602 33.5511 9.88302 34.0116 9.88302C34.4721 9.88302 34.7792 9.57602 34.7792 9.11551V6.88972C34.7792 3.66617 32.1696 0.979881 28.8693 0.979881H18.5846C15.3611 0.979881 12.6748 3.58942 12.6748 6.88972V9.11551C12.7516 9.49927 13.0586 9.80627 13.5191 9.80627Z" fill="#BFD6AD"/>
<path d="M28.8691 9.80628C29.3296 9.80628 29.6366 9.49928 29.6366 9.03877V6.88974C29.6366 6.42923 29.3296 6.12222 28.8691 6.12222H18.5844C18.1239 6.12222 17.8169 6.42923 17.8169 6.88974V9.11552C17.8169 9.57603 18.1239 9.88303 18.5844 9.88303C19.0449 9.88303 19.3519 9.57603 19.3519 9.11552V7.65725H28.0248V9.11552C28.1016 9.49928 28.4086 9.80628 28.8691 9.80628Z" fill="#BFD6AD"/>
<path d="M38.3097 9.80628H41.2263C41.6868 9.80628 41.9938 9.49928 41.9938 9.03877C41.9938 8.57826 41.6868 8.27126 41.2263 8.27126H38.3097C37.8492 8.27126 37.5422 8.57826 37.5422 9.03877C37.5422 9.49928 37.926 9.80628 38.3097 9.80628Z" fill="#BFD6AD"/>
<path d="M6.22698 9.80628H9.14353C9.60404 9.80628 9.91104 9.49928 9.91104 9.03877C9.91104 8.57826 9.60404 8.27126 9.14353 8.27126H6.22698C5.76648 8.27126 5.45947 8.57826 5.45947 9.03877C5.45947 9.49928 5.76648 9.80628 6.22698 9.80628Z" fill="#BFD6AD"/>
</svg>
