<svg width="56" height="50" viewBox="0 0 56 50" fill="none" xmlns="http://www.w3.org/2000/svg">
<path d="M21.2844 29.0657V32.7816C21.2844 33.256 21.6007 33.5722 22.075 33.5722C22.5494 33.5722 22.8656 33.256 22.8656 32.7816V29.0657C22.8656 27.8008 23.6563 26.6939 24.8422 26.2986L36.5432 22.5827C36.3851 23.2943 35.9107 23.9268 35.2782 24.3221L30.7717 27.0892C29.4277 27.8798 28.6371 29.382 28.6371 30.8841V32.7816C28.6371 33.256 28.9533 33.5722 29.4277 33.5722C29.9021 33.5722 30.2183 33.256 30.2183 32.7816V30.9632C30.2183 29.9354 30.7717 29.0657 31.5623 28.5123L36.0688 25.7452C37.4129 24.9546 38.2035 23.4524 38.2035 21.9502V21.4759C38.2035 21.2387 38.0453 21.0015 37.8872 20.8434C37.7291 20.6853 37.4129 20.6853 37.1757 20.7643L24.3678 24.8755C22.5494 25.4289 21.2844 27.1683 21.2844 29.0657Z" fill="#5F913F"/>
<path d="M48.8767 28.7495V28.8285C48.8767 29.9354 49.7464 30.8841 50.9323 30.8841H52.7507C53.8575 30.8841 54.8063 30.0144 54.8063 28.8285V25.1127C54.8063 24.0058 53.9366 23.0571 52.7507 23.0571H49.1139C48.0861 23.0571 47.1373 23.3733 46.3467 24.0058L30.2183 37.0509V34.9953C30.2183 34.5209 29.9021 34.2047 29.4277 34.2047H22.075C21.6007 34.2047 21.2844 34.5209 21.2844 34.9953V48.5147C21.2844 48.9891 21.6007 49.3053 22.075 49.3053H29.4277C29.9021 49.3053 30.2183 48.9891 30.2183 48.5147V45.1942L48.8767 28.7495ZM52.7507 29.3029H50.9323C50.6951 29.3029 50.4579 29.0657 50.4579 28.8285V27.0892H53.225V28.8285C53.225 29.1448 52.9879 29.3029 52.7507 29.3029ZM47.3745 25.3499C47.8489 24.9545 48.4814 24.7174 49.1929 24.7174H52.8297C53.0669 24.7174 53.3041 24.9545 53.3041 25.1917V26.3776H50.0626C50.0626 26.3776 49.9835 26.3776 49.9835 26.2986C49.6673 26.1405 49.3511 26.2195 49.1139 26.4567L30.1392 43.1386V39.1065L47.3745 25.3499ZM28.6371 47.7241H22.8656V38.8693H26.9768C27.214 38.8693 27.3721 38.7112 27.3721 38.474C27.3721 38.2368 27.214 38.0787 26.9768 38.0787H22.8656V35.7859H28.6371V47.7241Z" fill="#5F913F"/>
<path d="M26.2652 13.8861C26.2652 6.77058 20.4147 0.920067 13.2201 0.920067C6.10466 0.920067 0.25415 6.77058 0.25415 13.8861C0.25415 17.9972 2.07255 21.7131 5.31405 24.164C6.18372 24.7965 6.65809 25.9033 6.65809 26.9311V29.6192C6.65809 30.8051 7.60682 31.8329 8.87179 31.8329H17.5685C18.7544 31.8329 19.7822 30.8842 19.7822 29.6192V27.0102C19.7822 25.9033 20.3356 24.8755 21.1262 24.243C24.3677 21.7131 26.2652 17.9972 26.2652 13.8861ZM15.7501 30.3307H10.7693V24.3221H15.7501V30.3307ZM20.1775 22.9781C18.9125 23.9268 18.201 25.429 18.201 27.0102V29.6983C18.201 30.0145 17.9638 30.3307 17.5685 30.3307H16.5407V23.9268C16.5407 23.6896 16.3826 23.5315 16.1454 23.5315H10.374C10.1368 23.5315 9.97865 23.6896 9.97865 23.9268V30.3307H8.95085C8.63461 30.3307 8.31837 30.0936 8.31837 29.6983V27.0102C8.31837 25.429 7.60682 23.9268 6.34184 22.9781C3.49565 20.7644 1.83537 17.5229 1.83537 13.8861C1.83537 7.64025 6.97433 2.50129 13.2201 2.50129C19.545 2.50129 24.6049 7.64025 24.6049 13.8861C24.684 17.5229 23.0237 20.7644 20.1775 22.9781Z" fill="#5F913F"/>
<path d="M17.5689 32.7025C17.0945 32.7025 16.7783 33.0188 16.7783 33.4931V39.9761C16.7783 40.2133 16.6202 40.5295 16.383 40.6086L14.0902 41.7945C13.5368 42.1108 12.9043 42.1108 12.3509 41.7945L10.0581 40.6086C9.82092 40.5295 9.6628 40.2133 9.6628 39.9761V38.8693H14.7227C14.9599 38.8693 15.118 38.7111 15.118 38.474C15.118 38.2368 14.9599 38.0787 14.7227 38.0787H9.74186V36.0231H13.4577C13.6949 36.0231 13.853 35.865 13.853 35.6278C13.853 35.3906 13.6949 35.2325 13.4577 35.2325H9.74186V33.5722C9.74186 33.0978 9.42562 32.7816 8.95125 32.7816C8.47689 32.7816 8.16064 33.0978 8.16064 33.5722V40.0552C8.16064 40.9249 8.63501 41.7155 9.34656 42.1108L11.6393 43.2967C12.1137 43.5339 12.6671 43.692 13.2205 43.692C13.774 43.692 14.3274 43.5339 14.8018 43.2967L17.0945 42.1108C17.8061 41.7155 18.2804 40.9249 18.2804 40.0552V33.5722C18.3595 33.0978 17.9642 32.7025 17.5689 32.7025Z" fill="#5F913F"/>
<path d="M17.568 12.0676C16.1449 12.0676 15.0381 13.1745 15.0381 14.5976V16.3369H11.5594V14.5976C11.5594 13.1745 10.4526 12.0676 9.02946 12.0676C7.60637 12.0676 6.49951 13.1745 6.49951 14.5976C6.49951 16.0207 7.60637 17.1275 9.02946 17.1275H10.7688V21.9502C10.7688 22.1874 10.9269 22.3455 11.1641 22.3455C11.4013 22.3455 11.5594 22.1874 11.5594 21.9502V17.1275H15.0381V21.9502C15.0381 22.1874 15.1962 22.3455 15.4334 22.3455C15.6706 22.3455 15.8287 22.1874 15.8287 21.9502V17.1275H17.568C18.9911 17.1275 20.098 16.0207 20.098 14.5976C20.098 13.1745 18.9911 12.0676 17.568 12.0676ZM7.21106 14.5976C7.21106 13.6488 8.00167 12.8582 8.9504 12.8582C9.89913 12.8582 10.6897 13.6488 10.6897 14.5976V16.3369H8.9504C8.00167 16.416 7.21106 15.6254 7.21106 14.5976ZM17.568 16.416H15.8287V14.6766C15.8287 13.7279 16.6193 12.9373 17.568 12.9373C18.5168 12.9373 19.3074 13.7279 19.3074 14.6766C19.3074 15.6254 18.5168 16.416 17.568 16.416Z" fill="#5F913F"/>
<path d="M55.7551 40.0552C55.4389 38.2368 52.8299 33.5722 52.5136 33.0188C52.1974 32.5444 51.4068 32.5444 51.1696 33.0188C50.8533 33.5722 48.2443 38.3159 47.9281 40.0552C47.77 41.083 48.0862 42.2689 48.9559 43.2176C49.7465 44.1664 50.8533 44.7198 51.8811 44.7198C52.9089 44.7198 54.0158 44.1664 54.8064 43.2176C55.597 42.2689 55.9923 41.083 55.7551 40.0552ZM53.5414 42.2689C53.0671 42.9014 52.4346 43.2176 51.8021 43.2176C51.2486 43.2176 50.6162 42.8223 50.0627 42.2689C49.5884 41.6364 49.2721 40.9249 49.4302 40.3714C49.5884 39.3437 50.8533 36.8137 51.8021 35.0744C52.7508 36.8137 54.0158 39.3437 54.1739 40.3714C54.332 40.9249 54.0948 41.6364 53.5414 42.2689Z" fill="#5F913F"/>
</svg>
