<svg width="46" height="46" viewBox="0 0 46 46" fill="none" xmlns="http://www.w3.org/2000/svg">
<path d="M22.6553 45.1373C8.15527 46.2114 -1.34473 35.6373 0.155273 22.6373C1.65527 9.63736 10.6553 -1.36269 22.6553 0.137321C34.6553 1.63733 45.1553 10.2109 45.1553 22.6373C45.1553 35.0637 37.1553 44.0632 22.6553 45.1373Z" fill="#EE8108"/>
<g clip-path="url(#clip0_446_4360)">
<path d="M23.0005 23.7486C26.8858 23.7486 29.9131 20.3078 29.9131 16.273C29.9131 12.2381 26.8859 9.13731 23.0005 9.13731C19.1151 9.13731 15.7266 12.8167 15.7266 16.8515C15.7313 20.8843 19.1171 23.7437 23.0005 23.7486ZM23.0005 12.5092C25.0926 12.5092 27.0758 14.1003 27.0758 16.273C27.0758 18.4456 25.0926 20.3768 23.0005 20.3768C20.9083 20.3768 19.1313 19.0242 19.1313 16.8515C19.1313 14.6789 20.9083 12.5092 23.0005 12.5092Z" fill="white"/>
<path d="M29.4501 27.2104C30.2147 26.6875 31.1167 25.8008 31.1178 24.8501C31.1284 24.0611 30.6997 23.3366 30.0171 22.99C29.3157 22.6262 28.4762 22.7081 27.8524 23.2013C24.9614 25.39 21.9683 25.5301 18.1494 23.2013C17.5247 22.7107 16.6866 22.6289 15.9848 22.99C15.3024 23.3365 14.8735 24.0603 14.883 24.849C14.8846 25.7995 15.5296 26.687 16.2937 27.2104C17.2741 27.8875 18.1573 28.4161 19.2805 28.7828C19.471 28.8442 19.6676 28.9012 19.8704 28.9536L16.5996 32.2749C15.7416 33.1394 15.7208 34.5625 16.5533 35.4536C17.3858 36.3446 18.7562 36.3661 19.6142 35.5016C19.6321 35.4836 19.6497 35.4653 19.6669 35.4467C19.6669 35.4467 22.3303 31.4016 23.0005 31.8635C23.6707 32.3254 26.508 35.3658 26.508 35.3658C27.3398 36.2575 28.5427 36.3678 29.4014 35.504C30.2601 34.6402 30.2819 33.2171 29.4501 32.3254C29.4327 32.3067 29.415 32.2884 29.397 32.2704L26.1316 28.9525C26.3343 28.8985 26.5317 28.8412 26.7236 28.7805C27.8456 28.4152 28.4708 27.8866 29.4501 27.2104Z" fill="white"/>
</g>
<defs>
<clipPath id="clip0_446_4360">
<rect width="26" height="27" fill="white" transform="translate(10 9.13731)"/>
</clipPath>
</defs>
</svg>
