<svg width="46" height="47" viewBox="0 0 46 47" fill="none" xmlns="http://www.w3.org/2000/svg">
<path d="M22.6553 0.937901C8.15527 -0.136185 -1.34473 10.4379 0.155273 23.4379C1.65527 36.4379 10.6553 47.4379 22.6553 45.9379C34.6553 44.4379 45.1553 35.8643 45.1553 23.4379C45.1553 11.0115 37.1553 2.01199 22.6553 0.937901Z" fill="#1DA1F2"/>
<path d="M11.6014 29.4318C11.4163 29.1833 11.587 28.7097 12.0057 28.7452C13.6853 28.8753 15.1634 28.9892 16.6352 27.9694C16.8314 27.8328 17.0128 27.6747 17.1878 27.5012C14.9962 27.6221 12.2613 24.7396 12.0058 23.7297C11.8659 23.1865 12.1323 22.6385 12.7506 22.5771C13.149 22.534 15.1518 22.5932 15.3376 22.6485C13.4444 21.3028 12.6324 17.5725 13.1426 17.783C15.9104 18.9077 18.9483 20.0589 21.7599 19.603C21.9629 19.5688 22.1907 19.5368 22.4261 19.5107C22.7441 16.906 21.8193 14.0153 26.683 12.2548C30.2737 10.9558 32.927 13.7316 33.5421 15.8376C33.6655 15.9892 35.0254 15.7705 35.6001 15.6634C35.8422 15.6208 36.0408 15.8034 36.0798 16.0202C36.2455 16.9453 35.455 17.4546 34.7831 17.9753C35.4408 18.0792 36.084 18.226 36.6006 18.644C36.8138 18.8159 36.8302 19.134 36.601 19.3131C36.0034 19.7867 35.2861 19.9244 34.5485 19.984C34.1167 21.2323 32.9572 22.2291 31.7059 22.8668C31.7836 24.2162 31.6638 25.5699 31.1559 26.9248C30.0653 29.8008 27.6468 32.1815 24.849 33.4972C20.113 35.7207 13.723 34.2678 11.6103 29.4737C11.6036 29.4584 11.6044 29.4491 11.6014 29.4318Z" fill="white"/>
</svg>
