<svg width="45" height="45" viewBox="0 0 45 45" fill="none" xmlns="http://www.w3.org/2000/svg">
<g clip-path="url(#clip0_446_4350)">
<path d="M22.5 45C37 46.0741 46.5 35.5 45 22.5C43.5 9.50003 34.5 -1.50001 22.5 -2.5332e-07C10.5 1.50001 0 10.0736 0 22.5C0 34.9264 8 43.9259 22.5 45Z" fill="#5181B8"/>
<path d="M34.544 16.9341C34.9648 17.0266 35.1033 17.5384 34.9221 17.8868C34.7997 18.1318 34.6612 18.3712 34.528 18.6108C34.5173 18.7796 34.448 18.9374 34.299 19.03C33.1219 21.1477 31.7745 23.1511 30.2407 25.0293C30.2353 25.0347 30.2247 25.0402 30.2194 25.051C31.9876 26.2977 36.2163 29.4824 34.1499 31.2735C33.0688 32.2153 29.9372 32.0574 28.7228 31.5239C28.0251 31.219 27.3913 30.6801 26.7948 30.201C25.7563 29.368 25.4633 29.4171 24.5313 30.3044C23.333 31.4476 22.6673 32.1717 20.8991 31.9648C18.8221 31.7198 16.8249 30.5384 15.2377 29.2102C11.9038 26.4066 8.90533 21.6975 8.01061 17.3587C7.94136 17.0211 8.2236 16.7598 8.49527 16.7544C8.5113 16.7489 8.51653 16.7434 8.53257 16.738C10.1517 16.444 11.9677 16.3732 13.6027 16.5583C13.7571 16.5747 13.8744 16.64 13.9649 16.7216C14.0076 16.738 14.0554 16.7652 14.0927 16.8141C15.3923 18.3767 15.9675 20.4399 17.3202 21.9588C17.9753 22.6938 18.1883 22.574 18.2576 21.5614C18.2895 21.1259 18.2895 20.6904 18.2683 20.2549C18.2044 19.1171 17.7995 18.1209 17.6292 17.0157C17.6026 16.8578 17.6345 16.7162 17.7038 16.5965C17.7411 16.3624 17.9275 16.1392 18.1991 16.1011C19.7809 15.8887 21.4532 16.0848 23.0563 16.0358C23.2907 15.9704 23.477 16.063 23.5995 16.2263C23.7114 16.2589 23.8125 16.3405 23.8445 16.4876C24.0788 17.5001 24.0575 18.4692 24.0415 19.5035C24.0308 19.988 24.0203 20.4779 24.0096 20.9626C23.9989 21.2402 23.9989 21.5178 23.9989 21.7955C23.8923 22.3073 24.0894 22.5033 24.5848 22.3835C25.4209 22.476 25.6499 21.7683 26.06 21.1151C26.3049 20.7286 26.5393 20.3311 26.763 19.9283C27.285 18.981 27.6737 17.9847 28.1584 17.0211C28.2436 16.8414 28.3928 16.7598 28.5472 16.7381C28.5951 16.7109 28.6538 16.6945 28.7123 16.689C30.6189 16.6454 32.6694 16.5257 34.544 16.9341Z" fill="white"/>
</g>
<defs>
<clipPath id="clip0_446_4350">
<rect width="45" height="45" fill="white"/>
</clipPath>
</defs>
</svg>
